<?xml version="1.0" encoding="utf-8"?>
<!-- Generator: Adobe Illustrator 21.0.0, SVG Export Plug-In . SVG Version: 6.00 Build 0)  -->
<svg version="1.1" id="Layer_1" xmlns="http://www.w3.org/2000/svg" xmlns:xlink="http://www.w3.org/1999/xlink" x="0px" y="0px"
	 viewBox="0 0 1140 360" style="enable-background:new 0 0 1140 360;" xml:space="preserve">
<style type="text/css">
	.st0{clip-path:url(#SVGID_2_);}
	.st1{fill:#414042;}
	.st2{fill:#FFFFFF;}
	.st3{opacity:0.8;}
	.st4{fill:#D7D7D7;}
</style>
<g>
	<g>
		<defs>
			<rect id="SVGID_1_" y="-0.9" width="1140" height="361.8"/>
		</defs>
		<clipPath id="SVGID_2_">
			<use xlink:href="#SVGID_1_"  style="overflow:visible;"/>
		</clipPath>
		<g class="st0">
			<rect y="0" class="st1" width="1140" height="361.8"/>
			<g>
				<g>
					<path class="st2" d="M586.2,65.8h3.6l-0.9,4l-0.7,3.3c-0.9,4-1.5,6.8-2,8.4c-0.5,1.5-1.2,2.9-2.1,3.9c-1.5,1.3-3,2.3-4.7,3.1
						c-1,0.5-1.7,0.8-2.1,0.9c-0.4,0.2-0.6,0.3-0.8,0.5c-0.7,1.1-1.4,3.1-2.1,5.9c-0.7,2.8-1,5.4-1,7.8l0.3,4
						c0.2,1.4,0.4,2.4,0.7,2.9l1.7-0.1c0.7-0.2,2.6-1,5.7-2.6l3.9-2.1l0.9,2l-3.2,2.3l-4.5,3.4c-1.6,1.4-3,2.4-4.3,3
						c-1.2,0.7-2.4,1-3.3,1c-1,0-1.8-0.6-2.3-1.7c-0.2-0.5-0.4-1.2-0.5-2.1s-0.2-2.1-0.2-3.6c0-8.6,1.1-15.1,3.2-19.5
						c2.1-4.4,3.7-7.4,4.7-9c1-1.7,2.2-3.8,3.8-6.2l3.3-5.1L586.2,65.8z"/>
					<path class="st2" d="M596.4,94.1l-1.5-2l1.2-0.8c3.1-2,5.6-3.9,7.5-5.6l2.8,1.6l-3.6,5.7l-3.3,6.9c-0.6,1.4-1,2.7-1.4,3.9
						c-0.3,1.2-0.5,2.1-0.5,2.9l0.2,0.4l0.3,0.1c0.7,0,2.2-1,4.6-3.1l1.3-1l1.4,1.3l-4.4,4.3l-3.9,3c-1.5,1-2.7,1.5-3.6,1.5
						c-0.6,0-1.1-0.2-1.5-0.7c-0.3-0.5-0.5-1.1-0.6-1.8l0.3-1.8c0.2-1.2,0.4-2.1,0.5-2.6c0.4-1.1,0.7-2,0.9-2.6
						C593.6,101,594.8,97.8,596.4,94.1z M592.8,72l6.1-3.8c0.3,2.3,1,4.1,2,5.2c1,1,2.7,1.8,5,2.3l-1.4,3.1l-1.9,0.4h-2
						c-2.4,0-4.2-0.4-5.2-1.3C594.3,77,593.5,75.1,592.8,72z"/>
					<path class="st2" d="M608.3,95.8l3.8-6.1c1.2-1.8,2.3-2.7,3.3-2.7c1.2,0,2,0.8,2.3,2.4l1.4,10.9c0.2,0.9,0.4,1.3,0.8,1.4
						c0.6,0,1.9-1.2,3.9-3.6l1.6-2l1.4-1.8c3.3-4,5.5-6.4,6.7-7.4l0.7-0.3c0.7,0,1.1,0.8,1.1,2.5c0,3.6-1.6,8.4-4.9,14.6l-5.9,10.9
						c-3,5.5-4.8,9.3-5.5,11.6l-1,4.1l-0.3,2.3l1.4-1.3l5.8-5.6l5.7-5.2l1.4,1.7l-8.9,10.1c-4.3,5-7.3,7.5-8.9,7.5
						c-1,0-1.4-0.6-1.4-1.8c0-1.4,0.5-3.9,1.6-7.5c1.1-3.7,2.6-7.4,4.5-11.2l5.7-11c2.8-5.9,4.3-9.7,4.3-11.6v-0.3l-1.4,1.9l-1.6,2
						l-4.2,5.2c-0.9,1.3-1.8,2.3-2.6,3.1c-0.8,0.8-1.9,1.2-3.2,1.2c-1,0-1.7-0.3-2-0.9l-0.5-1.9l-0.4-3l-0.5-4.3
						c0-1.2-0.2-2.6-0.7-3.9C611.8,95.8,608.3,95.8,608.3,95.8z"/>
					<path class="st2" d="M658.2,96.7l-1.7,2.1l-7.3,7.6l-6.7,7.4c-1.3,0-2.2,0.1-2.7,0.2l-2,0.3c1.4-5.4,2.8-9.4,4-12.1
						s3.1-5.5,5.6-8.4c2.5-3,5.3-5.5,8.4-7.5c3.1-2,5.5-3.1,7.3-3.1c1.4,0,2.5,0.7,3.5,2l-3.4,3.8l0.2,0.2l0.7-0.3l2.6-0.7
						c0.5,0,0.8,0.3,0.9,0.9c0,0.9-0.5,2.7-1.6,5.4l-1.5,4.3l-2.1,7.7c-0.5,2.2-0.8,3.8-0.8,4.9c0,0.7,0.3,1,0.8,1
						c1,0,3-1.3,6.2-3.9l1.3,1.4l-3.3,3l-4.3,3c-2,1.4-4.1,2-6.1,2c-0.9,0-1.3-0.7-1.3-2c0-0.6,0-1.2,0-1.8c0.2-1,0.3-2.1,0.4-3.3
						c0.1-1.2,0.4-2.9,0.9-5.2l1.4-5.3l0.9-3.2L658.2,96.7z M659.6,90.6c-3.4,0-6,0.9-7.8,2.8c-1.6,1.8-3,3.8-4,5.8
						c-1.1,2.1-1.9,4.4-2.5,6.9l0.2,0.2l7.9-8.1l3.4-4L659.6,90.6z"/>
				</g>
				<g class="st3">
					<g>
						<path class="st2" d="M557.7,127.3h2c-0.2,1.1-0.7,1.9-1.4,2.5c-0.8,0.6-1.7,0.9-2.9,0.9c-1.3,0-2.2-0.4-2.9-1.1
							c-0.7-0.7-1.1-1.8-1.1-3.1c0-1.6,0.5-3,1.4-4s2.1-1.6,3.5-1.6c1.2,0,2.1,0.3,2.7,0.9c0.6,0.6,1,1.4,1,2.5h-1.9v-0.1
							c0-0.5-0.2-0.9-0.5-1.2c-0.3-0.3-0.8-0.5-1.4-0.5c-0.8,0-1.5,0.4-2,1.1c-0.5,0.8-0.8,1.7-0.8,2.9c0,0.8,0.2,1.4,0.6,1.8
							c0.4,0.4,0.9,0.6,1.6,0.6c0.6,0,1-0.1,1.4-0.4C557.4,128.2,557.6,127.8,557.7,127.3z"/>
						<path class="st2" d="M560.4,130.5l1.2-6.9h1.7L563,125c0.3-0.5,0.6-0.9,0.9-1.2c0.3-0.2,0.7-0.4,1.2-0.4c0.1,0,0.1,0,0.2,0
							h0.1l-0.3,1.9c-0.2,0-0.3-0.1-0.4-0.1c-0.1,0-0.2,0-0.2,0c-0.4,0-0.8,0.2-1.1,0.5s-0.5,0.8-0.6,1.5l-0.6,3.3H560.4z"/>
						<path class="st2" d="M569.9,128.5h2c-0.2,0.7-0.6,1.2-1.2,1.6c-0.6,0.4-1.3,0.6-2.2,0.6s-1.7-0.3-2.2-0.9s-0.8-1.4-0.8-2.4
							c0-1.2,0.3-2.2,1-2.9c0.7-0.8,1.5-1.1,2.6-1.1c1,0,1.7,0.3,2.2,0.8s0.8,1.3,0.8,2.2c0,0.1,0,0.3,0,0.4c0,0.2,0,0.4-0.1,0.8
							h-4.7l0,0c0,0.5,0.1,0.9,0.3,1.1c0.2,0.3,0.5,0.4,1,0.4c0.3,0,0.5-0.1,0.7-0.2C569.6,128.9,569.8,128.7,569.9,128.5z
							 M567.5,126.3h2.8v-0.1c0-0.1,0-0.1,0-0.1c0-0.4-0.1-0.8-0.3-1s-0.5-0.3-0.9-0.3s-0.8,0.1-1,0.4
							C567.8,125.5,567.6,125.8,567.5,126.3z"/>
						<path class="st2" d="M576.9,129.8c-0.3,0.3-0.6,0.5-0.9,0.7c-0.3,0.1-0.6,0.2-1,0.2c-0.6,0-1.1-0.2-1.5-0.5
							c-0.4-0.4-0.6-0.8-0.6-1.4c0-0.8,0.2-1.4,0.7-1.7c0.4-0.4,1.2-0.6,2.3-0.8c0.1,0,0.2,0,0.4,0c0.8-0.1,1.3-0.3,1.3-0.7
							c0-0.2-0.1-0.3-0.3-0.5c-0.2-0.1-0.4-0.2-0.8-0.2c-0.3,0-0.6,0.1-0.7,0.2c-0.2,0.1-0.3,0.3-0.3,0.6h-1.8
							c0.1-0.7,0.4-1.3,0.9-1.6c0.5-0.3,1.2-0.5,2-0.5c0.9,0,1.6,0.2,2,0.5c0.5,0.3,0.7,0.8,0.7,1.4c0,0.1,0,0.1,0,0.2s0,0.1,0,0.2
							l-0.6,3.7c0,0.1,0,0.2,0,0.2c0,0.1,0,0.1,0,0.2c0,0.1,0,0.2,0,0.3s0.1,0.1,0.1,0.2v0.2h-1.9L576.9,129.8L576.9,129.8z
							 M577.2,127.2c-0.3,0.1-0.7,0.2-1.1,0.3c-0.9,0.2-1.4,0.5-1.4,1.1c0,0.2,0.1,0.4,0.2,0.5c0.1,0.1,0.3,0.2,0.6,0.2
							c0.4,0,0.7-0.1,1-0.3s0.5-0.5,0.5-0.9L577.2,127.2z"/>
						<path class="st2" d="M583.2,130.5c-0.2,0.1-0.3,0.1-0.5,0.1s-0.3,0-0.5,0c-0.6,0-1.1-0.1-1.3-0.3c-0.3-0.2-0.4-0.5-0.4-1
							c0-0.1,0-0.2,0-0.3s0-0.2,0-0.3l0.7-4h-1l0.2-1.3h1l0.4-2.1h1.8l-0.4,2.1h1l-0.2,1.3h-1l-0.6,3.3c0,0.1,0,0.2-0.1,0.3
							c0,0.1,0,0.2,0,0.2c0,0.1,0,0.2,0.1,0.3s0.2,0.1,0.4,0.1c0.1,0,0.1,0,0.2,0c0.1,0,0.2-0.1,0.5-0.1L583.2,130.5z"/>
						<path class="st2" d="M584.2,130.5l1.2-6.9h1.8l-1.2,6.9H584.2z M585.6,122.8l0.3-1.6h1.8l-0.3,1.6H585.6z"/>
						<path class="st2" d="M587.9,127.5c0-1.2,0.4-2.2,1.1-3c0.7-0.8,1.7-1.2,2.9-1.2c1,0,1.8,0.3,2.3,0.8c0.6,0.6,0.8,1.3,0.8,2.3
							c0,1.2-0.4,2.2-1.1,3c-0.7,0.8-1.7,1.2-2.8,1.2c-1,0-1.8-0.3-2.4-0.9C588.2,129.3,587.9,128.5,587.9,127.5z M591.8,124.8
							c-0.6,0-1,0.3-1.4,0.8s-0.6,1.2-0.6,1.9c0,0.5,0.1,0.9,0.4,1.2c0.3,0.3,0.6,0.4,1.1,0.4c0.6,0,1-0.3,1.4-0.8s0.6-1.2,0.6-1.9
							c0-0.5-0.1-0.9-0.4-1.2C592.6,125,592.2,124.8,591.8,124.8z"/>
						<path class="st2" d="M595.7,130.5l1.2-6.9h1.7l-0.2,1.1c0.4-0.5,0.7-0.8,1.1-1c0.4-0.2,0.8-0.3,1.2-0.3c0.6,0,1.1,0.2,1.5,0.5
							s0.5,0.8,0.5,1.4c0,0.1,0,0.3,0,0.4s0,0.3-0.1,0.4l-0.8,4.4H600l0.8-4.4c0-0.1,0-0.2,0-0.3c0-0.1,0-0.1,0-0.2
							c0-0.3-0.1-0.4-0.2-0.6c-0.2-0.1-0.4-0.2-0.6-0.2c-0.5,0-0.9,0.2-1.2,0.5s-0.5,0.8-0.7,1.4l-0.7,3.7L595.7,130.5L595.7,130.5z
							"/>
						<path class="st2" d="M603.6,128.1h1.7c0,0.4,0.1,0.7,0.4,0.9s0.5,0.3,0.9,0.3c0.3,0,0.6-0.1,0.8-0.2c0.2-0.1,0.3-0.3,0.3-0.6
							s-0.3-0.6-1-0.8h-0.1c-0.9-0.3-1.6-0.6-1.9-0.9c-0.3-0.3-0.5-0.8-0.5-1.3c0-0.7,0.2-1.2,0.7-1.6s1.2-0.6,2-0.6
							c0.9,0,1.5,0.2,2,0.6s0.7,1,0.7,1.7H608c0-0.3-0.2-0.5-0.4-0.7s-0.5-0.2-0.8-0.2s-0.5,0.1-0.7,0.2s-0.2,0.3-0.2,0.5
							c0,0.3,0.4,0.5,1.2,0.8l0,0c0.9,0.3,1.4,0.6,1.7,0.9s0.5,0.8,0.5,1.3c0,0.7-0.3,1.3-0.8,1.7s-1.2,0.6-2.1,0.6
							c-0.9,0-1.7-0.2-2.2-0.7C603.8,129.6,603.6,129,603.6,128.1L603.6,128.1z"/>
					</g>
				</g>
				<g>
					<g>
						<path class="st2" d="M523.4,54c11.7,0.8,20.9,3.7,27.6,8.7c-2.5,0.2-4.4,0.4-5.6,0.5c-6.4,0.6-9.7,0.9-10,1l0,0
							c-6.5,0-12.2-3.5-17.1-10.4h2.6C521,53.8,521.9,53.9,523.4,54z"/>
						<path class="st2" d="M549.2,56.1c-7.8-6.1-17-9.9-27.5-11.3c-1.4-0.2-3.4-0.3-6-0.5h-6.5l-7.3,0.6v9.7l4.3-0.4
							c0.1,0,0.6,0.6,1.5,1.7c1.5,2,3.1,3.7,5,5.1c1.8,1.4,3.5,2.5,5,3.2c1.2,0.6,2.1,1,2.7,1.3c2.1,0.9,4.5,1.5,7.1,1.9
							c2.2,0.2,3.8,0.3,4.9,0.4h7.5l11.4-0.6c1,0,1.8,0.1,2.4,0.2c0.6,0.1,1.4,0.5,2.3,1c2,1.3,3.7,4.3,5,9.1
							c0.2,0.8,0.2,1.7,0.2,2.7c0,1.8-0.5,4.1-1.6,6.7c-1.4,3.4-4.1,7.1-8.2,11.2c-4.1,4-7.8,6.8-11.3,8.4c-2.1,0.9-3.6,1.4-4.8,1.4
							c-1.9,0-2.8-1-2.8-3c0-2.4,1.4-6,4.2-10.8c2.8-4.7,4.4-7.7,4.9-8.9c0.7-1.6,1-3.2,1-4.8c0-3.7-2-6.2-6-7.6
							c-1.5-0.5-2.7-0.7-3.8-0.7c-3.3,0-6.1,1.3-8.2,4c-2.1,2.6-3.2,5.8-3.2,9.6c0,1.1,0.1,1.9,0.2,2.4h11.5c0-0.9,0.2-2,0.5-3.2
							c0.3-1.3,0.8-2.4,1.3-3.5c1.1-1.9,2.2-2.9,3.2-2.9c0.7,0,1.1,0.7,1.1,1.9c0,1.4-0.2,2.4-0.5,3.1c-0.9,1.5-1.6,2.6-2,3.2
							c-2.2,3.2-6.6,7.5-13.2,12.8c-6,4.9-10.1,9.2-12.2,13c-1,1.7-1.6,3-2,3.8h7.4c1.2-3.8,2.9-7.6,5-11.4c0.2,2,0.4,3.3,0.6,3.8
							c0.9,2.6,3.3,4.5,7.2,5.8c3.4,1.2,6.3,1.7,8.5,1.7c8.2,0,15-2.4,20.3-7.2c0.1-0.1,0.2-0.2,0.4-0.3c-9.1,14-25.3,23-43.5,21.8
							c-23.9-1.5-43.3-20.9-44.9-44.9c-1.8-29,22.1-52.9,51.1-51.1c23.9,1.5,43.3,20.9,44.8,44.9c0.2,2.6,0.1,5.1-0.1,7.6
							c-0.5-8.9-3.9-17.1-10.3-24.7C553.8,60,551.6,57.9,549.2,56.1z"/>
					</g>
				</g>
			</g>
			<g>
				<g>
					<path class="st4" d="M397.3,205.2c-2.1,1.6-4.4,2.7-6.5,4.3c-3,2.3-4,5.8-6.2,8.6c-1.7,2.1-3.9,4.8-6.4,5.9
						c-2.8,1.2-5.5,0.5-8,2.6c-1.8,1.6-2.3,3.8-3.9,5.5c-1.1,1.2-2.8,2-4.1,3c-2.9,2.1-4.6,4.8-7.1,7.2c-3.5,3.3-13.4,1.7-13.4,8.6
						c-5.1,0.2-9.9,4.7-11.7,9.3c-1.2-0.6-2.7-0.8-4-1.2c-3.2-1-5.5-2.7-8.3-4.3c-3.2-1.8-7-4.7-10.6-5.6c-1.7-0.4-8.2-1.7-9.7-0.4
						c-0.9,0.8-0.2,3.5-1.8,4.2c-1.5,0.7-1.8-0.4-3.1-0.6c-3.6-0.5-2.5,0.1-6.1,2.3c-3,1.8-4.6,2-6.6,4.8
						c-2.1,3.1-5.7,15.8-10.4,15.1c-1.1,2.9-2.8,5.6-2.1,9.7c-2.2,0.1-5.8-1-7.7,0.6c-0.9,0.8-1.3,3.2-2.5,5.3
						c-1.2,2.3-3.2,4.2-3.8,5.4c-1.3,2.7,0.3,5-2,7.1c-2.9,2.5-6.4,3.4-9.8,5.3c-4.1,2.2-7.7,4.7-11.4,7.7c-3.2,2.6-7,4.1-8.6,8
						c-0.8,2.1-1.1,4.4-2.1,6.3c-0.6,1.2-2.1,2.5-2.2,3.9c-0.1,1.2,0.8,2.3,1.4,3.4c-0.7,2.1-2.1,2-3.3,3.8c-0.9,1.1-0.6,2.2-1,3.5
						c-0.6,1.5-1.5,2.6-1.9,4.2s-0.3,3.3-0.9,4.9c-2.9,7.9-9.8,12-14.4,18.7c-1.4-1.2-2.5-2.9-4.1-3.9c-4.9,5.2-10.4,9.1-16.8,12.5
						c-14.7,7.7-25.6,21-39.4,30c-6.2,4.1-12.2,8.8-18.5,12.9c-2.3,1.5-5.3,3.8-8.4,5.5c0.3-0.1,0.6-0.2,0.9-0.4
						c2.7-1.1,4.8-3,7.4-4.4c2.9-1.6,6.2-2.1,9.2-3.5c9-4.2,16.8-10.3,25.9-14.4c3.5-1.6,7.1-3.8,10.9-4.6c2.1-0.5,4.6-0.6,6.7-1.1
						c-0.9,4.8,6.3-2.8,7.3-3.7c3.2-2.9,7.8-6.5,8.8-10.9c1,0.3,2.5,0,3.4,0.4c1.5,0.7,2.3,2.5,3.4,3.4c2.3-4.8,6.5-9.2,9.3-13.8
						c0.9-1.5,1.6-4,2.8-5.4c1.1-1.2,2.9-1.7,4.2-2.7c2.7-2.1,4.3-2.9,6.2-6c1.5-2.6,2.7-5.1,5.1-5.9c4,3.7,8.6,8.1,9,13.7
						c0.4,4.4-0.2,6.1,3.3,9c1.9,1.6,2.4,3.1,3.6,4.8c1.4-0.1,3.4,1.2,4.9,2.9c-1.6-2.4-2.1-6.2-3.2-9c-1.9-5-3.8-10-5.4-15
						c1.6,3.1,2.9,6.4,3.9,9.7c3.4,10.8,11.6,19.3,14.3,30.3c-1.8-6.5-2.3-13.5-3.4-20.2c-1.2-7.2-2.2-14.8-2.4-22.1
						c-0.2-4.6-0.1-11,1.2-15.5c0.9-3.1,3.1-5.7,4-8.8c0.6-2.1,0.6-4.4,1.6-6.5c0.8-1.7,2.5-2.8,3.3-4.2c1.1-2,1-5.4,3.4-6.4
						c3.3,3.8,3.7,7.8,4.6,12.5c0.5,2.8,2.1,5.4,2.8,8.2c1,4,2.2,7.9,3.1,11.9c1.1,4.7,1.4,9.2,3.3,13.7c2.1,5,5.8,8.1,8.9,12.5
						c-2.4-4-2.5-8.9-2.9-13.4c-0.8-11.2,1.4-24.1,7.5-33.8c2.3-3.6,5.2-3.9,5.9-8.6c0.4-2.8,0.4-5.1,1.9-7.7
						c0.9-1.7,2.4-2.1,3.3-3.1c3.3-4.1,1.2-11.2,5.9-14.8c3.8-2.9,5.2,0.3,7.5,3.2c3.1,3.8,6.1,6.9,8.7,11.1c2.2,3.6,5.5,6.2,7.2,10
						c1.1,2.5,1.8,5.4,2.7,8c1.3,3.7,2.4,7.3,3.8,10.9c0.4,0.9,0.5,1.6,0.9,2.6c0.9,1.9,3.2,3.2,3.9,4.4c1.2,1.8,1.1,5,1.4,7.1
						c0.5,3.3,1.7,6.2,2.3,9.4c1.4,7,2,14.9,2.3,21.9c2.8-6,3.7-12.4,6.9-18.1c5.6-10.1,3.8-18.1,1.5-29.4
						c-1.4-6.9-2.2-11.3-6.8-16.5c-4.8-5.5-7.7-12.6-12.5-18.3c-5-5.9-9.5-12.7-13.9-19.1c-2.2-3.1-3-6.9-5-10
						c-1.8-2.9-3.9-5.5-5.2-8.7c8,3.3,16.1,6.3,22.7,11.9c2.8,2.3,5,5,7.6,7.5c3.5,3.2,7.9,4.3,11,8.1c3.8,4.7,4.1,9.5,6,14.8
						c1.2,3.4,4.3,5.1,6.2,8.1c2,3,2.7,6.3,5,9.2c4,5.1,7.9,10.4,12.3,15.1c-5.2-8.9-7.5-19-10.2-28.9c-1.4-5.3-1.7-10.9-3.8-15.9
						c-2.2-5.5-6.4-10.4-8-16c4.6,3.1,6.3,8.3,9.7,12.6c3.8,4.7,6.4,12.5,11.9,15.6c-1.1-6.9-5.2-12.9-5.2-20.1
						c0-3.3-0.8-5.8-1.3-8.7c-0.6-4-0.2-8.9-0.3-13.2c1.2,1,4.5,1.7,6.1,2.1c2,0.5,5.6,1.6,7.5,1.5c0.2-4-0.1-8.1,0-12.2
						c0.1-3.2,1.3-5.3,2.1-8.2c0.5-1.9,0.2-3.9,0.5-5.9c0.4-2.4,1.2-4.1,1.1-6.5c-0.1-2.1-1.1-4.3-0.9-6.4c0.2-2.4,2-4.4,2.6-6.6
						c1-3.3-1-6.7,0.5-9.7c1.4-2.7,5.1-4.1,4.9-7.8C396.9,204.5,397.3,204.7,397.3,205.2z"/>
					<path class="st4" d="M511.7,292c5.9,9,8.6,22.7,25.6,29c-4.3-7.6-1.3-26.9-5.5-39.3c-3.6-10.9,1-22.5-9.8-29.4
						c0.8-0.4-4.5-5.5-3.7-5.7c-3.1-9.6,4.3-11.2,7.2-18.8c1-2.5,6.7-3.1,7.6-6.5c1.1-3.9,3.5-9.5,3.1-13.5
						c-0.6-5.7,4.7-9.6,5.9-16.7c0.6-3.7-0.2-7.6,0.7-11c1-3.9,4.8-5.3,4.1-10.5c-7.7,8.4-19,14.6-26.4,23.3
						c-6.8,8-5.7,22.7-15.9,30.3c-3-1.4-9.7,9.9-17.4,18.2c-5.4,5.8-15,11.5-16.4,14.1c-4.6,8.5-12.9,22.3-17.4,23.1
						c-3,0.5-6.8-2.7-10.8-6.4c-0.5,5.5,4.3,7.9,5,13.6c0.2,1.7,8.4,10.4,11,14.2c7.5,10.9,9.6,13.4,10.3,24.8
						c0.4,2.9,4.4,8.9,5.7,8.7c-2.6-8.4-3.1-24.8-8-31.4c4.1-2.3,7.7-4.8,10.9-8.6c2.8-3.4,5.3-12.8,8.9-15.6
						c7.9-6.3,12.5-10.4,12.5-10.4s6.2,1.6,7.6,9.6C507.4,281.4,507.7,285.9,511.7,292z"/>
					<path class="st4" d="M110.1,429.2c-2.4,0.9-5.4,1.9-7.8,2.2C104.7,431.6,107.5,430.6,110.1,429.2z"/>
					<path class="st4" d="M205.5,262.2c0.1-0.1,0.2-0.1,0.3-0.2C205.3,261.7,204.8,261.5,205.5,262.2z"/>
					<path class="st4" d="M205.8,313.4c0,1-0.1,2-0.1,3C205.8,315.8,205.9,314.4,205.8,313.4z"/>
					<path class="st4" d="M152.3,316.7c2.2,2.9,1.4,6.3,4.7,8.5c1.6,1.1,3.6,1.1,5.1,2.1c0.9,0.5,1.6,1.6,2.5,2.2
						c1.5,0.9,2.7,1.5,4.1,2.6c4.2,3.4,8.7,6.8,12.5,10.6c4.2,4.2,8,9.4,11.8,14c2.8,3.5,4.7,7.6,7.6,10.9c-0.5-2.2-0.5-4-2.2-5.7
						c-4.8-4.7-3.5-9.4-5.1-14c-1.2-3.6-4.8-5.4-6.8-8.8c-1.7-3-5.5-7.3-6.1-10.7c-0.9-4.7,5-2.9,5-5.5c0-1-2.7-3.2-3.1-4.5
						c-0.5-1.8-0.2-3,0.6-4.4c2.7-4.5,9.2-10.1,14.6-7.4c2.6,1.2,3.3,4.2,5.8,5.2c1,0.4,0.8-1.5,2.2,0.2c0.2,0.3,0.3,0.8,0.4,1.4
						c0.1-4.7,0.4-9.5,0.2-14.2c-0.3-6.8,0.3-13.3-0.5-20.2c-0.4-3.2-0.3-5.8,0.2-8.8c0.3-2.2-1.7-6.5,0.1-7.7
						c-0.1-0.1-0.2-0.2-0.3-0.3c-2.4,1.7-5.8,5.5-8.6,5.8c-0.8,0.1-1.8-0.9-2.7-0.7c-1.8,0.2-3.7,2.5-5,3.5c-2,1.4-4.9,2.1-6.7,3.6
						c-1.1,1-1.4,2.5-2.4,3.6c-1.7,2-5.9,4.9-8.5,5.4c-1,0.2-1.9-0.5-2.9-0.1c-1.2,0.4-2.5,2.3-3.5,3.1c-2.3,1.9-2.2,2.4-2.8,5
						c-1.1,4.6-6.1,8.8-9.9,11.4c-3.4,2.3-5.5,5.9-8.5,8.7C146.7,313.4,150.3,314.1,152.3,316.7z"/>
					<path class="st4" d="M101.1,371.9c-0.5-4.2,0.7-8.5,3-11.9c2.8-4.1,3.7-6.1,3.3-10.7c-0.3-3.1,1.1-5.8,2.6-8.6
						c2.5-4.6,4.2-9.6,6.6-14.3c1.7-3.3,4.5-7.1,3.5-11.1s-4.2-9-3.8-13.2c-2,0.3-1.7,0.1-1.4-0.1c-3,1.2-6.1,2.7-8.8,4.7
						c-4.2,3.2-8,4.9-13,6.8c-4.5,1.7-8.9,3-12.7,6.3c-3.2,2.7-5.8,6.1-9,8.8c-3.7,3.1-4.4,3.3-8.5,2.7c-4.9-0.7-8.5,0.6-12.3,3.5
						c-4.2,3.4-8.1,6.2-11.8,10.1c-1.2,1.2-2.5,2.8-3.8,4.3c0.1-1,0-2-0.6-3.4c-0.8-2.1-3-4.6-3.2-6.2c-0.3-2.7,2.6-5.3,3.7-7.4
						c0.6-1.1,0.7-2.4,1.3-3.5s2.1-2,2.4-3.2c0.2-0.7-0.5-2.3-0.4-3.3c0.2-1.3,1-2.5,1.2-3.7c-1.5,3.5-9.4,6.7-12.5,8.6
						c-3.5,2.2-5.5,6.5-7.9,9.9c-2.8,3.9-5.8,6.9-10.1,9.8c-1.5,1-8.1,7.2-5.3,8.4C3.2,356,3,357,3.1,357.9c0.6-0.1,1.3,0.2,1.8,0.1
						c0.1,2-1.8,3.7-3.5,4.8c-0.5,0.1-0.9,0.3-1.4,0.3c0.3,0,0.6,0,0.8,0c-0.2,0.1-0.4,0.2-0.5,0.3c1-0.2,1.9-0.3,2.9-0.3
						c0.4,0.1,0.8,0.3,1.2,0.8c1.2,1.4,0.1,2,0,3.9c3.6-0.3,9.6-6.6,12.6-2.2c2.5,3.6-2,9,1,12.4c1,1.2,2.1,0.7,3.3,1.4
						c1.6,0.9,1.6,1,2.4,3c2.4-1.4,3.3-5.1,5-7.2c1.1,3.2-1.4,6.5-2.2,9.5c-1,3.9,0.3,7.8,1.1,11.5c0.9,3.9,0.7,7.5,0.7,11.4
						c0.1,4.3,2.2,4.5,4.4,7.6c4.3-2.9,7.1-7.7,12.4-9.5c6.5-2.1,6.7,3.2,9.6,6.7c1.9-0.4,1.9-2.7,2.5-4.2c0.8-2,1.3-2.1,2.5-3.1
						c3.1-2.8,7.5-3.2,11.4-4.3c4.4-1.2,5.6,2,5.7,6.1c0.2,5.7-0.3,11.5,0,17.2c2.7-3.6,3.6-8.7,6-12.6c1.4-2.3,2.3-4.5,3.6-6.9
						c2.4-4.6,7.2-9.3,12.2-11c0.4-4.5,5.8-7.5,6.1-12.6C104.8,377.3,101.5,375.4,101.1,371.9z"/>
					<path class="st4" d="M607.6,229.1c-0.3,2.4-0.4,4.3-0.5,6C607.6,233.2,607.9,231.2,607.6,229.1z"/>
					<path class="st4" d="M626.9,248.3c-3.2,3.5-4.1,6.9-6.4,10.8c-5.4,8.9-18.9,19.3-28.1,24.1c6.6-8.1,5.1-18.8,8.9-29.2
						c1.5-4.2,3.7-8,4.8-11.9c0.8-2.8,1-4.8,1.1-7.1c-1.2,4.5-3.9,8.2-5,11.2c-2.5,6.8-4.9,12.7-8,19.3c-2.8,6-5.7,9.9-10.7,14.8
						c-3.8,3.8-7.9,11.5-12.2,13.4c1.8,6.4-4.3,8.5-6.7,13c-4.5,8.1-6.6,17.7-13.4,25.2c-1.3-1.9-3.6-2.6-5.1-3.8
						c-5.3,11.1-11.7,22.9-21.9,28.8c-5.1,3-4.9,0.8-8,8.2c-2.8,6.6-7.2,12.1-10.3,18.3c4.7-1,7.8-3.4,10.9-7c2.3-2.7,6-9.4,6-9.4
						s4,1.9,6.8-0.2c3.3-2.4,7.7-12.5,9.9-16.1c0.5,1.2,1.9,2.3,2.5,3.5c5.2-4.4,11.1-6.5,15.9-11.7c6.5-7,6-7.6,10.4-15
						c0.8-1.3,2.7-2.3,4.3-4.8c0.7-1.1,0.5-5.9,0.5-5.9s4.9,1.8,5.4,0c1.4-4.9,4.3-6.3,6-8.1c5.1-5.2,22.3-5.6,19.1-15.3
						c4.5-1.4,8.2-7.8,11.1-11.4c3.4-4.4,6.8-6.3,10.3-9.8c3.8-3.7,3.6-9.2,8.3-17.2c0.2-0.4-1-2.8,0.3-5.4c2.1-4.3,1.8-8.1,1.2-10
						C633.6,242.4,629.5,245.4,626.9,248.3z"/>
					<path class="st4" d="M733.3,301.9c0.1-7-0.3-12.9,2.5-19.8c2.2-5.5,7-10,6.9-16.3c-0.2-6.2-3.5-11.6-5.8-17.1
						c-1.1-2.7-5.1-8.2-0.1-9.8c1.4,2,4.4,2,6.2,4.2c1.7,2,2.7,4,4.9,5.6c2.9,2.1,5,3.1,7.3,6c2.2,2.8,4,6,6.3,8.6
						c-0.1-5.5,1.2-11.2,0.7-16.5c-0.3-3.6-1.1-8.4-2.8-11.7c-1.6-3-4.5-4.5-6.1-7.5c-1.9-3.7-0.4-6.2-4.5-8.3
						c-3-1.5-6.2-1.4-5.5-5.9c-4.3,1.6-8.4,4.2-11.6,6.1c-5.9,3.5-3.2-2.6-5-6.4c-4.6,4.8-12.4,9.9-18.1,13.3c0-1.6,0-3.1,0-4.7
						c-2.8,3.3-4.7,5.9-6.4,9.9c-1.3,3.1-5,9.1-3.6,12.2c3.6-6.6,9.7-9.3,14.2-15.2c0.2,5.6-2.5,11.5-1.9,17c1.7-0.8,2.6-3,4.2-3.9
						c0.6-0.3,2.4-0.6,2.8-0.8c1.2-0.7,3.4-2.2,4.8-3.8c1.8,4.5-2.5,13.8-5.1,17.4c-2.2-0.2-2.9-2.4-3.5-4.4c-1.6,2.3,0,5.7-0.3,8.4
						c-0.2,2.3-1.1,4.3-2,6.4c-1.1,2.8-2.1,4.4-1.3,7.4c0.5,2,2,2.7,1.1,4.8c-2.2-1.2-4.7-0.8-7-2.1c-2-1.2-2.6-2.8-5.4-2.2
						c1.9,3.9-2.1,6.6,2.9,8.4c4.2,1.5,5.9-0.2,9.9,2.6C718.7,288.4,724.6,300.2,733.3,301.9z"/>
					<path class="st4" d="M889.1,296.3c-0.4-1.9,0.1-3.5,2.2-3.3c0.3-2-1.3-3.4-1.7-5.1c2.5-0.3,4.2-2.5,6.9-2.3
						c-2.2-0.4-4.7-0.6-6.9-0.7c-2.3-0.1-5-1.1-6.8-1.1c-2.6-0.1-10,4-11.3,6.7C876.4,292,884.5,298.2,889.1,296.3z"/>
					<path class="st4" d="M1029.1,339.4c-2.5,0.9-4.8,1.5-7.4,2c-4.5,0.9-8.4-1.1-13.1-1.2c-0.4,1.3,0.3,2.4,1.6,3.1
						c-2.9,0.9-6.9,2.3-10,2.6c-2.6,0.2-4.5-1-7,0.6c0.5,0.7,0.6,2.2,1.2,2.9c-5.9,3-13.5,2.7-19.8,3.6c-13.3,1.9-31.1,7.4-43.5,0.1
						c-5-2.9-8.7-7.3-13.9-10c-4.4-2.2-7.5-4.5-11.1-7.7c-1.9-1.8-4.4-4.3-8.4-2.7c8.4,8.2,9.4,23.4,7.5,34.4
						c-1,5.9-2.5,12-4.9,17.5c-2.5,5.7-5.6,7-11.1,9.3c-5,2.1-8.3,3.6-13.3,1.7c-6.1-2.3-11.1-5.5-17.7-6.2c1.6,1,3.2,2.6,4.3,4
						c-4.2,2.7-7.9,6-12.7,7.5c-6.6,2-17.4,6.3-24.2,4.5c2.1,0.3,4.1,1.4,6.2,1.9c-2.2,2.3-2.9,4.7-6.3,5.8c-3.1,1-7,1.4-10.3,1.5
						c-10,0.4-16.7-1.6-25.1-6.5c-4.9-2.9-12.2-4.9-17.8-3.1c3.5,1.1,7.3,3.7,10.3,5.8c3.2,2.2,2.9,3.6,3,7.1
						c-7.7,0.2-15.5,2.4-23.9,3.8c-4.5,0.8-9.1,2.9-9.1,2.9s8.5,6.8,10.4,9.2c-4.7,0.1-8.1,3.2-13.2,3.1c-3.2-0.1-14.2,0-10.5,6.6
						c-4,0.7-7.3,2.8-11.2,3.7c-2.7,0.6-5.9,0.3-8.4,1.9c-2.1,1.3-3.3,3.3-4.2,5.5c6.7-5.8,11.5-5.4,19.8-3.6c1,0.2,3,1.1,4,1
						c2.9-0.2,1.4-0.8,3.7-2.5c3.1-2.1,5.4-1.5,9-1.9c6.2-0.7,12.1-3.5,18.1-5.1c7.4-1.9,15.2-1.6,22.5-4.1c2.7-0.9,5.3-1.9,7.9-3.1
						c-1.8,3.1-7,4.2-9.8,5.6c-1.7,0.8-13.7,5.5-13.4,7.4c0.5,3.1,4.3-0.6,4.9-0.8c2.3-0.7,5.4-0.1,7.4,1.4
						c4.9,3.7-0.6,7.5,0.3,12.6c2.8,0.3,6-1.2,8.7,0.2c1.9,0.9,2.3,2.3,4.2,3.3c2.4,1.2,2.2-0.5,4,1.6c1.5,1.9,1.3,4.6,1.9,6.8
						c2.1-4.4,4.6-8.6,3.1-13.2c-1.2-3.4-3.4-3.7-5.7-6.2c-2.3-2.4-2-5.8-4-8c-1.8-2.1-5.4-1.9-7.6-3.2c2.8-2.1,7.6-3.2,6.2-7.5
						c4.9-2.2,9.8-4.7,14.4-7.3c8.3-4.5,18-5.4,26.6-9.8c8.8-4.5,19.2-3.7,28.9-5.7c8.6-1.8,16.4-6.1,24.8-8.7
						c11.8-3.6,22.7-9.6,33.6-15.3c9.1-4.7,17.1-9.3,26.7-13.1c9.2-3.7,17.7-9.4,26.4-14c2.2-1.1,4.4-2.1,6.7-3
						c-1,1.8-3,2.4-3.9,4.1c-0.4,0.7,0.4,1.9,0,2.6c-0.5,1.1-1.4,1.7-2,2.8c-1.3,2.3-2.1,2.3-0.6,4.2c0.7,0.9,3.7,1.9,4.7,1.1
						c2.7,2.6,2.6,6.4,2.7,9.9c0.4-0.2,0.6-0.1,1.1-0.6c-0.2,5.4-0.3,13.6-2.9,18.9c4.3-7.5,12.2-16.1,11.8-25
						c-0.2-3.2-1.3-7.2-2.6-10c-1-2.2-6.2-6.4-6.4-8.9c5.6-2,11.4-3.7,16.9-6.3C1014.5,348,1025.2,345.9,1029.1,339.4z"/>
					<path class="st4" d="M1087.7,355.6c-1.3-4.1-3.8-7.3-4.5-11.3c-0.6-3.5-1.3-7-2.2-10.4c-1.6-6.2-7.3-14.5-4.5-20.9
						c-3.1,5.2-14.2,11.4-20.3,13.2c0.7,1.4,1.3,4.4,0.2,5.8c-1.9,2.3-1,0-2.7,0.6c-1.9,0.6-5.9,2.7-8.3,2.6
						c-1.2,5.2-2.4,12.7-7.8,13.5c-0.7,0.1-1.6-0.5-2.6-0.4c-1.7,0.2-3.3,1.7-4.9,2.3c-3.2,1.2-5.5,1.4-8.3-0.1
						c-0.7,5.4,2.5,10.2,0.7,15.8c-1.5,4.6-5.5,8-6.4,13c-0.2,1,0.6,2,0.4,2.8c-0.3,1.7-1.7,2.8-2.2,4.3c-0.6,2-0.7,4.4,0,6.3
						c0.6,1.5,1.7,2.5,2.2,4.2c0.4,1.3,1.4,4,1.5,5.4c0.8,7.7-4.5,16.2-5.2,23.7c2.5-4.8,6.6-8.3,9.3-12.5
						c3.2-5.1,6.9-15.1,7.4-21.3c0.4-5-4.1-12.5-2.8-16.6c0.9-3,5.7-5.4,8.7-5.1c0,2,0.4,4.2,2.2,5.2c3.7-4.3,2.3-11,4.2-16.2
						c3.2-8.8,11.3-14.6,18.9-19.1c2.7,2.6,2,15,5.1,14.9c0,1.6,0.2,3.2,0.4,4.7c1.4-2.7,4.2-9.8,7-11.1c2.4-1.2,4.5,1.2,6,2.3
						c5,3.7,8.7,8.8,11.4,14.7C1089.5,362.8,1088.8,359.3,1087.7,355.6z"/>
					<path class="st4" d="M988.1,401.3c-0.3,0.5-0.6,1.1-0.9,1.6C987.5,402.4,987.8,401.9,988.1,401.3z"/>
					<path class="st4" d="M958.4,375.2c-4.6,2.3-15.7,7.7-15.1,14c2.2,0,3.7-1.9,5.4-3.2c1.2,1.5,1.1,4.1,1.8,6
						c1.4,3.9,4.1,6.9,6.1,10.4c1.5-4.1-2.4-9.3-1.1-13.9C956.8,383.6,958.4,380.8,958.4,375.2z"/>
					<path class="st4" d="M925.8,402.2c-3.9-0.6-7.7,0.6-11.6-0.2c-2.2-0.5-3.9-0.9-6.9-0.3c-4.3,0.9-9.4,1.5-12.2,2.7
						c-5.5,2.7-11.2,4.6-16.6,7.1c1.7,1.5,5.9,0.9,8.2,2.5c-2.2,3-4.8,4.6-6.6,8.1c4.8-0.5,9.4-2.7,14.3-3.3c3.1-0.4,8.5-2.2,10.9,0
						c3.5,3.1,3.6,11.3,2.6,15.5c-1.1,4.6-3.5,10-6.3,13.9c5-4,9.1-8.5,14.6-11.8c-0.2,1.6-1.1,3-1.7,4.6c7.8-7.6,19.4-15,18.8-27.4
						C933,408.3,931.7,403.2,925.8,402.2z"/>
					<path class="st4" d="M861.8,449.6c-0.3-2.1,1.2-4.2,1.1-5.9c-0.1-1.4-1.3-3.2-2.5-4.5c-2-2.3-4.4-4.7-6.8-6.5
						c-2.8-2-6.2-3.1-8.7-5.4c-3.9-3.5-0.4-4.5-1.2-8.8c-2.5,2.3-7.9,3.4-9.9,6c-0.8,1.1-3.3,7.9-3.1,8.6c0.8,1.9,5.5,3,7.2,3.9
						c2.1,1.2,4.5,2.7,6.2,4.4c4.1,4.2,4.1,7.7,4.1,12.9c5.1,0.3,10.5-0.1,15.5,0.4c4.9,0.5,8,4.5,11.4,7.7
						c-1.3-3.2-0.6-8.2-3.2-10.8C870,449.8,864.2,447.9,861.8,449.6z"/>
					<path class="st4" d="M741,451.5c-1.4,1.7-3.8,1.8-5.8,1.1c-1.1,5.6-4.3,7.8-9.1,10.7c-3.6,2.1-6.1,1.8-3,4.9s2.8,1.7,0.2,5.8
						c3.4,0.2,6.7,1.8,8.9,4.5c2.4,3,1.5,7.3,3.2,10.3c0.7-4.9,2.9-10.4,5.1-14.9c1.4-3,2.3-5.3,2-8.7c-0.3-2.6-1.1-5,0.1-7.8
						C742.6,455.6,741.3,453.7,741,451.5z"/>
				</g>
				<g>
					<g>
						<path class="st2" d="M556.6,243.7c-0.2,1.4-0.4,2.7-0.7,3.9C556.3,246.2,556.5,245,556.6,243.7z"/>
						<path class="st2" d="M556.6,243.7c0.4-2.4,0.8-5,1.5-6.9c0.8-2.1,2.7-2.8,2.4-5.4c-0.2-2.2-2.3-3.5-2.9-5.8
							c-0.7-2.4-0.7-5.6-0.9-8c-0.4-4-0.3-6.5,0.6-10.2c0.8-3,1.1-5.9-0.1-8.9c-1.2-3.2-3.7-8.7-4.2-9.2c-4.7,0.3-0.8,8.8-0.7,11.4
							c0.2,5.3,0.1,8.9-2.4,13.4c-1.2,2.2-2.9,6.1-1.8,8.8c1.5,3.7,5.4,5.7,6.8,10C556.2,236.8,556.9,240.1,556.6,243.7z"/>
						<path class="st2" d="M574.4,234.2c0,0.1,0,0.3,0,0.4C574.5,234.6,574.5,234.5,574.4,234.2z"/>
						<path class="st2" d="M572.4,264.7c-0.6-2.3-2.1-3.3-1.4-6c0.5-2,2.2-3.7,3-5.7c1.1-2.7,1.8-6.3,1.9-9.2
							c0.1-3.2-1.5-6.1-1.4-9.2c-0.2-0.1-1.3-2.3-1.8-4.2c0,4.8-0.7,10.8-2.3,15.3c-1.5,4.2-4.4,8.1-5.2,12.6
							c-1.1,5.9,4.4,9.6,2.5,15.6c-1.8,5.8-4.6,11.9-7.6,17c-1.4,2.4-1.2,4.1-1.3,6.8c-0.2,4-2.9,7.6-3,11.3c1.3-2.5,1.8-6,2.8-8.8
							c1.4-3.6,4.1-6.8,6.1-10.1c3.1-5.2,5.2-8.2,6.3-14.1C571.6,272.5,573.3,268.4,572.4,264.7z"/>
						<path class="st2" d="M595.6,267.8c0.2-2.4-1.1-2.2,0.4-4.2c0.9-1.2,2.5-1.9,3.4-3.2c2-2.9,3.8-7.3,5-10.5
							c2.3,3.1,6.4,5.2,6.1,9.7c0.4-2.9,0.8-4.9,0.7-7.6c-0.1-2.5,0.4-5.5,0-8.2c-0.5-4.3-3.1-9.2-3.2-13.1
							c-1.9,3.8-1.9,7.6-5.1,11.2c-3.9,4.3-4,5.7-5.4,11.2c-1,4-3.9,6.7-4.7,11c-0.7,3.6-1.2,7.5-3.6,10.6c-1.9,2.5-4.6,4.1-6.5,6.5
							c-1.3,1.7-2.6,3.5-4,5.3C584.6,284.2,595.1,274.5,595.6,267.8z"/>
						<path class="st2" d="M531.1,196.1c2.3-3.3,4.1-6.1,3.5-10.4c-2.5,2.5-4.3,6.1-7.4,8.1v-0.7c-0.8,4,0.6,8.5-1.7,13.1
							C528.6,205.4,529.5,198.5,531.1,196.1z"/>
						<path class="st2" d="M490.6,258.3c0.8,1.6,1.1,4.3,0.4,5.9c1.1-4.5,4.1-6.5,4.3-10.9c0.2-4.3,2.8-8.2,2.8-12.3
							c-3,2.2-3.9,6.2-3.8,3.8c-1.5,2.1-7.6,7.4-6.8,10.3C487.7,255.9,490,257.1,490.6,258.3z"/>
						<path class="st2" d="M641.3,273.6c0.7,3.3,4,6.7,5.3,9.9c1.8,4.3,4.3,8.2,7,12.2c4.1,6.2,6.2,10.7,7,18.3
							c1.5-3.4-1.5-9-2.4-12.6c-1.1-4.6,0.2-8.6-1.8-13.1c-1.7-3.9-2.7-8.2-4.3-11.8c-1.4-3-7.4-9.9-2.5-12.9
							c-3.3-2-3.5-5.1-5.9-8.1c-1.7-2.2-4-7-6.5-8.1c0.5,4.7,3.5,9.4,5,13.6C643.7,265.7,640.3,269,641.3,273.6z"/>
						<path class="st2" d="M636.1,290.5c3.2,9.4,4.6,19.7,5.4,29.4c0.5-1.6,1.6-3.5,3.4-4.3c-4.7-1.7-0.9-17.6-2.3-21.6
							c-0.5,0.6-1.4,0.9-1.8,1.7c-1.6-5.1-3.9-9.2-4.7-14.5c-0.8-4.8-1-10.2-2.4-14.8c0,0.5,0,0.9,0,1.7c0.3,3.8-1.8,6.7-1.8,10.3
							C631.8,282.3,634.8,286.9,636.1,290.5z"/>
						<path class="st2" d="M628.6,306c3,4.6,4.8,9.7,7.1,14.3c0.1-8.3-4.6-12.6-8.1-19.5c-1.4-2.7-1.9-5.4-3-8.1
							c-0.9-2.3-2.7-3.5-3.2-3.5c4.3,8.9,7,18.5,8.2,28.3C629.7,313.6,629.3,309.6,628.6,306z"/>
						<path class="st2" d="M613.7,296.6c1.1,3.1,1.4,6.2,2.2,9.3c0.6,2.2,3,4.2,2.8,6.3c5-2.6,14.4,30.5,18,33.9
							c-2.2-4.3-3.3-9-5.2-13.5c-1.4-3.2-3.3-5.9-4.7-9.1c-2-4.6-4-8.8-5.5-13.6c-0.6-2-1.9-3.9-2.4-5.9c-0.3-1.5,0.4-3,0-4.3
							c-0.8-2.6-4.1-4.9-5.6-7.1C613.2,294.5,614,296.1,613.7,296.6z"/>
						<path class="st2" d="M595,315.8c1.9,5.1,8.3,10.2,11.6,14.7c2.4,3.3,5.2,7.2,7.2,10.8c2.3,4.2,4.1,11.1,8,14.1
							c0.2-3.7-4.5-7.9-5.9-11.4c-2.4-6.1-5.2-13.3-6.9-19.8c-1.2-4.7-3.1-5.5-6-9c-1.8-2.2-3.4-6.5-4.2-8.4
							c0.4,1.1-0.7,7.3-1.8,9.2C596.4,315.8,595.6,316,595,315.8z"/>
						<path class="st2" d="M589.6,342.3c1.7,1.4,4.5,2.8,6,4.7c1.5,2,1.5,4.9,3.2,6.6c-0.2-1-0.1-2.3-0.2-3.4
							c6.5,0.8,10.8,7.6,16.5,10.2c-2.3-3.8-3.7-8.1-6.6-11.5c-2.9-3.3-7.1-4.6-9.9-8.1c-4.6-5.9-7.6-14.2-11.3-20.8
							c0,2.5,1.1,5,0.8,7.2c-0.2,1.6-2,1.5-0.9,3.6c-2.4-1.5-4.6-4.2-7.4-4.5c-0.2-0.6,0.1-0.8-2.2,0
							C582.1,331.1,584.6,338.2,589.6,342.3z"/>
						<path class="st2" d="M678.2,330c-0.7-4.5-4.1-7.4-6-11.1c0.5,2.7,1,8.3,1.1,10.2c0.2,4,2,10.1,0.7,13.9
							c-1.5-0.3-3.1-1.3-4.5-2.1c0.9,2.6,3.5,4.4,4.8,6.8c1,1.8,1.2,4,2.3,5.6c2.1,3,6.2,4.7,8.8,7.3c1.7,1.8,3.1,4,4.9,5.7
							c-2.8-8.4-6.2-17.3-10.4-24.9C677.7,337.6,678.9,334.1,678.2,330z"/>
						<path class="st2" d="M671.5,317.5c0.2,0.5,0.4,0.9,0.6,1.4C671.9,317.8,671.7,317.1,671.5,317.5z"/>
						<path class="st2" d="M658.6,390.9c-8.3-4.5-13.4-11.3-20-18.1c-3.5-3.6-6.4-5.1-11.1-6.3c-4.6-1.1-6.3-4.9-10.2-6.4
							c2.6,4.2,4.4,6.7,8.9,9.4c4.8,2.9,7.3,8.6,11.9,12.1c3,2.3,5.5,5.2,8.4,7.5c3.3,2.6,6.1,3.7,8.7,7.3c4.4,6.1,7.7,13,12.4,18.9
							c-1.1-6.5-7.6-11.4-9.2-17.7c2.5,1,4.3,3.3,6.2,5.2c-1.1-1.3-0.9-1.3-0.2-2.6c-4.1-3.6-7.9-7.7-12-11.3c2.9,2,6.1,2.6,9.3,3.8
							C660.7,392.1,659.7,391.5,658.6,390.9z"/>
						<path class="st2" d="M673.3,399.4c-0.5-0.2-1.1-0.4-1.6-0.7c2.6,1.7,5.2,3.1,7.6,3.1C677.6,401,675.3,400.2,673.3,399.4z"/>
						<path class="st2" d="M664.1,393.7c-0.8-0.4-1.6-0.7-2.4-1c3.3,2.1,6.4,4.4,10,6C669,397,666.4,394.9,664.1,393.7z"/>
						<path class="st2" d="M686.7,322.4c2.9-5.9,0.2-12.6-0.9-18.5c-0.8-4.3-0.6-9-1.6-13.2c-0.5,5.7-3.6,4.3-7.4,3.1
							c-0.7,0.8,4.8,13.1,5.8,15.6C684.4,313.3,688.3,317.9,686.7,322.4z"/>
						<path class="st2" d="M718.7,309.8c0,2.5-2.8,7.6-5.3,8.6c-3.8,1.5-4.2-6.5-5.7-10c-2-4.5-4.7-9-6.8-13.5
							c-0.9,2.4,0.6,6.7,1.2,9.1c1.1,4.7,1.5,8.8,1.4,13.6c-0.1,5,3.3,8.6,6.2,12.9c3.2,4.6,6.1,8.2,8.3,13.6
							c2.1,5.4,2.9,11.6,5.3,16.8C716.6,343.8,718.6,327.4,718.7,309.8z"/>
						<path class="st2" d="M699.5,291.9c0.4,1,0.8,2,1.3,3c0.1-0.1,0.1-0.3,0.2-0.4C699.6,293,699.6,291.2,699.5,291.9z"/>
						<path class="st2" d="M482.6,310.4c-0.3-5-3.7-7.8-2.9-12.7c-1.5,5.8-4.3,9.8-2.6,15.9c1.2,4.2,2.6,8.2,3.5,12.6
							c0.7,3.2,2.9,6.7,2.6,10c0-6.4,0.3-12.7,0.7-19c0.2-4.1,1.9-6.4,3.2-10.2C485.8,308.2,484.4,310.1,482.6,310.4z"/>
						<path class="st2" d="M397.8,206.9c-0.3,0.6-0.8,1.4-1.5,2.2C397.2,208.3,397.8,207.5,397.8,206.9z"/>
						<path class="st2" d="M382,228.5c0.3,2,3,3.2,4.1,5.2c1.6,2.7,1.2,5.4,1,8.1c-0.2,3.5,0.6,5.9,1.2,9.4
							c-0.5-5.3,3.3-8.9,3.1-14.2c-0.2-3.9-0.1-7.3,0.5-11.1c0.3-1.8,1.3-3.9,1.2-5.6c-0.1-1.8-1.4-2.5-0.9-4.8
							c0.4-2.1,2.5-4.4,4.1-6.4c-2.2,2.1-6.1,4.6-7.1,6.6c-2,3.9-0.7,8.8-3.2,12.1c-1.3-0.9-2.2-2.8-2.6-4.5
							C383.5,225.6,381.8,226.9,382,228.5z"/>
						<path class="st2" d="M383.2,222.4c0,0.3,0.1,0.7,0.2,1C383.4,223.1,383.3,222.7,383.2,222.4z"/>
						<path class="st2" d="M407,212c0.1,0.1,0.1,0.1,0.2,0.2C407.2,212,407.2,211.9,407,212z"/>
						<path class="st2" d="M406.3,218c1.9-0.6,3.5-3.9,0.9-5.9c-0.1,0.4-0.6,1.4-0.9,2.3c-0.5,1.5-1,2.6-1.3,4.3
							c-0.4,2.7-0.4,6.8,0.4,9.4C405.1,225.4,405.3,220.5,406.3,218z"/>
						<path class="st2" d="M408.6,282.1c1.6-4.2,1.8-8.9,3.2-13.2c0.7-2.1,1.7-9.6,2.7-10.6c0,0.4,0,1,0,1.4c2.3-3,3.5-4.7,6.3-6.9
							c1.7-1.3,3.2-2.6,4.3-4.2c2.6-4,4.5-9.9,5.8-14.4c-4.7,4.1-7.1,9.4-12.6,12.2c-0.6-0.6-3.1-1-3.3-1.3
							c-1.5-2.4,1.4-6.1,2.3-8.3c1.6-3.8,4.6-6.8,4-11.4c-0.6,0.9-1.8,1.5-2.4,2.2c-0.9-3,2.5-6.8,2.4-10.2c-2.1-0.2-3.1,1.7-5,1.9
							c-0.1-1.7,0.2-3.3,0.4-4.9c-0.5,0.5-3.6,2.5-3.9,4.9c-0.2,1.4,0.8,2.5,0.3,4.2c-0.4,1.4-1.6,2.6-2,4.1
							c-1.7,6.4,0.4,13.1-3.3,19c-0.4-0.4-1.5-1.5-1.5-1.6c-0.4,2.5,0.7,3.1,1.3,5.2c1,3.7,0,2.6-0.5,5.7c-0.8,5.2,0.6,7.8-2.2,12.9
							c1.5-0.6,2.9-2.3,4.5-3.1C410,271.3,407.9,276.8,408.6,282.1z"/>
						<path class="st2" d="M416.6,214.4v0.1C416.7,214.5,416.7,214.4,416.6,214.4z"/>
						<path class="st2" d="M341.6,260c0.3,0.6,3,0.8,3.7,1.2c1.9,1.1,2.6,3,4.1,4.4c2,1.7,3.8,1,5.6,2c2.6,1.5,6.4,6.8,8.9,9.5
							c3.4,3.9,6.1,9.3,8.3,13.9c2.4,5,4.5,14.7,8.6,18.1c-1.5-5.7-4.5-10.7-6.4-16.1c-1.5-4.1-2-9.4-4-13.1
							c-1.5-2.7-4.2-4.1-6.3-6.3c-1.5-1.6-2.4-3.6-3.9-5.2c-3.2-3.4-7.3-6-9.8-9.5c-2.2-3-2.3-8.3-5.7-10.3c-5.9,4.3-2.6,5-2.2,7.2
							C342.8,256.9,341.1,259.1,341.6,260z"/>
						<path class="st2" d="M339.4,272.3c4.9,4.5,10.5,8.3,14.8,13.6c1.8,2.2,2,3.7,2.9,6.2c1,3,2.7,5.4,4.5,8.3
							c3.4,5.6,6.4,11.1,9,17c1.6,3.6,2.9,7.6,4.4,11.1c1.9,4.2,5.1,7.5,7.3,11.6c-3.8-6.5-7.8-14.8-9-22.3
							c-0.9-5.7-4.1-11.1-6.6-16.8c-2.5-5.9-4.1-12.8-8.3-17.3c-4.6-5-9-11.3-14.5-15.5c-2.7-2.1-5.5-4-7.9-6.5
							c-2.6-2.8-0.9-4.2-2.5-7c-1,0.4-1.8,1.3-2.3,3.1C330.2,262.1,336.5,269.7,339.4,272.3z"/>
						<path class="st2" d="M447.1,250.2c-0.6-1.8,1.5-6.5,1.5-8.8c-1.7,0.2-3.2,1.5-4.9,2c0.1-3-2.8-2.6-3.5-5.2
							c-0.4-0.1-0.7,0-0.8-0.4c-0.1,1.5,0.7,4.1,0,5.6c-0.8,1.8-2.7,1.2-3.1,3.3c0.8,0,1.7,0.7,2.7,0.5c0.6,4.2,1.6,10.3-0.7,14
							c-2.7,4.3-7.8,4.2-11.8,6.1c2-2.9,4-8.1,4.5-11.7c0.4-2.5,1.4-6.7,0.9-9.3c-1.7,2.1-4.1,4.8-7,4c-1.4,3.3-1.3,7.2-2,10.7
							c-1.1,4.8-4.4,7.1-6.4,11.2c-2.2,4.6-0.8,10.2-3.3,14.9c-1.7,3.2-4.4,5.8-5.4,9.5c4.1-1.8,10.5-9.7,13.9-12.7
							c1.9,3.7,3.2,3.5,5.2,2c2.9-2.2,5.4-6.6,8.3-8.8c2.9-2.2,7.5-8.1,9.9-5.7c3.6-4,2.8-8.3,5.5-12.7c2-3.2,2.1-7.8,4.8-10.5
							C452.9,248.6,448.5,254.6,447.1,250.2z"/>
						<path class="st2" d="M439.5,237.9c0-0.2,0-0.4,0.1-0.5C439.5,237.6,439.5,237.8,439.5,237.9z"/>
						<path class="st2" d="M303.6,266.7c2.3,3.4,3.4,2.4,6.4,4.4c2.1,1.5,4.2,4.4,6.2,6.2c-1-2.5-2.6-4.5-3.7-7
							c-1.2-2.8-0.4-4.1-1.8-6.9c-2.3-4.6-8.8-10.5-11.6-13.9c-3.2,6.3-2.9,9.4-1.5,11.1C299.5,263.1,301.8,263.9,303.6,266.7z"/>
						<path class="st2" d="M356.6,342.1c-0.8-1.7-0.2-4-0.7-5.8s-1.8-3.9-2.5-5.7c-1.4-3.3-1.6-6.9-2.8-10.1
							c-1.2-3.1-2.8-2.5-4.5-4.3c-2.3-2.3-4-6.2-6-8.9c-2.2-3.1-4.6-4.1-7.2-6.5c-3.9-3.6-5.9-8.3-10-11.7c1.6,2.5,1.6,5.9,3.2,8.5
							c0.5,0.9,1.8,1.1,2.4,2.6c0.7,1.5-0.2,2.4,0.6,4c2.5,5.2,8.8,7.2,10.5,13.1c1.1,3.7,1.4,6.1,3.1,9.6c1.7,3.6,0.3,7.7,1.8,11.1
							c1.6,3.5,4.2,5,4.3,9.5c0,3.7-0.5,6.7,0.1,10.4c0.3,2.2,1,3.2,0.2,5.3c-0.7,1.7-1.9,1.3-2.3,3.7c-0.2,1.2,0.4,1.8,0.5,2.8
							c0.2,2.8-0.4,3.8-1.2,6.6c-0.7,2.3-0.4,5.3-1.5,7.2c0.5,0.1,1.3,0,1.8-0.1c0.2-5.6,3.8-11.2,6.5-15.9
							c2.1-3.5,6.5-6.7,7.8-10.6c-4.1-3,0.3-3.8,1.1-5.7c0.9-2.2,0.5-2.9-1.1-4.9C359.5,344.9,357.4,343.6,356.6,342.1z"/>
						<path class="st2" d="M312.1,295.8c-2.7-4.4-6.1-9.9-10.2-13.6c-2-1.7-4.5-3.4-6-5.6c-1.8-2.6-3-5.7-4.8-8.3
							c-1.5-2.3-8.6-9.4-8-11.2c-2.1,2.5-8.6,5.8-6.6,11.1c0.9-1.5,1.8-3.1,3.3-3.9c1.5,2.2,3.4,6.2,6.3,6c0.6,2.8-1.1,5.2-3.1,7
							c-0.3-2.9-2.2-0.3-3.3-1.9c-0.8-1.2-0.9-5-1-6.3c-1.4,4.1-4.7,6.2-6.7,10.2c1.2-1.3,2.6-2.3,4.3-2.3c0.1,2.3,2,3.5,3.6,4.6
							c1.2-0.7,2.6-1.1,3.9-1c-0.2,2.5-2.2,4.8-3.5,7c0-0.2,0-0.4-0.1-0.6c-2.2,1.8-2.5,5.6-1.7,8c0.5,1.5,3.7,8.4,4.4,9
							c2.1-2.7,3.7-5.7,6-8.3c-1.2,2.8-4.4,10.3-2,13.1c1.8-4.8,2.9-11.2,8.3-11.1c-0.9-3,4.5-4.2,6-6.2c-1.4,3.3-4.6,4.5-3.9,7.9
							c0.6,2.7,3.3,5.3,4.8,7.6c0-3.4,2.4-7.6,5.6-6.6c1.9,0.6,3.1,3.4,4.2,4.8c1.7,2.1,3.9,3.6,5.7,5.5c3,3.2,4.7,7.6,7,11.2
							c2.1,3.3,4.5,6.3,6.7,9.5c1.7,2.5,5.2,6.8,5.7,9.4c-0.7-9.6-6.6-18.6-11.9-26.1C320.4,308.4,316.1,302.4,312.1,295.8z"/>
						<path class="st2" d="M283,257.1c0.1-0.1,0.2-0.2,0.3-0.3C283.1,256.9,283,257,283,257.1z"/>
						<path class="st2" d="M405.8,352.5c-1.6,1.2-3,1.2-4.4,3c-2.5,3.2-4.7,9.7-6,13.6c-1.6-1.8-2.5-5.9-5.5-8.3
							c1,5.6,1.4,8.7-0.7,13.9c-1.8,4.4-2.5,9.4-4,13.7c-3,8.5-8.4,11-14.8,16c3.9,2,11.1-5.7,13.5-8c2.2-2.1,5-4,6.8-6.5
							c2.2-2.9,2.4-5.9,4.1-9.1c1.5-2.9,3.5-5.6,4.8-8.6c1.6-3.6,1.6-7.7,3.3-11.3c2.5-5.4,7.2-10.8,7.6-17.1
							C410,347.2,408.6,350.3,405.8,352.5z"/>
						<path class="st2" d="M502.2,327.8c-1.4-2.4-1.4-5.6-2.8-7.9c-1-1.8-2.9-2.3-3.8-4.3c1.1-1,1.5-2.5,2.4-3.5
							c1.9-1.9,2.7-1.2,4.6-2.7c1.4-1.1,1.9-1.3,2-3.1c0.1-2.2-1.7-1.4-1.9-2.8c-0.4-3,2-4.4,2.3-7.4c0.5-3.9-2.5-6.4-2.4-10
							c-4.3,0.7-8.5,1.3-12.9,2.3c2.4-2.7,2.5-5.8,4.9-8.5c1.5-1.6,2.9-2.4,3.3-4.7c0.3-1.8-0.8-3.8-0.4-5.2c0,1.4-5.7,9.7-9.1,10.4
							c-0.3,4.1-3.5,7.7-3.9,11.8c0.3-0.3,1.1-0.6,1.5-0.8c1.5,2.4,1.3,4.7,1.3,7.5c3.6-3.5,7.3-6.1,12-8c1.4,1.5,2.5,6.2,1.9,8.3
							c-0.6,2-4.7,7.8-6.6,8.4c-1.2,4.5-5.9,9-3.8,14.3c0.4-0.4,1.8-0.8,2.3-1.5c1.8,3.1,1.7,6.4,2.7,9.8c5.9-1.7,5.9,15.2,6.7,19.4
							c1-0.9,1.8-1.8,2.2-3.1c0.6,1.3,1,3.2,1.1,4.9c-1.7,7.7-2.2,16.7-4.7,24.1c1.4-2.6,4.5-4.6,5.6-7.4c0.7-1.9,1-4.8,1.5-6.8
							c1.3-5.3,1.3-12.3,0.6-17.8C508,338.4,504.8,332.3,502.2,327.8z M505.8,351.9c0,0.3,0,0.6,0,0.8
							C505.7,352.5,505.8,352.2,505.8,351.9z"/>
						<path class="st2" d="M494.3,308h0.1c0.2-0.6,0.3-1.2,0.3-1.8C494.6,306.7,494.5,307.3,494.3,308z"/>
						<path class="st2" d="M523.7,256.4c1.6,2.1,3.4,4.9,3.9,7.5c1.2,6.6,0.4,13.7,2.6,20.2c0.4,1.3,1.6,2.1,2,3.4
							c0.8,2.6,0.3,5.4,0.4,8.1c0.2,5.7,1.9,12.7,6.7,16.4l3,2c0.4,0.1,0.6,0.7,0.8,0.1c-6.2-5.7-8.2-18.3-7.7-26.1
							c0.2-3.1,1.7-6.1,1.9-8.9c0.2-2.2-0.1-5.8-0.1-8.3c-0.1-4.6,0.7-13-2.5-16.5c-3.2,2.2-3.2-1.1-3.9-3.3
							c-1.1-3.5-0.9-2.1-3.2-4.4c-2.6-2.4-5.4-4.4-4.7-8.4c0.8-4.8,4.7-7.5,7.9-10.7c1.9-1.9,3.2-6.2,6.3-6.4
							c0.5-2.4,1.5-3.6,1.7-6.1c0.2-2.1-1.4-6.4-0.2-8.4c1.3-2.1,3.1-0.9,4.4-2.8c0.5-0.7,0.8-4.2,0.9-5.2c0.6-5-1.9-15,0.4-20.8
							h-0.4c-2.7,2.7-1.2,10.1-3,13.8c-2,4.2-6.6,8.2-6.6,13.1c0,2.4,1,4.1,0.4,6.5s-2.3,5-3.8,7c-3.3,4.5-7.4,7.9-10.1,12.8
							c-2.3,4.3-5.2,6.9-8.1,10.5c3.2,2.6,2.6,8.1,5.3,10.8C520,254.4,521.8,253.8,523.7,256.4z"/>
						<path class="st2" d="M546.2,425.4c-2.7-4-1.6-10.4,0.1-14.6c1.2,0.9,2.3,2.2,2.3,3.8c0-10.2-5.6-18.6-6.8-28.4
							c-2.1,2.3-2.7-0.2-4.5-0.4c-1.8-0.2-4.1,1.4-5-1.1c-4.5,1.1-2.1,1.6-5.1-1.2c-1.6-1.6-3.8-2.5-3.2-5.1c-1.6,5.9-1.2,5.9-0.8,6
							c-0.2,2.5,1.4,10.7,2.8,12.2c1.6,1.8,3.8,1,5.8,2.4s3.8,8.1,6.4,4.5c0.8,6.1,1.9,12.2,0.3,18.2c-0.6,2.2-0.8,5.7-3.4,5.2
							c-3.6-0.7-3.2-6.6-4.2-9.1c-3.4,1-6.5-1.8-9.6,0.4c-0.6-1.6-0.8-3.3-1.5-4.8c-2.9,1.6-0.1,6.1,0.4,8.6c0.4,2,0.5,9.1,2.8,10.2
							c2.1,1,1.9-0.9,3.6-1.6c2-0.9,0.7-1.2,2.8-1c1.2,0.1,3.9,2.9,5.2,3.3c4.7,1.6,5.2-0.9,6.8,5.5c0.2-0.4,0.2-0.6,0.3-1.1
							c0.7,1.1,1.4,2.8,2.3,3.6c0.1-0.4-0.1-0.7,0-1.1c1.9,3.3,2.8,8.4,5.9,10.6c1.7-8.5-0.7-17.7-1.2-26.2
							C548.1,424.4,546.7,424.9,546.2,425.4z"/>
						<path class="st2" d="M273.7,363.6c0.7,1.7,1.5,3.1,2.4,4C275.7,365.9,274.8,364.7,273.7,363.6z"/>
						<path class="st2" d="M277.5,322.3c-0.4,2-2.5,3.8-4.7,2.4c-1-0.6-0.4-4.7-1.3-5.9c-1.1-1.4-3.5,0.4-4.5-0.6
							c-4.6-3.8-5.4-11.7-7.6-16.6c-0.5,0.1-1,0.3-1.5,0.4c-0.2-2.4,0.1-5-0.5-7.3c-1.2,2.8-1,9.1-3,9.1c2.8,3.4,0.5,10,2.2,14.4
							c2.6,6.8,5.6,10.8,5.9,18.6c0.2,7,0.9,8.7,4.2,14.2c1.8,3,2.3,6.6,4.5,9.6c0.9,1.1,1.8,2,2.7,2.9c-2.6-6-3.8-15.5-2.6-20.3
							C272.8,336.2,276.3,329.5,277.5,322.3z"/>
						<path class="st2" d="M245.1,383.3c-1.5-3.7-0.8-7.6-2.9-11c-2.3-3.9-3.2-3.3-3.6-8.3c-0.6-7.5,0.9-14.2,2.3-21.4
							c-4.7,5-9.1,7.8-14.3,1c-2.3-3.1-2-7.8-1.7-11.6c0.5-4.8,3.6-6.5,4.2-10.3c-3.7,2.7-12.8,15-12.8,15s6,11.1,7.6,15.4
							c3,7.9,5.6,15.1,9.5,22.6c1.6,3.1,2.2,7.3,4.2,10.1c1.5,2.2,3.7,2.9,5.3,4.9c3.6,4.2,5.8,10.9,7.6,16
							c0.8-8.2-1.8-17.5-2.4-25.7C247.7,381,245.8,382.3,245.1,383.3z"/>
						<path class="st2" d="M731.1,220.4c-2.1-0.7-3.5-5.1-4.5-7.1c-0.6,0.4-1.6,1.9-1.6,2.7c0.3,7.4-4.3,12.4-3.2,19.7
							c1.1-2.9,2.4-4.8,4.4-7.5C727.8,226,729.1,222,731.1,220.4z"/>
						<path class="st2" d="M762.1,227c-3.9-3.6-6.2-7.3-9.5-11c-1.9,1.6-2.6,3-5.3,2.1c-1.3-0.5-4.1-2.5-4.7-3.6
							c-0.3,3.3,3.3,6.9,6.5,6.7c0.1,3.6-1.6,7.1,1.2,10.1c2.4,2.5,5.4,1.5,7.3,5.6c1.9,4.1-0.3,7.7,0.4,12.1
							c0.6,4.1,3.4,7.1,3.3,11.5c-0.3-6.2,1.4-11.3,2.7-16.9c1.7-7.1,4.3-5.8,8.1-8.6C769.7,232,765.1,229.7,762.1,227z"/>
						<path class="st2" d="M795.8,250.7c0.9,2.8,2.4,5.1,2.4,8.1c2.6-1.8,2.3-4.3,6-4.4c2.4,0,3.8,1.5,5.1,3.2
							c2.4,3.1,4.2,11.1,2.7,14.9c1.7-0.2,3.1-1.7,4.2-3.2c2.1,4.4,4.1-2.2,7.3-1.7c2.2,0.3,6.8,7.3,8.8,8.9
							c5.3,4.1,10.1,7.6,14.4,13.1c-0.4-4.3-3.3-8.3-4.6-12.3c-1-3-1.1-5.6-2.7-8.5c-1.2,1.5-6.3-4.8-8-6.2
							c-6.2-4.8-12.6-9.2-18.9-13.8c-5.2-3.9-11-5.6-15.5-10.4c-0.9,2.3-1.2,5.7-3.5,7.1c-1.5-1.5-2.2-3.9-4.1-4.8
							c1.2,4.1,3.5,6.3,3.4,10.9C793.3,251.3,795.2,251.1,795.8,250.7z"/>
						<path class="st2" d="M762,293.2c1.1-4.3,6.7-6.6,6.4-11.3c-0.3-3.8-4.7-6.1-5.4-9.7c-3,2.2-9.9,2.3-9.4-2.9
							c-5-0.9-5.3,2-7.2-2.8c-1.2-3.2,0.1-7-1.5-10.2c-1.8-3.4-3.6-2.6-6.1-6c-0.8-1.1-1.7-3-2.1-4.4c-0.4-1.7-1.8-2.6-1.1-1.9
							c-3.9,4.7,3.5,9.7,3.3,14.8c-0.1,3.5-1.9,11.7-3.3,15.1c-1.2,3-4,3.4-5.5,6c-1.5,2.7,0.5,3.9,0.3,5.8s-2.6,4-2.5,6.6
							c0.1,1.3,3.8,6.8,3.9,7.1c1.3,5.4,10,5.8,13.9,5.7c3.1-0.1,6.7-0.8,9.3,0.3c2.4,1,4,3.2,6.4,4.2c1.7,0.7,3.5,0.8,5.1,1.5
							c1.5,0.6,1.9,1.9,3.8,2.1c0.1-0.4,1.1,1,1,0.6c0.1,0.1,1.1,1.4,0.7,0.7C768.6,307,759.7,302.5,762,293.2z"/>
						<path class="st2" d="M831.1,371.4c-0.4-1.3-0.3-2.7-0.7-4.1c-1.2-4.8-6.4-10.7-5.4-15.5c0.9,0.3,2.7-0.1,3.8,0.4
							c-2-5.3-6.3-7.8-9.7-11.9c6-4.5-8.2-18.6-10.6-23.5c-2.7-5.4-9.7-8.1-11-14.6c-1.2-6,3.7-8,3.4-14.1c0.6-0.2,1.4-0.3,2.1-0.3
							c-0.6-0.6-0.8-1.5-1.4-2.1c7.5-2.5,15,6.5,22.9,5.4c-1.2-3.3,1.2-6.8-2.5-9.2c-2.9-1.9-7.1,0.9-9.6,0
							c-1.8-0.6-4.6-4.1-6.2-5.4c-3.1-2.6-6.2-5.3-9.7-7.2c-1,4.9-19.8-6.4-22.1-11c-0.7,6,5.3,10.1,8,14.8c2.2,4,5.5,9,5.6,13.6
							c-0.9,0.1-1.7,0.6-2.6,0.7c0.2,1.1-0.4,2.6-0.2,3.7c-0.6,0-1.4,0.2-2,0.2c-3.2,6.1,7.5,17.6,10.1,23.4
							c-2.5,0.3-4.6-1.2-6.3-3.1c-0.4,0.4,0.2,1.1,0.3,1.4c-0.6,0-1.9-0.1-2.5,0.2c5.2,5.4,6.6,11,10.1,17.2
							c0.9,1.6,2.7,2.8,3.6,4.4c0.6,1,0.6,2.1,0.9,3.2c0.3,1.2,0.9,1.9,1.8,2.7c1.7,1.6,2.8,3.7,3.9,5.7c1.3,2.5,2.7,4.8,4.3,7.1
							c3.9,5.3,9.6,8.8,14.3,13.3c1.5,1.4,2.8,3,4.3,4.4c2.2,2,4.4,4.2,5.2,7.1c0-1.3,0-2.9-0.5-4
							C832.3,373.4,831.5,372.6,831.1,371.4z"/>
						<path class="st2" d="M110.3,379.6c2.8,0,5.7-2.8,4.3-5.7c-4.3-4.3-5.7-9.9-2.8-14.2c2.3-4.7,7.6-7.6,11.5-11.4
							c0-2.1,0.6-3.3,1.7-5.2c2.1-3.5-0.2-2.9-1.5-6.2c-0.3-0.7-0.9-3.4-0.8-4c0.7-2.8,3.5-3.9,3.8-7.1c0.2-1.4,0.2-3.7,0-6.9
							c-0.1,0.2-0.3,0.4-0.4,0.5c0.3-1,0.1-2.1-1-3.3c-1.6-1.8-3.1-3.6-4.8-5.2c-1.1-1.1-2.1-2.2-2.8-3.7c-0.5-1-0.6-3.4-1.2-3
							c-1.3,2-1.1,2.8-0.5,5c0.3,1,0.5,2,0.9,3c0.2,0.6,1.4,2.2,1.3,2.7c-0.2,2.2-5.3,2.8-6,5.5c-1.5,5.3-4.2,10.6-8,14.8
							c-1.6,1.8-3,3.7-5.1,4.6c-1.8,0.8-4.4,1.4-5.4,3.2c2.5-0.1,5.1-2.5,7.5-3c1.6-0.3,2.6,1.1,3.9,1.3c-0.2,0.2-0.3,0.3-0.5,0.5
							c-3.1,2.7-6.7,9.2-10.7,10.4c-2.1,0.6-3.4-0.9-5.4,0.7c-2.1,1.6-3.1,4.4-5.4,6c-2,1.4-4.2,2.4-6.1,3.9
							c-2.1,1.6-3.5,3.8-5.4,5.7c-3.3,3.4-6.1,7.3-9.4,10.7c3.8-3.5,8.3-6.4,11.9-10.3c2.4-2.5,4.5-3.9,7.4-5.7
							c1.4-0.8,5.2-6,6.4-5.9c4.4,0.2-0.6,5.9-1.6,6.8c-1.7,1.4-4,1.9-5.7,3.2c-3.1,2.5-4.9,7.2-6.8,10.6c2.7-2.5,5-5.7,8.2-7.7
							c1.7-1,2.8-1.3,4.1-3.1c3.1,0.4,2,5.4,1.9,7.8c-0.2,5,1.6,10.7,2.9,15.6c1.6,6-1.9,7.8-5.6,12.5c-1.8,2.3-3.3,5.7-3,8.7
							c3.4-0.5,5.1-5.9,8.1-7.7c1.7-1,5.8-2.7,7.7-2.1c4.2,1.3,7.4,10.5,12.7,7.6c0.1-1.2,0-2.5-0.2-3.7c2.9-0.6,5.9,2.9,7.5,5
							c2.2,2.8,2.5,3.3,5.8,4.4c2.1,0.7,2.6,1.2,4.1,0.9c-4.7-5.5-9.8-11-13.1-16.6C111.8,393.7,114.6,388.1,110.3,379.6z"/>
						<path class="st2" d="M200.3,367.6c0-0.1,0-0.2,0-0.2l-0.3-0.9C200.1,367,200.3,367.7,200.3,367.6z"/>
						<path class="st2" d="M213.5,311.8c1.3-1.6,5.9-0.9,7.8-1.5c-1.1-2.7-3.2-4.8-4.1-7.7c-0.8-2.5-4-6.1-2.8-8.8
							c1.1,0.4,2.3,0.6,3.3,1c-0.3-1.3-1.4-2-1.9-3c-0.5-1.1-0.7-2.2-1.3-3.3c-1.9-3.7-2.9-6.6-3.2-10.9c0.7,0.4,1.4,1.1,2,1.7
							c0.9-2,2-3,0.3-4.6c-0.9-0.9-2.6-1.5-3.5-2.4c-1.1-1.1-2.5-2.7-3.2-4c-0.7-1.2-0.5-4.2-2.2-4c0.2,2.5,1.6,2.6,0.1,4.7
							c-0.7,0.9-1.1,0.6-1.2,1.7c0,0.7,0.7,2.3,0.8,3.1c0.5,2.3,0.7,4.5,1.1,6.8c0.3,1.8,1.3,3.9,0.3,5.5c-0.7-1.9-1.9-3.8-4-4.4
							c1.8,4.9-8.6-0.9-9.8-2.3c1.4,2.5,4.6,5.2,6.6,7.3c1.3,1.3,2.6,2.8,3.8,4.1c-3.1,4.7,0.3,10.1,0.6,15c0.2,3.1,0,7.1-0.8,10
							c-0.5,1.9-1.3,3.5-2.1,5.3c-0.9,2.1,0.1,2.3,0.1,4.3c0,2.6-1.6,3.6-4,3.6c0,1.5-0.9,2.3-1.7,3.5c-1.7,2.8-1,4.1,0.6,6.7
							c0.9,1.5,1.9,3.3,2.5,4.8c1,2.1,0,4.2,0.4,6.4c0.3,1.8,0.9,0.7,1.7,2.1c1,1.8-1.5,4.3-1.3,6.2c0.3,2.2,1.6,3.7,1.7,6.1
							c0,0.8,0,1.6,0,2.4l0.4,1.1c-0.4-1.1,1.2-2.7,1.5-4c1-4.6,1.5-9.7,2.3-14.5c0.7-4.4-1.4-7.5-1.6-11.8c-0.2-2.8,3.2-9.4,6-4.9
							c-0.1-1.9,1.1-3.5,1.9-5.2c1-2,1.5-4.4,2.6-6.3c1.2-2.1,2.8-2.4,2.2-4.7C215.1,315.4,212.3,313.4,213.5,311.8z"/>
						<path class="st2" d="M199.9,366.2l0.1,0.3C199.9,366.2,199.8,365.9,199.9,366.2z"/>
						<path class="st2" d="M175.9,284.1c-1.6-0.3-1.4-0.1-3.2-0.5c-0.9-0.2-2.7,0.9-3.2,0.4c0.4,1.8,0.4,1.2-0.5,2.5
							c-0.7,1.2-1.4,1.8-1.8,3.2c-0.7,2.3-0.9,7.7,0,9.6c-0.1-1.8,0.6-5.5,2.7-6.1c0.8-0.2,1.6,0.4,2.5,0.7c1.3,0.4,2.5,0.5,3.6,1
							C175,291.4,171.3,287.1,175.9,284.1z"/>
						<path class="st2" d="M893.9,298.5c1.1,1,2.2,1.4,3.5,1.7C897.1,298.9,894.8,298.8,893.9,298.5z"/>
						<path class="st2" d="M893.9,298.5c-0.1-0.1-0.2-0.2-0.3-0.3C893.5,298.3,893.7,298.4,893.9,298.5z"/>
						<path class="st2" d="M1091.1,379.5c3-2.1,6.3-4.4,8.5-7.1c-3.7-5.1-5.6-13.2-4.9-19.4c4,1.2,10.3,1.7,14.4,1.9
							c-0.3-2.6,1-5.2,3-6.9c-4.7-7.7-14-11-20.6-16.4c-5.3-4.3-8-16.7-14.8-18.2c-1.2,0.9-1.4,1.9-2.3,5.3
							c-0.3-1.1-0.3,1.5,0.4,2.9c3.6,4.5,3.1,5.6,3.8,11.2c0.9,7.1,1.8,9.9,5,16.1c2,3.8,4.4,9.3,5.5,13.7
							C1090.3,367.7,1088,375.7,1091.1,379.5z"/>
						<path class="st2" d="M959.4,377.4l-0.7-0.7c-3.4,2.7-3.4,7.1-6.9,10.6c1.1,3.9,3.2,13.7,6,16.3c0.7-2.4,0.6-5.6,1.5-7.8
							c0.5-1.4,3.4-4.5,3.5-5.6C963.5,385.7,956.3,380.4,959.4,377.4z"/>
						<path class="st2" d="M976.8,370.4c0,0.3,0.2,0.7,0.5,1.1C977.6,370.9,977.5,370.5,976.8,370.4z"/>
						<path class="st2" d="M971.2,382.2c0.3,3.1,3.7,4.4,4.4,6.9c1.1,3.8-0.5,9.5-2.2,13c5.5-5.8,5.9-14.9,11.1-21.4
							c-1.3-3-5.8-7-7.2-9.3C976.3,373.7,970.8,378.4,971.2,382.2z"/>
						<path class="st2" d="M1006.8,352.3l-14.6,3.5c-7.3,4.2,1.3,9.6,2.8,12.9c1.8,4.1,1.5,14-0.1,18.2c3.3-3.1,5.6-6.2,6.4-10.6
							c0.9-5.3-1.6-5.8-3-9.2C994.7,358.1,1001.5,357.9,1006.8,352.3z"/>
						<path class="st2" d="M1020.7,345.3l0.2,0.2c-5.6,0.6,0.6,10,0.5,14c-0.1,3.7-1.7,10.6-3.9,13.5c2.3-1.7,6.7-4,8.3-6.7
							c1.5-2.6,0.2-7.2,1.9-9.9c2.6-4.3,5.4-2.3,8.4-4.9c3-2.7,2.1-4,3.5-8.2c-2.8-0.2-8.3-1.9-10.1-1.8
							C1026.3,341.7,1023.8,343.8,1020.7,345.3z"/>
						<path class="st2" d="M891.7,410.1c0,0,10.1-2,12.2-2.6c10.1-2.8,16.3-0.6,26.8-0.7c3.6,8.9,0,18.2-5.4,24.9
							c7.3-4.3,13.2-10.6,11.8-19.8c-1.1-7.6-1.1-12.7-9-13.7c1.9-6.5,11.3-7.6,12.5-15.2l-38.5,19.4
							C900.7,402.2,891.7,410.1,891.7,410.1z"/>
						<path class="st2" d="M742.7,454.7h-1.4c-3,4.2-7.4,7.4-13.2,8.5c2.5,1.7,6.4,1.3,9.6,1.3c0.2,4.9-1.2,8.9-1.3,13.6
							c3.6-3.6,7.2-6.7,10.9-10.2c6.1-5.9,3.7-5.2,3-13.1C747.9,455.6,744.9,455.7,742.7,454.7z"/>
						<path class="st2" d="M801,437.8c-3.5,1.3-6.6,4.1-9.5,5.7c2.1,1.8,4.5,2.6,7.1,2.5c1.3,3.2,2.3,10,4.7,12.2
							c3.5,3.2,9.4-1.1,7.9,8c2.6-9.7,2.7-9.1-1.8-17C806.8,444.5,807.6,438.9,801,437.8z"/>
						<path class="st2" d="M868.8,446.7c-3-4.7-0.9-2.7-2-7.6c-1.4-6.2-3.9-10.2-11.4-9.4c-0.6-6.2-6.8-5-12.6-6.5
							c-2.4,0.6-4.4,2.1-5,4.3c10,1.7,22.5,10.1,22,21.3c8.3,0.5,8.2,1.5,13.7,6.6C874.4,450.6,870.9,450,868.8,446.7z"/>
						<path class="st2" d="M1025.2,400c-0.7-6.4-11.1-13.8-10.3-14.2c-7.7,3.7,0.2,15.8-1.5,22.3c-1.3,5.1-5,10.4-6.4,15.8
							c-1.6,6.2-3.1,12.2-5.4,18.1c3.7-4.4,8.9-5.6,13.3-8.8c3.1-2.2,5.7-5.5,8.7-7.7c-2.3,0.1-4.9-0.4-7.2-0.3
							C1017,416.2,1026.3,410.2,1025.2,400z"/>
						<path class="st2" d="M1122.4,407.1c-3.1-1.2-7.4,0.4-10.1-1.2c-0.1,0-5.4-7-5.9-7.7c-3.7-5.3-3.9-11.1-2.4-17
							c-3.8,2.4-7.1,5-11.4,6.1c-0.1,0.9-0.2,1.8-0.3,2.7c-1.2,1.6-0.3-0.7-0.6-0.6c-1.6,3.4-5.3,10.1-5.1,13.5
							c0.3,6.4,6.7,8.3,10.4,12.9c3.2,4,5,8.5,5.7,13.9c0.5,4.4-1.4,9.4,0.2,13.1c5.7-3.8,9.4-10.9,14.3-16
							c-2.5,0.9-5.5,2.8-8.5,2.7c-0.5-3.8,2.3-7.1,1.4-10.9c-0.6-2.5-4.8-3.4-4.5-6.5C1106.3,406.8,1118,406.7,1122.4,407.1z"/>
						<path class="st2" d="M940.4,300.3c0.1,0.1,0.1,0.1,0.2,0.2C940.7,300.3,940.6,300.3,940.4,300.3z"/>
						<path class="st2" d="M939.5,308.9c-0.1,0.6,0.3,1.9,0.5,2.5c0.6,1.7,1.9,3.2,2.6,4.9c0.8,2.1,0.5,4.9,1.6,6.7
							c0.4-4.8,2.8-10.7,1.7-15.5c-0.5-2.1-1.5-1.7-2.9-3.2c-1-1.1-1.4-2.6-2.4-3.7c-0.1,0.1-0.3,0.4-0.7,0.7
							c-0.2,1.9,1.4,3.5,1,5.3C940.7,307.4,939.6,307.8,939.5,308.9z"/>
						<path class="st2" d="M990.4,352.7c-0.6-2,0.2-3.5-0.7-5.6c-1.4-3.1-4.8-3.3-8-3.1c-1.4,0.1-6.7,1.7-6.6-1.7
							c0.1-1.6,3-2.2,3.4-3.8c0.1-0.6-0.7-1.9-0.8-2.5c-0.3-2.2,2.1-5.3,4-6.3c2.1-1.1,7.4,0.1,9.3,1.4c-0.9-1.6-2-3-3.2-4.3
							c-1-1-1.4-2.3-2.1-3.1c-0.9-1.1-2.4-1.6-3.8-1.9c-2.7-0.7-2.7-0.8-4.5-2.9c-1.4-1.7-3.3-2.4-3.6-1.9c1.1,1,2,2.2,2.4,3.6
							c-3,1.8-7.3,2.9-6.4,7.1c0.5,2.5,1.8,5.1,2.2,7.5c0.7,4.3-3.3,3.8-6.5,4.1c-4.6,0.4-10.4,4.1-14.8,2.6
							c-1.7-0.6-2.7-1.4-4.6-1.4c-1.4-0.1-1.9-0.1-2.8-0.4c-3-1.1-5.1-4-7.4-6c0.6,1.9,1.3,5.1-0.7,6.4c-0.7-0.8-1.7-1.3-2.8-1.6
							c-2.5-2.6-4.9-5.4-6.9-8.3c-2.4-3.4-4.4-7.1-6.5-10.7c0.1-0.3,0.3-0.6,0.5-1.1c0.8-2.4,1.3-5.1,1.3-7.6c0-2.9,0.1-5.3,0.7-8
							c0.5-2.1,1-3.7,0.5-5.8c0.4,0.1,1,0.1,1.4,0.2c-1-4.4-7.5-4.8-8.8-8.6c-0.7,2.1,3.5,4.9,4.1,7.2c0.7,2.6,0.1,4.6-2.4,5.7
							c1.3,4.3,2.1,6.3-3.4,5.7c-1.1-0.1-2.1-0.3-3.1-0.6c-5.5-5.8-9.2-6.2-12.1-7c0.1,0.4,0,0.8-0.3,1.4c-0.5,0,1.9,1.9,1.3,2
							l1.7,1.4c3.4,5.7-1,6.3-5.5,7.8c2.5,7.2-2.7,10.7-2.8,17.9c7.2,1.8,11.9,13.3,14.9,19.3c4.8,9.8,0.5,21.7,4,31.6
							c0.9-6.4,9.2-10.7,8.3-17.2c6.8,0,15.5,6.5,19.3,11.6c-2-14.6,22.1-2,24.4-7.9c1.2,0.5,2.5,0.9,3.3,0.8
							c2.6-0.5,5.2-4.2,7.2-5.8c3.2-2.6,7.9-3.1,11.8-4.4c1.5-0.5,3-1.2,4.3-2C992,354.7,991.2,355.2,990.4,352.7z"/>
						<path class="st2" d="M418.7,338.2h-1.5c9.1-0.2,10.4,21.9,11.7,30.3c3.3-11.9,2.4-28.9,12.2-37.4c4.7,0.8,8.8,2.9,12.6,6.6
							c-1.1-10-11.3-17.4-11.8-27.2C434.9,313.3,421.6,330.3,418.7,338.2z"/>
						<path class="st2" d="M593,382.3c-7.5-3-8.7-12.3-11.7-17.1c-5.3-8.5-9.2-18.5-14.4-26.9c-1.8,9.1,4.5,15.7,4.1,17.5
							c1.2,5.8-2.1,17.4-1.2,20.8c1.7,6.4,6.3,7.3,10,12.8c8,11.8,9.4,25.8,11.4,39.2c3.2-9.4-1.3-17.5,0.6-27.3
							c4.6-0.2,6.9-0.1,10,5.2c5.7-9.5,18.6,1.1,22.1,8.9c-5.3-11.3-9-21.5-13.6-33C604.1,381.9,598.6,384.6,593,382.3z"/>
						<path class="st2" d="M74.4,325c-2,1.6-4.2,0.5-5.9,3.8c-10.5-12.4-20.4,10.3-28.1,0.7c-1.7,2.1-3.7,3.6-4.5,7
							c-0.6,0.1-0.9-0.2-1-0.7c-5.7,9.7,3.6,9.6-3,17.9c2.3-1,0.2-0.3,4.7-4.2c1.8-1.5,3.4-2.3,4.7-3.8c2.6-2.9,3.2-2.7,6.1-3.4
							c7.2-1.7,4.9-5.3,8.5-7.9C63.6,328.8,63.1,337.9,74.4,325z"/>
					</g>
					<g>
						<path class="st2" d="M716.4,290.4c1.4,1.5,2.7,3.1,4.2,4.6s3.1,2.8,4.9,4.1c3.5,2.4,7.2,4.3,11.2,5.7c2,0.7,4.1,1.2,6.2,1.5
							c1.1,0.1,2.1,0.3,3.2,0.2c1.1-0.1,2.1-0.2,3.1-0.3c2-0.2,4.1-0.5,5.9-0.1c0.9,0.2,1.5,0.5,2.1,1.3c0.6,0.7,1.2,1.6,2.1,2.4
							c1.8,1.5,3.9,2.1,5.9,2.7s3.8,1.2,5.3,2.5c3,2.5,5,6.2,7.6,9.5c1.3,1.7,2.7,3.2,4.3,4.6c1.6,1.3,3.5,2.5,5.3,3.4
							c3.6,2,7.5,3.5,10.6,6c1.6,1.2,2.8,2.8,3.9,4.5c1.1,1.7,2.2,3.4,3.3,5.2c2.2,3.5,4.4,7,7.4,9.9c5.8,5.9,12.9,10.2,18.4,16.4
							c-5.3-6.3-12.3-10.9-18-16.8c-2.9-2.9-5-6.4-7.1-9.9c-1.1-1.8-2.1-3.5-3.2-5.3c-1.1-1.7-2.4-3.5-4-4.8
							c-3.3-2.7-7.1-4.3-10.7-6.3c-1.8-1-3.5-2-5-3.4c-1.5-1.3-2.8-2.8-4-4.4c-2.4-3.2-4.4-7-7.7-9.8c-3.5-2.9-8.2-2.8-11-5.2
							c-0.6-0.5-1.2-1.4-1.9-2.3c-0.4-0.4-0.8-0.9-1.3-1.2c-0.5-0.3-1.1-0.6-1.7-0.7c-2.3-0.5-4.4-0.2-6.4,0c-1,0.1-2,0.2-3,0.2
							c-0.9,0.1-1.9-0.1-2.9-0.2c-2-0.3-3.9-0.8-5.8-1.4c-3.8-1.3-7.4-3.2-10.6-5.5c-1.6-1.2-3.1-2.5-4.6-3.9
							c-1.4-1.4-2.7-3-4.1-4.5c-1.4-1.6-2.8-3.1-4.5-4.5c-0.4-0.3-0.9-0.7-1.3-1c-0.5-0.3-1-0.6-1.5-0.9c-1-0.5-2.1-0.8-3.2-1
							c-2.2-0.4-4.2-0.4-6-0.9c-0.2-0.1-0.4-0.1-0.6-0.2c-0.3-0.1-0.5-0.2-0.6-0.2c-0.3-0.2-0.3-0.2-0.4-0.4c0-0.1-0.1-0.3-0.2-0.7
							c-0.1-0.4-0.4-1-0.9-1.3s-0.9-0.4-1.3-0.5c-0.2,0-0.3,0-0.4-0.1h-0.1h-0.1h-0.1h-0.3c-0.9,0.1-1.5,0.4-2,0.8
							c-0.5,0.3-1,0.7-1.4,1c-0.8,0.7-1.5,1.4-2.3,2c-0.2,0.1-0.4,0.3-0.5,0.4l-0.2,0.1c-0.1,0-0.1,0-0.1,0.1c0,0-0.2,0.1-0.3,0.1
							h-0.1h-0.1c-0.1,0-0.2,0-0.4-0.1c-0.6-0.2-1.3-0.9-2.7-1.5c-0.2-0.1-0.4-0.1-0.6-0.1c-0.3,0-0.6,0-0.7,0c-0.5,0-0.7,0.1-1,0.2
							c-0.6,0.2-1.2,0.5-1.7,0.8c-1,0.6-1.8,1.3-2.6,2c-1.2,1.1-2.4,2.2-3.6,2.9c-2.4-4.4-5.6-8.3-8-12.4c-0.6-1.1-1.2-2.2-1.8-3.4
							c-0.5-1.2-1-2.4-1.5-3.6s-1-2.5-1.7-3.8c-0.5-0.9-1.1-1.8-1.8-2.6c0.5,0.1,1.1,0.1,1.6,0.1c1.4-0.1,2.6-0.6,3.9-1.2
							c2.4-1.1,4.7-2.6,6.9-4.1s4.3-3.2,6.3-4.8l3.1-2.4c1-0.8,2-1.4,3.2-2.1c2.2-1.4,4.5-2.7,6.8-4.1c1.1-0.7,2.2-1.5,3.3-2.3
							s2.1-1.7,3.1-2.7c0.5-0.4,0.9-1,1.4-1.5s0.9-1.1,1.3-1.6c0.8-1.1,1.6-2.2,2.3-3.3c0.9-1.4,1.8-2.7,2.7-4l0.1,2.3l2-1.1
							c3.1-1.7,6.2-3.3,9.2-5.2c2.6-1.6,5.2-3.5,7.5-5.7c0.1,0.1,0.1,0.2,0.2,0.3c0.3,0.5,0.5,1.1,0.7,1.7c0.4,1.3,0.9,2.9,1.9,4.3
							l1,1.4l1.1-1.3c1.5-1.7,3.5-3.2,5.6-4.6c1.8-1.2,3.7-2.3,5.6-3.3c0.4,0.5,0.9,1.1,1.4,1.6c0.7,0.8,1.5,1.5,2.5,2.1
							c0.2,0.2,0.5,0.3,0.8,0.4c0.2,0.1,0.6,0.2,0.8,0.3c0.6,0.2,1.2,0.3,1.9,0.2c0.3-0.1,0.7-0.1,1-0.3s0.6-0.3,0.8-0.5
							c0.1-0.1,0.2-0.2,0.3-0.3l0.2,0.3l1,1.4c0.7,0.9,1.4,1.8,2.2,2.6c0.4,0.4,0.8,0.8,1.2,1.2s0.8,0.7,1.2,1.1
							c0.8,0.7,1.7,1.4,2.6,2.1c1.8,1.3,3.6,2.6,5.5,3.7c1.8,1.2,3.8,2.3,5.6,3.4c-0.4,0.4-1,0.6-1.8,0.7c-0.7,0.1-1.6,0.2-2.4,0.6
							c-0.2,0.1-0.4,0.2-0.6,0.4c-0.2,0.1-0.3,0.2-0.5,0.4c-0.3,0.3-0.5,0.7-0.7,1c-0.8,1.5-1.1,3-1.5,4.5s-0.6,3.1-1.3,4.5
							c0.9-1.3,1.3-2.9,1.8-4.3c0.5-1.5,0.9-3,1.7-4.2c0.2-0.3,0.4-0.6,0.7-0.8c0.1-0.1,0.3-0.2,0.4-0.3c0.2-0.1,0.3-0.1,0.4-0.2
							c0.6-0.3,1.3-0.3,2.1-0.3s1.8-0.3,2.5-0.9c0.4-0.3,0.7-0.6,0.9-1c0.1-0.1,0.1-0.1,0.1-0.2l0.4,0.4c0.4,0.4,0.8,0.7,1.2,1
							c0.8,0.6,1.7,1.2,2.6,1.7c1.8,1,3.7,1.8,5.5,2.6c0.9,0.4,1.8,0.8,2.7,1.2s1.7,0.9,2.5,1.4l1.1,0.8l1,0.9l0.8,1l0.7,1.1
							l0.6,0.9l0.9-0.4c0.4-0.2,0.8-0.4,1.2-0.7s0.7-0.6,1-1c0.6-0.8,0.9-1.6,1.2-2.4c0.2-0.7,0.4-1.4,0.6-2.1c0,0,0,0,0.1,0.1
							c0.6,0.5,1.1,1,1.7,1.4c1.1,0.9,2.3,1.7,3.5,2.5l3.5,2.3c0.6,0.4,1.1,0.8,1.6,1.2c0.3,0.2,0.5,0.4,0.7,0.6
							c0.1,0.1,0.2,0.2,0.2,0.2s0.1,0.1,0,0c0,0,0,0,0-0.1s-0.1-0.2-0.1-0.3l0.5,1c2.5,2,5.2,3.5,7.9,4.9s5.4,2.6,7.8,4.2l0.9,0.6
							c0.3,0.2,0.6,0.4,0.9,0.7c0.5,0.4,1.1,0.9,1.6,1.4c1.1,1,2,2,3.1,3.1c2,2.2,4,4.5,6.5,6.5l1.6,1.3l0.4-1.9
							c0.1-0.2,0.4-0.7,0.7-1.2c0.1-0.1,0.2-0.3,0.3-0.4c0.3,0.2,0.7,0.5,1,0.7c0.8,0.5,1.6,0.9,2.5,1.2c1.7,0.7,3.4,1.2,5.2,1.6
							c3.3,0.8,6.7,1.1,10.2,0.9c0.2,0.3,0.3,0.6,0.5,0.8c0.3,0.4,0.5,0.8,0.9,1.2c0.6,0.8,1.2,1.5,1.9,2.3c1.3,1.4,2.8,2.8,4.3,3.9
							c0.8,0.6,1.6,1.2,2.4,1.7c0.8,0.5,1.7,1,2.5,1.4c0.4,0.2,0.9,0.4,1.3,0.6c0.4,0.2,0.9,0.3,1.4,0.5s0.9,0.2,1.4,0.3
							c0.3,0.1,0.5,0.1,0.8,0.1c-0.5,0.4-1.1,0.8-1.6,1.3c-1,0.8-1.9,1.7-2.8,2.5c-0.5-0.1-1-0.3-1.6-0.3l-0.9-0.1l-0.4,0.9
							c-1,2.2-2.2,4.3-3.6,6.3c-0.7,1-1.4,1.9-2.3,2.8c-0.8,0.9-1.7,1.8-2.5,2.6c-0.9,0.8-1.8,1.6-2.8,2.3c-1,0.7-2,1.4-3,1.9
							c-1.1,0.6-2.1,1.1-3.2,1.6c-1.1,0.5-2.5,1-3.6,1.8c-1.1,0.7-2.2,1.5-3.2,2.3s-2,1.7-2.9,2.6c-1.8,1.8-3.6,3.6-5.2,5.6
							c-3.3,3.9-6.3,7.9-9.1,12.2c3.4-3.7,6.8-7.5,10.4-11c0.9-0.9,1.8-1.7,2.7-2.6c0.9-0.8,1.8-1.7,2.8-2.5
							c0.9-0.8,1.9-1.6,2.9-2.3c1-0.7,2-1.4,3-2s2-1,3.3-1.4c1.2-0.4,2.5-1,3.6-1.7c1.2-0.6,2.3-1.3,3.3-2.1
							c1.1-0.8,2.1-1.6,3.1-2.5s1.9-1.8,2.7-2.8c0.9-1,1.7-2,2.4-3.1c0.8-1.1,1.4-2.2,2.1-3.3c0.5-0.9,0.9-1.7,1.2-2.6
							c0.8,0.2,1.6,0.5,2.5,0.8c1.2,0.5,2.4,0.9,3.6,1.4c2.4,1,4.8,2,7.4,2.8c0.6,0.2,1.3,0.4,2,0.5c0.3,0.1,0.7,0.1,1.1,0.1h0.5
							c0.2,0,0.3,0,0.5,0c0.5,0,1.1,0.2,1.7,0.4c0.6,0.2,1.2,0.4,1.8,0.6c1.2,0.5,2.4,1,3.7,1.4c1.2,0.4,2.6,0.8,3.9,0.5
							c-1.3,0-2.5-0.5-3.7-1.1s-2.3-1.2-3.5-1.8c-0.6-0.3-1.2-0.6-1.8-0.8c-0.6-0.3-1.2-0.5-2-0.6c-0.2,0-0.3,0-0.5-0.1h-0.3h-0.2
							c-0.3,0-0.5-0.1-0.8-0.1c-0.6-0.1-1.2-0.3-1.7-0.6c-2.3-0.9-4.7-2.1-7-3.2c-1.2-0.6-2.4-1.1-3.6-1.6c-0.7-0.3-1.4-0.5-2.1-0.8
							c0.9-0.7,1.9-1.5,2.8-2.2c1.1-0.8,2.3-1.7,3.4-2.4c0.6-0.4,1.2-0.7,1.8-0.8c0.6-0.1,1.2-0.1,1.9-0.1c2.7,0.3,5.3,1.3,8.2,1.8
							c2.9,0.4,5.8,0.2,8.6,0.2c2.8-0.1,5.6-0.2,8.2,0.3c2.6,0.4,5,1.6,6.8,3.4c0.9,0.9,1.7,2,2.7,3.1s2,2.3,3.7,3
							c1.8,0.7,3.3,0.5,4.7,0.5s2.8-0.1,4.2-0.1s2.7,0.1,3.9,0.3c1.2,0.2,2.2,0.7,3.2,1.5c1,0.7,1.9,1.8,2.7,2.8
							c0.2,0.3,0.5,0.9,0.7,1.5s0.5,1.4,0.9,2.1c0.4,0.8,0.9,1.4,1.8,2.1l0.2,0.2l0.4,0.2c0.3,0.1,0.5,0.2,0.7,0.3
							c0.4,0.1,0.8,0.2,1.2,0.3c1.5,0.3,2.8,0.5,3.6,1c0.9,0.6,1.8,1.5,2.5,2.5c0.8,1.1,1.6,2.4,2.9,3.5c1.3,1.1,2.9,1.8,4.5,2.1
							c0.6,0.1,1.5,0.2,2.3,0.2s1.5,0,2.2-0.1c2.9-0.3,5.6-0.9,8-0.4c0.6,0.1,1.2,0.3,1.7,0.5l0.4,0.2c0,0,0.3,0.2,0.4,0.2
							c0.3,0.2,0.4,0.3,0.7,0.5c0.9,0.7,1.6,1.9,2.7,3.1c0.6,0.6,1.2,1.1,2,1.5c1,0.4,1.8,0.4,2.6,0.5c1.4,0,2.4,0.2,3.2,0.9
							l0.8,0.7l0.9-0.7c0.2-0.2,0.4-0.3,0.8-0.3c0.4,0,0.9,0.1,1.4,0.2s1,0.4,1.5,0.6s1,0.5,1.5,0.8c1,0.6,2,1.2,3.2,1.8
							c0.3,0.1,0.6,0.3,0.9,0.4l0.9,0.3l1.7,0.7c2.3,0.9,4.6,1.8,7.2,2.2c0.6,0.1,1.3,0.1,1.9,0.1c0.7,0,1.3-0.1,1.9-0.3
							c0.3-0.1,0.6-0.2,0.9-0.3c0.3-0.1,0.6-0.3,0.9-0.4c0.5-0.2,0.8-0.5,1.2-0.9c2.1,1.5,4.2,2.9,6.2,4.5c2.1,1.6,4.2,3.3,6.1,5.3
							l0,0l0,0c0.1,0,0.1,0,0.2,0c0,0,0.1,0,0.1-0.1s0-0.1-0.1-0.1c-0.1-0.1-0.2-0.1-0.3-0.2c-0.1-0.1-0.3-0.2-0.4-0.2
							c-3.4-3.9-7.6-7-11.6-10.3l-0.3-0.3l-0.4,0.3c-0.5,0.3-0.9,0.7-1.4,0.9c-0.2,0.1-0.5,0.2-0.8,0.3c-0.3,0.1-0.5,0.2-0.8,0.2
							c-0.5,0.1-1.1,0.1-1.7,0.2c-0.6,0-1.1-0.1-1.7-0.2c-2.3-0.4-4.5-1.3-6.6-2.3l-1.7-0.8c-0.3-0.1-0.6-0.2-0.8-0.4
							c-0.2-0.1-0.5-0.2-0.7-0.4c-1-0.6-2-1.3-3.1-1.9c-0.5-0.3-1.1-0.6-1.6-0.9c-0.6-0.3-1.2-0.6-1.8-0.8c-0.6-0.2-1.4-0.4-2.2-0.4
							c-0.5,0-1,0.1-1.5,0.4c-0.5-0.3-1-0.6-1.6-0.8c-0.8-0.3-1.7-0.3-2.4-0.3s-1.3-0.1-1.6-0.2c-0.5-0.2-0.9-0.6-1.3-1
							c-0.8-0.8-1.6-2.1-2.8-3.3c-0.3-0.3-0.7-0.6-1-0.8c-0.2-0.1-0.2-0.2-0.5-0.3l-0.5-0.3c-0.7-0.3-1.5-0.6-2.3-0.7
							c-3.2-0.6-6.1,0-8.8,0.3c-0.7,0.1-1.3,0.1-2,0.1c-0.6,0-1.1,0-1.9-0.2c-1.1-0.2-2.2-0.7-3.1-1.4c-1.7-1.4-2.8-4.6-5.9-6.4
							c-1.6-0.9-3.2-1-4.5-1.3c-0.7-0.1-1.2-0.3-1.4-0.5c-0.3-0.2-0.7-0.7-0.9-1.1c-0.3-0.5-0.5-1.1-0.8-1.7
							c-0.3-0.7-0.5-1.4-1.2-2.3c-1-1.2-2-2.2-3.2-3.2s-2.8-1.7-4.4-2c-1.6-0.3-3.1-0.3-4.5-0.3s-2.9,0.1-4.3,0.1
							c-1.4,0.1-2.7,0.1-3.6-0.2c-0.9-0.4-1.9-1.3-2.8-2.3c-0.9-1-1.8-2.1-2.9-3.2c-2.2-2.1-5.2-3.5-8.1-3.8c-3-0.4-5.8-0.2-8.6,0
							s-5.6,0.4-8.3,0.2c-2.7-0.4-5.4-1.2-8.4-1.3c-0.7,0-1.5,0-2.3,0.2s-1.4,0.7-2,1.1s-1.2,0.8-1.7,1.3c-0.3,0-0.5-0.1-0.8-0.1
							c-0.5-0.1-0.9-0.2-1.4-0.4c-0.4-0.2-0.9-0.3-1.3-0.6c-0.4-0.2-0.8-0.4-1.3-0.7c-0.8-0.5-1.6-1-2.4-1.6
							c-0.8-0.6-1.5-1.2-2.2-1.8c-1.4-1.3-2.7-2.6-3.9-4.1c-0.6-0.7-1.2-1.5-1.7-2.3c-0.3-0.4-0.5-0.8-0.7-1.2
							c-0.2-0.4-0.4-0.8-0.6-1.2l-0.3-0.5h-0.5c-1.7,0-3.4-0.1-5.1-0.3c-1.7-0.2-3.4-0.5-5-1c-1.6-0.4-3.2-1-4.7-1.7
							c-0.7-0.3-1.5-0.7-2.1-1.2c-0.7-0.4-1.3-0.9-1.9-1.5l-1.6-1.4l-0.5,2c-0.1,0.2-0.4,0.7-0.7,1.2c-0.1,0.1-0.1,0.2-0.2,0.3
							c-1.7-1.6-3.3-3.5-4.9-5.3c-1-1.1-2-2.3-3.2-3.3c-0.6-0.5-1.2-1-1.8-1.6c-0.3-0.3-0.6-0.5-0.9-0.7l-1-0.7
							c-2.6-1.7-5.4-3-8-4.4c-2.5-1.3-5-2.6-7.1-4.3l0,0c-0.1-0.2-0.2-0.3-0.3-0.4c-0.2-0.2-0.3-0.4-0.5-0.5
							c-0.3-0.3-0.6-0.5-0.9-0.7c-0.6-0.4-1.2-0.9-1.8-1.3l-3.5-2.3c-1.1-0.8-2.3-1.5-3.4-2.4c-0.5-0.4-1.1-0.8-1.5-1.2
							c-0.5-0.4-0.9-0.9-1.1-1.3l-1.2-1.9l-1.1,1.9c-0.9,1.6-1.1,3.2-1.5,4.5c-0.2,0.6-0.4,1.2-0.7,1.6c-0.1,0.2-0.3,0.3-0.4,0.4
							l-0.2-0.3l-1.1-1.2l-1.2-1.1c-0.4-0.3-0.9-0.6-1.3-0.9c-0.9-0.5-1.8-1-2.8-1.4c-0.9-0.4-1.9-0.8-2.8-1.1
							c-1.9-0.7-3.7-1.4-5.4-2.2c-0.8-0.4-1.7-0.9-2.4-1.5l-1.1-0.9l-1-1l-0.7-0.7l-0.4,0.9c-0.2,0.3-0.3,0.7-0.5,0.9
							c-0.2,0.3-0.4,0.6-0.6,0.8c0,0,0,0-0.1,0c-3.5-2.7-7.1-5.1-10.4-8c-0.8-0.7-1.6-1.4-2.4-2.2c-0.4-0.4-0.8-0.8-1.1-1.2
							c-0.4-0.4-0.7-0.8-1.1-1.2c-0.7-0.8-1.4-1.7-2-2.5l-0.8-1.3L753,217l-0.6-1.2l-0.9,1.1l-0.4,0.5c-0.1,0.2-0.3,0.2-0.4,0.4
							c-0.1,0.1-0.3,0.2-0.4,0.2c-0.1,0.1-0.3,0.1-0.5,0.1c-0.3,0-0.7,0-1-0.2c-0.2-0.1-0.4-0.1-0.5-0.2c-0.2-0.1-0.4-0.2-0.5-0.3
							c-0.7-0.5-1.4-1.1-2-1.8s-1.2-1.5-1.7-2.2l-0.5-0.8l-0.9,0.4c-2.3,1.1-4.6,2.3-6.8,3.7c-1.7,1.1-3.3,2.2-4.8,3.6
							c-0.2-0.6-0.5-1.4-0.7-2.1c-0.2-0.7-0.5-1.5-0.9-2.2c-0.2-0.4-0.5-0.8-0.8-1.1c-0.3-0.4-0.6-0.7-1-1l-1-0.8l-0.9,0.9
							c-2.4,2.4-5.1,4.4-8,6.2c-2.4,1.5-4.9,2.8-7.5,4.2c-0.1-0.4-0.2-0.7-0.2-0.9l0.1-3.8l-2.6,2.8c-1.9,2.1-3.4,4.4-4.8,6.6
							c-0.7,1.1-1.4,2.2-2.2,3.2c-0.4,0.5-0.8,1-1.2,1.5s-0.8,0.9-1.3,1.4c-0.9,0.9-1.8,1.7-2.8,2.5s-2,1.6-3.1,2.3
							c-2.1,1.5-4.4,2.9-6.6,4.3c-1.1,0.7-2.3,1.5-3.3,2.4l-3,2.6c-2,1.7-4,3.5-6,5.1c-2,1.6-4.1,3.2-6.4,4.5
							c-1.1,0.6-2.3,1.1-3.6,1.4c-0.6,0.1-1.2,0.1-1.8,0.1c-0.2-0.2-0.4-0.4-0.6-0.6c-1-1.1-2.2-1.8-3.1-2.7c-1-0.8-1.9-1.7-2.9-2.6
							c-1-0.9-2-1.8-3.1-2.6c-1.2-0.9-2.5-1.5-3.8-2.1c-1.2-0.5-2.4-1-3.5-1.6s-2-1.3-3-2.2c-1-0.8-1.8-1.7-2.6-2.6
							c-0.8-0.9-1.4-2-1.7-2.9l-0.7-2.3l-1.7,1.7c-1.2,1.3-2.2,2.4-3.4,3.6c-1.1,1.1-2.3,2.2-3.5,3.1c-0.6,0.4-1.3,0.8-1.7,0.9
							c-0.1,0,0,0.1-0.2,0.1h-0.2c-0.1-0.1-0.3-0.2-0.4-0.4c-0.5-0.5-0.9-1.2-1.4-1.8c-0.5-0.7-0.9-1.4-1.4-2.1
							c-0.1-0.2-0.3-0.3-0.4-0.6l-0.3-0.3l-0.3-0.3c-0.3-0.3-0.7-0.6-1-0.8l-1.9-1.5c-0.6-0.5-1.1-1-1.6-1.5
							c-0.2-0.3-0.5-0.6-0.7-0.9l-0.7-1c-2-2.8-4.4-5.1-5.3-7.8l-0.4-1.2l-1.2,0.2c-1.6,0.3-2.9,1.2-3.8,2.1c-1,0.9-1.8,1.8-2.6,2.3
							c-0.4,0.3-0.8,0.5-1.2,0.6c-0.2,0.1-0.3,0-0.5,0.1c-0.1,0-0.3,0-0.4,0h-0.2l0,0l0,0l0,0c-0.8-0.1-1.4-0.5-2.1-1.4
							c-0.7-0.8-1.4-2.1-2.7-2.9c-1.2-0.8-2.3-1.4-3.5-1.9s-2.2-0.9-2.9-1.5c-0.8-0.6-1.4-1.4-2.1-2.4c-1.3-2-2.5-4-3.6-6.2
							c-1.1-2.1-2.3-4.3-3.3-6.4c-2.2-4.3-4.2-8.7-6.2-13.1l-0.1-0.3l-0.2-0.2l-4-3.5l-2-1.7l-1-0.9c-0.3-0.3-0.7-0.6-1-0.9
							c-1.1-1.1-2.1-2.5-3.1-3.9c-0.9-1.4-1.8-3-2.5-4.5l-0.1-0.1l-0.1-0.1c-1.8-2.3-3.6-4.4-5.6-6.6c-1.9-2.1-3.9-4.2-6.1-6.1
							l-1-0.9l-0.9,1c-1.9,2.2-4.1,4.2-6.4,6.1c-1.1,1-2.3,2-3.4,3c-1.1,1.1-2.2,2.1-3.3,3.4c-1.1,1.4-1.7,2.9-2.3,4.2
							c-0.3,0.6-0.6,1.2-1,1.6c-0.2,0.3-0.8,0.6-1.4,0.8c-1.3,0.5-3,0.8-4.5,1.9c-1.1,0.8-2.5,1.5-3.8,2.5c-0.7,0.5-1.3,1-1.9,1.7
							c-0.3,0.3-0.5,0.7-0.8,1.1c-0.1,0.2-0.2,0.4-0.3,0.6l-0.2,0.3l-0.1,0.3c-0.6,1.5-1,2.9-1.5,4.4c-0.2,0.7-0.4,1.5-0.6,2.3
							c-0.2,0.8-0.3,1.3-0.6,1.8c-0.3,0.6-0.8,1.2-1.2,2s-0.6,1.7-0.8,2.4c-0.3,1.6-0.4,3.1-0.7,4.5c-0.2,1.5-0.5,2.7-1.3,3.8
							c-0.7,1.1-1.8,2.1-2.9,3.2c-0.9,0.9-1.8,1.9-2.4,3.1c-0.1,0-0.2-0.1-0.3-0.1c-0.5-0.1-0.9-0.2-1.4-0.1c-1,0.1-1.8,0.6-2.5,1.1
							c-1.3,1.1-2.1,2.4-2.9,3.7c-0.7,1.3-1.4,2.6-2.1,3.7c-0.6,1.1-1.7,2.1-2.7,3.2l-5.9,6.3c-1,1.1-1.9,2.1-2.9,3.3
							c-1,1.1-1.8,2.3-2.8,3.2c-1.9,1.9-4.6,2.9-7.1,4.7c-1.3,0.9-2.3,2-3.2,3.3c-0.8,1.3-1.5,2.6-2.1,3.9s-1.2,2.6-1.9,3.8
							c-0.2,0.3-0.3,0.6-0.5,0.9c-0.2-0.8-0.6-1.5-1.1-2.1c-0.7-0.9-1.5-1.7-2.2-2.6c-1.3-1.9-2.2-4-3.3-6c-2.2-4-4.7-8-8.2-11.2
							l-0.3-0.2l-0.3,0.1c-0.1,0.1-0.7-0.2-1.1-0.5s-0.8-0.7-1.2-1.1c-0.8-0.8-1.6-1.6-2.5-2.4c-0.9-0.8-1.8-1.6-3.1-2
							c-0.6-0.2-1.4-0.3-2.1-0.1c-0.2,0.1-0.5,0.2-0.7,0.3c-0.2-0.7-0.5-1.4-0.9-2.1c-0.6-1-1.3-1.9-2-2.8l-0.8-1l-0.6,1.2
							c-0.3,0.6-0.9,1-1.5,1.6c-0.5-0.7-1.1-1.3-1.8-1.7c-1-0.6-2.1-1-3-1.4c-1-0.4-1.8-0.8-2.5-1.4c-0.7-0.6-1.1-1.3-1.5-2.2
							c-0.3-0.8-0.4-1.8-0.5-2.9c-0.1-1.1-0.2-2.2-0.8-3.4c-0.3-0.6-0.7-1.2-1.2-1.6c-0.4-0.4-0.9-0.8-1.3-1.1s-0.8-0.7-1.2-1
							c-0.2-0.2-0.2-0.2-0.2-0.3s-0.1-0.3-0.2-0.5c-0.2-0.5-0.3-1.2-0.9-1.9c-0.1-0.1-0.1-0.1-0.3-0.3l-0.2-0.1
							c-0.2-0.1-0.4-0.3-0.5-0.3c-0.3-0.2-0.6-0.3-0.9-0.3c-1.1-0.3-2.3-0.5-3.1-0.7h-0.1l0,0c-0.1-0.1-0.2-0.3-0.4-0.6
							c-0.2-0.3-0.5-0.7-1-0.9c-0.2-0.1-0.4-0.2-0.7-0.3c0,0-0.5-0.1-0.7-0.1c-0.9,0.1-1.5,0.4-1.9,0.5c-0.2,0.1-0.4,0.1-0.4,0.1
							c-0.1,0-0.1,0-0.4-0.1s-0.5-0.1-0.7-0.2c-0.2-0.1-0.4-0.2-0.6-0.2c-0.4-0.2-0.8-0.4-1.2-0.7c-0.8-0.5-1.6-1.2-2.5-1.8
							c-1.6-1.3-3.5-2.7-5.5-3.7l-0.9-0.5l-0.7,0.8c-1,1.1-2.1,2.2-3.2,3.1c-1.2,1-2.4,1.8-3.7,2.8c-1.3,0.9-2.7,2.1-3.6,3.8
							c-0.8,1.5-1.4,2.9-2.2,3.9c-0.9,1-2.1,2.1-3.2,3.1c-0.6,0.5-1.2,1-1.7,1.4c-0.3,0.2-0.6,0.4-0.8,0.6c0,0-0.3,0.2-0.5,0.2
							l-0.4,0.2c-0.6,0.2-1.2,0.3-2,0.5c-0.8,0.1-1.8,0.3-2.6,0.7c-1.7,0.8-3.1,2.1-4.1,3.3c-1.1,1.2-2,2.5-3,3.6
							c-0.5,0.5-1,1-1.5,1.4c-0.6,0.5-1.2,0.8-1.9,1.2c-1.3,0.8-2.8,1.7-4.1,3c-1.4,1.5-1.9,3-2.7,4.3c-0.3,0.6-0.8,1.3-1,1.4
							c-0.5,0.3-1.1,0.5-1.7,0.7c-1.3,0.4-3,0.5-4.6,1c-0.8,0.3-1.7,0.6-2.5,1.1c-0.7,0.5-1.3,0.9-2,1.4s-1.4,1.1-2,1.9
							c-0.4,0.5-0.6,1.1-0.8,1.7c-0.3,0-0.6,0.1-0.9,0.1c-0.7,0.1-1.4,0.3-2,0.5c-1.3,0.4-2.6,1.1-3.7,1.9c-2,1.4-3.6,3.2-4.7,5.3
							c-1.1-0.3-2.2-0.5-3.2-0.7c-0.7-0.1-1.3-0.3-2-0.5s-1.2-0.4-1.9-0.6c-1.3-0.5-2.5-1-3.7-1.6c-0.6-0.3-1.1-0.7-1.7-1.1
							c-0.6-0.4-1-0.8-1.7-1.3c-0.3-0.2-0.5-0.4-0.9-0.6c-0.3-0.2-0.7-0.4-1.1-0.6c-0.7-0.4-1.4-0.7-2.1-0.9c-1.5-0.5-2.9-0.7-4.3-1
							c-1.4-0.2-2.8-0.4-4.2-0.6c-0.7-0.1-1.3-0.3-2-0.4c-0.6-0.2-1.3-0.4-1.9-0.7l-0.8-0.4l-0.4,0.8c-1.1,2-1.8,4.1-2.6,6.1
							c-0.2,0-0.5,0-0.7-0.1c-0.4-0.1-0.8-0.3-1.3-0.6c-0.9-0.5-1.7-1.2-2.8-1.8l-0.8-0.4l-0.3,0.8c-0.5,1.1-1.3,2-2.4,2.6
							s-2.4,1-3.7,1.5c-0.7,0.3-1.3,0.6-1.9,0.8c-0.6,0.3-1.3,0.5-1.9,1c-0.7,0.4-1.2,1.2-1.5,1.8c-0.3,0.7-0.5,1.3-0.8,2
							c-0.2,0.6-0.4,1.4-0.6,2l-0.5,2c-0.3,1.3-0.6,2.6-1.1,3.9c-0.2,0.6-0.5,1.3-0.8,1.9s-0.6,1.2-1,1.7s-0.9,0.9-1.5,1.2
							c-0.3,0.1-0.6,0.2-0.9,0.3c-0.3,0-0.6,0-1,0h-0.2l-0.1,0.1c-0.9,1.7-1.6,3.6-1.9,5.5c-0.2,1-0.2,1.9-0.1,2.9
							c0.1,0.5,0.1,1,0.3,1.4c0,0.1,0.1,0.1,0.1,0.2c-1.6-0.1-3.2-0.4-4.8-0.4c-0.8,0-1.7,0-2.6,0.4c-0.8,0.4-1.4,1.1-1.8,2
							c-0.4,0.8-0.6,1.6-0.9,2.4s-0.7,1.4-1.2,2.1c-0.8,1.1-1.8,2-2.6,3.2c-1.6-1.6-3.4-3.1-5.3-4.3c-2.1-1.4-4.4-2.5-6.6-3.6
							c-2.3-1.1-4.5-2.1-6.8-3.1s-4.7-1.9-7-2.8s-4.6-1.9-6.7-3.1c-1.1-0.6-2.1-1.2-3-2c-0.9-0.7-1.8-1.5-2.6-2.4
							c-0.4-0.4-0.8-0.9-1.1-1.3s-0.7-1-1-1.5c-0.6-1.1-1.3-2.2-2-3.2c-0.7-1.1-1.4-2.2-2.3-3.2c-0.9-1-1.8-2.1-3.7-2.7l-1.1-0.3
							l-0.6,1.1c-0.4,0.7-0.8,1.4-1.2,1.9c-0.5,0.5-1.1,0.9-1.9,1.4c-0.9,0.6-1.5,1.2-2.2,1.7c-0.3,0.2-0.6,0.4-0.9,0.6
							c-0.1,0-0.1,0-0.1,0.1l0,0l0,0h-0.1l0,0c-0.1-0.1-0.2-0.3-0.4-0.5c-0.3-0.3-0.6-0.4-0.9-0.5c-0.1,0-0.2,0-0.4-0.1h-0.1h-0.2
							h-0.1c-0.1,0-0.2,0-0.4,0s-0.4,0.1-0.6,0.1c-1.3,0.4-2.1,1-2.9,1.7c-0.7,0.6-1.4,1.3-2,1.8c-0.3,0.3-0.6,0.5-0.9,0.8
							c-0.3,0.2-0.7,0.5-1,0.7c-1.4,0.9-3,1.6-4.6,2.4c-0.8,0.4-1.6,0.7-2.6,1.5c-0.9,0.7-1.5,1.6-2,2.4s-0.9,1.5-1.4,2.1
							c-0.1,0.1-0.2,0.3-0.4,0.4c-0.1,0.1-0.2,0.2-0.2,0.2l-0.3,0.2c-0.3,0.2-0.5,0.4-0.9,0.6c-1.3,0.7-3,1.2-4.7,1.5h-0.3
							c-0.2-0.2-0.5-0.4-1-0.6c-0.3-0.1-0.7-0.1-0.9,0h-0.1l0,0h-0.1H168l-0.2,0.1c-0.2,0.1-0.4,0.2-0.5,0.3l-0.3,0.3
							c-0.2,0.2-0.4,0.3-0.6,0.5c-0.4,0.3-0.7,0.7-1,1l-1.8,2c-0.3,0.3-0.6,0.6-0.8,0.9c-0.4,0.3-0.7,0.6-1.1,1
							c-0.4,0.4-0.7,0.8-1,1.4s-0.4,1.2-0.3,1.8c0.1,1.1,0.2,1.7,0.1,2.4c-0.1,0.7-0.5,1.4-0.9,2.1c-0.4,0.6-1,1.3-1.6,1.9
							c-1.2,1.2-2.7,2.2-4.1,3.3c-1.4,1.1-2.9,2.2-4.1,3.6c-1.2,1.4-2.1,3-3.1,4.4c-0.8,1.1-1.6,2.2-2.6,3.2
							c-0.2-0.1-0.3-0.3-0.6-0.5s-0.6-0.5-1-0.8c-0.5-0.3-0.7-0.4-1.1-0.6c-0.7-0.3-1.3-0.6-1.9-0.9c-0.6-0.3-1.1-0.6-1.6-1
							s-1.3-0.9-1.9-1.2c-2.6-1.5-5.3-2.5-7.4-4l-0.8-0.5l-0.9,0.5c-0.4,0.2-0.8,0.5-1.2,0.7c-0.4,0.2-0.8,0.4-1.1,0.5
							c-0.4,0.1-0.7,0.2-1.1,0.2s-0.7-0.1-1.1-0.2c-0.8-0.2-1.6-0.6-2.4-1.1l-2.7-1.5l-0.8-0.4l-0.7,0.5c-1.2,0.9-3.1,1-5.2,1.6
							c-0.5,0.1-1.1,0.3-1.7,0.6c-0.1,0.1-0.3,0.1-0.4,0.2l-0.3,0.2l-0.7,0.5c-0.9,0.6-1.7,1.3-2.5,2c-1.5,1.4-2.8,2.6-4.5,3.6
							c-1.5,0.9-3.3,1.6-5.2,2.1c-1.9,0.5-3.8,1-5.8,1.7c-2,0.6-3.9,1.6-5.6,2.7c-2.4,1.6-4.5,3.4-6.5,5.3c-1.5-0.5-2.9-1.3-4.3-2.2
							c-1.4-1-2.8-2-4.2-3.1l-0.5-0.4l-0.4,0.6c-0.5,0.6-1,1.2-1.7,1.6s-1.4,0.6-2.2,0.7c-1.6,0.2-3.3,0.1-5,0
							c-0.9,0-1.8-0.1-2.7-0.1c-0.5,0-0.9,0.1-1.4,0.1c-0.4,0.1-0.9,0.1-1.4,0.2c-1.8,0.4-3.4,1-5,1.3c-0.8,0.1-1.5,0.2-2.2,0.1
							l-0.5-0.1l-0.6-0.2c-0.4-0.1-0.7-0.3-1.1-0.4c-0.7-0.3-1.5-0.6-2.2-1l-0.5-0.3l-0.5-0.3l0-1.7c-0.2-0.1-0.5-0.4-1.1-0.5
							s-1.1,0-1.4,0.1c-0.3,0.1-0.6,0.2-0.8,0.4c-0.3,0.1-0.4,0.2-0.7,0.4l-0.6,0.4c-0.9,0.6-1.6,1.3-2.2,1.9
							c-1.3,1.3-2.3,2.6-3.5,3.4c-1.1,0.8-2.9,1.1-4.6,2c-1.8,0.9-3.2,2.5-4.2,3.9c-2.2,3.1-3.4,6.3-5.5,8.8
							c-1.1,1.4-2.2,2.6-3.4,3.8c-1.2,1.2-2.5,2.4-3.8,3.5c-2.6,2.3-5.3,4.5-7.9,6.8c3-1.8,5.9-3.7,8.8-5.8c1.4-1,2.8-2.1,4.1-3.3
							c1.3-1.1,2.7-2.4,3.8-3.7c2.6-2.7,4-6.1,6-8.6c1-1.3,2.1-2.4,3.4-3.1c0.7-0.3,1.4-0.6,2.3-0.9c0.7-0.2,1.8-0.7,2.7-1.2
							c1.7-1.1,2.9-2.6,4-3.8c0.5-0.6,1.2-1.2,1.7-1.5l0.5-0.4l0.5-0.3c0.1-0.1,0.2-0.1,0.3-0.2c0.1,0.1,0.3,0.2,0.5,0.4l0.6,0.4
							l0.6,0.4c0.8,0.5,1.7,0.9,2.5,1.2c0.4,0.2,0.9,0.3,1.3,0.4l0.7,0.2c0.3,0.1,0.5,0.1,0.8,0.1c1.1,0.1,2.1,0,3-0.2
							c1.9-0.4,3.5-1.1,5.1-1.5c0.4-0.1,0.7-0.2,1.2-0.3c0.3,0,0.8-0.1,1.2-0.2c0.8-0.1,1.7-0.1,2.5-0.1c1.7,0,3.6,0,5.4-0.4
							c0.9-0.2,1.8-0.6,2.7-1.2c0.6-0.4,1.1-1,1.6-1.6c1.3,0.8,2.6,1.6,4,2.3c1.5,0.7,3,1.3,4.6,1.6c-0.9,0.8-1.8,1.7-2.7,2.5
							c-1.4,1.4-2.9,2.7-4.4,3.9c-1.5,1.2-3.1,2.4-4.7,3.3c-1.5,0.7-3.4,0.5-5.5,0.6c-1,0-2.2,0.2-3.2,0.7c-0.3,0.1-0.5,0.2-0.7,0.4
							c-0.2,0.1-0.4,0.3-0.6,0.4c-0.5,0.3-0.8,0.7-1.2,1.1c-1.5,1.5-2.5,3.2-3.7,4.7c-0.6,0.8-1.3,1.5-2,2c-0.2,0.2-0.4,0.3-0.6,0.4
							c-0.2,0.1-0.4,0.2-0.6,0.3c-0.4,0.1-0.9,0.2-1.4,0.2s-1,0.1-1.5,0.2s-1,0.4-1.4,0.7c-0.8,0.7-1.4,1.5-2.1,2.2
							c-1.2,1.5-3.3,2.3-4.5,3.9c1.3-1.5,3.3-2.1,4.8-3.6c0.7-0.7,1.3-1.5,2.1-2c0.8-0.6,1.7-0.7,2.7-0.7c0.5,0,1,0,1.6-0.2
							c0.3-0.1,0.5-0.2,0.8-0.3c0.2-0.1,0.5-0.3,0.7-0.4c0.9-0.6,1.6-1.3,2.3-2.1c1.3-1.5,2.5-3.2,3.9-4.4c0.3-0.3,0.7-0.6,1.1-0.8
							c0.2-0.1,0.4-0.3,0.6-0.4c0.2-0.1,0.4-0.2,0.6-0.3c0.8-0.3,1.7-0.4,2.6-0.4c1.9,0,4.1,0.4,6.3-0.5c1.9-0.9,3.6-2.1,5.2-3.3
							c1.6-1.2,3.1-2.6,4.6-3.9s2.9-2.7,4.4-3.9c1.5-1.2,3.1-2.4,4.7-3.4s3.3-1.8,5.1-2.4c1.8-0.6,3.7-1,5.7-1.5s3.9-1.2,5.9-2.3
							c0.5-0.3,0.8-0.5,1.3-0.8c0.4-0.3,0.9-0.6,1.3-1c0.8-0.7,1.6-1.3,2.3-2c1.5-1.3,2.9-2.5,4.4-2.8c1.4-0.4,3.3-0.5,5.2-1.4
							c0,0.4,0.1,0.8,0.2,1.1c0.2,0.7,0.4,1.3,0.7,1.9c0.3,0.6,0.6,1.2,0.9,1.9c0.3,0.6,0.7,1.2,1.1,1.8c0.4,0.5,1,1,1.5,1.5
							c0.5,0.4,0.9,0.9,1.2,1.4c0.4,0.6,0.8,1.1,1.3,1.6l1.3,1.6c0.5,0.6,0.8,1,1.2,1.6c0.4,0.5,0.7,1.1,1,1.7l1,1.8
							c0.4,0.6,0.8,1.2,1.2,1.8c0.4,0.5,0.8,1.1,1.2,1.7c0.5,0.6,0.9,1.1,1.7,1.7c0.1,0.1,0.2,0.1,0.5,0.2c0.1,0,0.3,0.1,0.3,0.1
							h0.1l0,0h0.2l0,0h0.1c0.1,0,0.2,0,0.3-0.1c0.2-0.1,0.4-0.1,0.5-0.2c0.5-0.3,0.8-0.6,1-0.9c0.3,0.8,0.7,1.6,1,2.4
							c0.7,1.5,1.4,2.9,2.6,4.3c1.1,1.4,2.5,2.4,3.7,3.3c0.6,0.5,1.1,0.9,1.6,1.4l1.6,1.6c1,1.1,1.8,2.1,2.2,3.4
							c0.1,0.3,0.2,0.6,0.2,1c0.1,0.3,0.1,0.6,0.2,1c0,0.3,0,0.1,0,0.3v0.5c0,0.4-0.1,0.8-0.1,1.3c0,0.2,0,0.5,0,0.8
							c0,0.1,0,0.2,0,0.3v0.2c0,0.1,0.1,0.2,0.1,0.3c0.1,0.3,0.1,0.3,0.2,0.3l0,0c0.3,0.4,0.1,0.1,0.2,0.2l0,0l0.1,0.1
							c0.2,0.2,0.6,0.5,1.2,0.7c0.6,0.1,1,0,1.3-0.1c0.1,0,0.2-0.1,0.2-0.1c0.2,0.1,0.4,0.2,0.8,0.2c0,0.1,0.1,0.1,0.1,0.2
							c0.1,0.2,0.1,0.4,0.2,0.7c0.1,0.6,0,1.4,0.1,2.3c0,0.5,0.1,1,0.3,1.5c0.1,0.2,0.2,0.6,0.4,0.8l0.2,0.2
							c0.2,0.2,0.2,0.3,0.3,0.4c0.4,0.4,0.8,0.8,1.2,1s0.6,0.4,0.6,0.4c0.1,0.1,0.3,0.6,0.2,1.4c0,0.7-0.1,1.3-0.3,2
							c-0.1,0.4-0.2,0.8-0.3,1.4s0.1,1.2,0.3,1.7s0.5,0.8,0.8,1.2l0.4,0.5c0.2,0.2,0.3,0.3,0.4,0.5c1.1,1.2,2.3,2.2,3.2,3.3
							c0.2,0.3,0.4,0.6,0.5,0.9c0.1,0.2,0.1,0.3,0.2,0.4l0.1,0.3v0.1l0,0v0.1c0.1,0.6,0,1.3-0.1,2.1c-0.1,0.8-0.2,1.8,0.1,2.6
							c0.4,1,1.1,1.5,1.7,2.1c0.6,0.5,1.3,1,1.8,1.5c0.6,0.5,1.1,1.1,1.5,1.7c0.8,1.1,1.7,2.2,2.7,3.1c-0.6,0.3-1.1,0.6-1.7,0.9
							c-1.2,0.6-2.3,1.3-3.4,2.1c-1,0.7-2.1,1.5-3.1,2.3c-2.1,1.6-4,3.3-5.9,5c-3.8,3.4-7.4,7-11.3,10.2c-1.9,1.6-4,3.1-6,4.7
							l-6.1,4.6c-4.1,3-8.2,6-12.5,8.8c-4.2,2.8-8.7,5.2-13.4,7.2c-4.7,2-9.5,3.6-14.6,4.4c5.1-0.5,10.1-1.8,14.9-3.7
							c4.8-1.8,9.4-4.1,13.9-6.7c2.2-1.3,4.3-2.7,6.5-4.1c2.1-1.4,4.2-2.9,6.3-4.4l6.2-4.5c2.1-1.5,4.1-3,6.2-4.6
							c4.1-3.2,7.8-6.7,11.6-10.1c1.9-1.7,3.8-3.3,5.8-4.8c1-0.7,2-1.5,3.1-2.2c1-0.7,2.1-1.3,3.2-1.9c2.2-1.2,4.5-2.2,6.8-3.3
							c2.3-1.1,4.7-2.3,6.9-3.8c2.2-1.6,4.1-3.2,6.1-4.9c1.7-1.4,3.3-2.9,4.9-4.4c0.4,0.3,0.8,0.5,1.2,0.8c0.7,0.5,1.3,1,1.8,1.5
							l1.2,1.2l1-1.3c2.6-3.3,5.5-6.5,8-10c0.6-0.9,1.3-1.8,1.9-2.7c0.6-0.9,1.1-1.9,1.7-2.9c0.5-1,1-2,1.4-3l0.6-1.6l0.4-1.6v-0.1
							v-0.1c0.1-1.6,0.2-3.2,0.4-4.6c0.2-1.3,0.7-2.5,1.2-3.8c0.1,0,0.1-0.1,0.2-0.1c0.2-0.2,0.4-0.3,0.6-0.5c0.3-0.3,0.6-0.7,0.8-1
							c0.5-0.7,0.9-1.5,1-2.6v0.1c0.3-1.7,0.5-3.2,1.2-4.5c0.6-1.3,1.8-2.4,2.8-4.1c0.9-1.6,1.5-3.2,2.1-4.8c0.3-0.8,0.6-1.5,1-2.2
							c0.2-0.4,0.4-0.7,0.5-1c0.2-0.4,0.4-0.6,0.7-0.9c1-1.1,2.3-2.1,3.7-3.1l4.2-2.8c1.4-0.9,2.9-2.1,4.1-3.2
							c1.2-1.1,2.5-2.2,3.8-3.2s2.7-1.9,4.1-2.7c1.4-0.7,3-1.3,4.6-2.1c1.6-0.8,3.2-2.2,3.5-4.2c0.3-1.8,0.2-3.5,0.8-4.9
							s1.9-2.6,2.8-4.1c0.5-0.7,1-1.5,1.2-2.3c0.3-0.8,0.4-1.7,0.8-2.4c0.3-0.8,0.8-1.4,1.5-1.8s1.5-0.5,2.4-0.5
							c1.6-0.1,3.2,0.2,4.8,0.2c0.1,0.4,0.3,0.8,0.5,1.2c-0.2-0.4-0.3-0.8-0.4-1.2c0.1,0,0.1,0,0.2,0c-0.1,0-0.1,0-0.2,0
							c0-0.1-0.1-0.1-0.1-0.2c-0.1-0.5-0.2-0.9-0.2-1.4c-0.1-1,0.1-1.9,0.3-2.8c0.4-1.8,1.2-3.5,2-5.2c0.3,0,0.6,0.1,0.9,0.1
							c0.4-0.1,0.7-0.1,1.1-0.3c0.7-0.3,1.3-0.7,1.8-1.3c0.5-0.5,0.9-1.1,1.2-1.8c0.3-0.6,0.6-1.3,0.9-1.9c0.5-1.3,0.9-2.6,1.2-4
							l0.5-2c0.2-0.7,0.4-1.3,0.6-1.9s0.5-1.3,0.8-1.8c0.3-0.6,0.6-1,1.1-1.3s1.2-0.5,1.8-0.8c0.6-0.3,1.3-0.5,1.9-0.7
							c1.3-0.5,2.6-0.8,3.9-1.5c1.1-0.5,2-1.4,2.7-2.5c0.6,0.4,1.3,0.9,2,1.4c0.5,0.3,1,0.6,1.7,0.8c0.6,0.2,1.3,0.3,2,0.2l0.5-0.1
							l0.2-0.5c0.8-1.9,1.5-3.9,2.5-5.6c0.4,0.2,0.8,0.4,1.3,0.5c0.7,0.2,1.4,0.4,2.2,0.5c1.4,0.3,2.9,0.5,4.2,0.7
							c1.4,0.2,2.7,0.5,3.9,1c0.6,0.2,1.2,0.5,1.8,0.8l0.8,0.5c0.3,0.2,0.6,0.4,0.8,0.6c0.5,0.4,1.1,0.9,1.7,1.4s1.2,0.9,1.9,1.3
							c1.3,0.8,2.7,1.4,4.1,1.9c0.6,0.2,1.4,0.5,2.1,0.7s1.4,0.4,2.1,0.5c1.4,0.3,2.8,0.6,4.1,0.9l1,0.3l0.5-1c1-2,2.5-3.9,4.4-5.1
							c0.9-0.6,2-1.2,3-1.5c0.5-0.2,1.1-0.3,1.6-0.4c0.5-0.1,1.1-0.1,1.6-0.1h1.4v-1.3c0-1,0.7-1.9,1.9-2.8c0.6-0.4,1.3-0.9,1.8-1.3
							c0.6-0.3,1.2-0.6,1.8-0.8c1.3-0.4,2.9-0.5,4.6-1c0.8-0.2,1.7-0.5,2.6-1.1c0.6-0.4,0.9-0.8,1.2-1.2c0.3-0.4,0.5-0.7,0.7-1.1
							c0.8-1.4,1.5-2.9,2.3-3.7c0.9-1,2.2-1.7,3.5-2.5c0.7-0.4,1.4-0.9,2.1-1.3c0.7-0.6,1.4-1.1,2-1.8c1.2-1.2,2.1-2.5,3.1-3.6
							s2-2.1,3.1-2.6c0.6-0.3,1.1-0.4,1.9-0.5s1.7-0.3,2.6-0.6c0.2-0.1,0.5-0.2,0.7-0.3s0.3-0.1,0.6-0.3c0.4-0.3,0.8-0.5,1.1-0.8
							c0.7-0.5,1.3-1,1.9-1.6c1.2-1.1,2.3-2.1,3.5-3.5s1.8-3,2.5-4.3c0.6-1.1,1.6-2,2.9-3c1.2-0.9,2.6-1.8,3.8-2.9
							c1-0.8,1.9-1.7,2.8-2.7c1.5,0.8,2.8,1.8,4.2,2.9c0.8,0.7,1.7,1.3,2.7,2c0.5,0.3,1,0.6,1.6,0.8c0.5,0.2,1.3,0.5,1.7,0.6
							c0.2,0,0.7,0.2,1.1,0.1c0.4,0,0.8-0.1,1.1-0.2c0.6-0.2,1.1-0.4,1.2-0.4s-0.1,0,0.1,0c-0.1,0,0,0,0,0s0.1,0,0.2,0.2
							c0.1,0.1,0.2,0.4,0.5,0.7c0.1,0.2,0.3,0.3,0.6,0.5l0.2,0.1h0.1l0.2,0.1h0.1c1.2,0.4,2.2,0.5,3.1,0.7c1,0.4,0.9,0.1,1.3,1.3
							c0.1,0.3,0.2,0.6,0.4,1c0.2,0.5,0.6,0.8,0.8,0.9c0.4,0.4,0.9,0.7,1.3,1s0.8,0.6,1.1,0.9c0.3,0.3,0.6,0.6,0.7,0.9
							c0.3,0.7,0.5,1.7,0.6,2.8s0.2,2.1,0.7,3.4c0.4,1.1,1.2,2.2,2.1,3c1,0.8,2,1.3,3.1,1.7c1,0.4,2,0.7,2.8,1.2s1.4,1.1,1.8,1.9
							l0.7,1.3l0.8-1.1c0.4-0.5,1.1-1,1.7-1.8c0.4,0.6,0.8,1.1,1.2,1.7c0.5,0.9,1,1.8,1.1,2.8l0.2,1.9l1.2-1.4
							c0.3-0.4,0.6-0.6,1-0.7c0.4-0.1,0.8-0.1,1.2,0.1c0.9,0.3,1.8,1,2.7,1.7c0.9,0.7,1.7,1.5,2.6,2.3c0.4,0.4,0.9,0.8,1.4,1.1
							c0.3,0.2,0.5,0.3,0.9,0.5c0.2,0.1,0.5,0.2,0.9,0.2c3.3,2.8,5.9,6.6,8.2,10.4c1.1,2,2.1,4.1,3.5,5.9c0.7,0.9,1.6,1.7,2.3,2.5
							c0.5,0.6,0.9,1.3,1.1,2c-0.5,0.9-1.2,1.6-1.9,2.4l-5.7,6.5c-1,1.1-1.8,2.3-2.7,3.4c-0.9,1.1-1.8,2.2-3,2.4
							c-0.6,0.1-1.2,0-1.8-0.3c-0.6-0.2-1.2-0.6-1.8-1c-1.1-0.7-2-1.9-2.9-2.9c-0.5-0.5-1-1.1-1.5-1.6c-0.3-0.3-0.6-0.5-0.9-0.7
							c-0.1-0.1-0.4-0.2-0.6-0.3c-0.2-0.1-0.3-0.1-0.6-0.2c-0.9-0.2-1.8,0.1-2.4,0.5c-0.7,0.4-1.2,0.9-1.7,1.4
							c-2.1,2.1-3.5,4.6-5.5,6.8c-0.9,1.2-1.6,2.4-2.2,3.8c-0.6,1.3-1.1,2.7-1.6,4c-0.6,1.3-1.3,2.5-2.2,3.6
							c-0.9,1.1-2.1,1.9-3.2,2.9c-2.2,1.8-4.3,3.9-6,6.3c-1.7,2.3-3.1,4.9-4.4,7.4c1.3-2.6,2.8-5,4.5-7.3s3.8-4.3,6.1-6.1
							c1.1-0.9,2.3-1.7,3.3-2.8c1-1.1,1.7-2.4,2.3-3.7c0.6-1.3,1.1-2.7,1.7-4s1.3-2.5,2.2-3.6c1.9-2.1,3.5-4.6,5.5-6.6
							c0.5-0.5,1-0.9,1.6-1.3c0.6-0.3,1.2-0.5,1.7-0.4c-0.1,0.3-0.3,0.8-0.4,1.3c-0.3,1-0.5,2.4,0,4c0.1,0.2,0.1,0.4,0.2,0.6
							c0.2,0.3,0.2,0.3,0.3,0.6c0.3,0.5,0.6,0.7,0.9,1c0.6,0.5,0.9,0.6,1.3,0.8c0.4,0.3,0.6,0.7,0.8,0.9v3.6c0,0.7-0.7,1.9-1.6,2.8
							c-0.9,1-1.9,1.8-3,2.7l-1.6,1.3c-0.6,0.4-1.1,0.9-1.7,1.3c-1.1,0.9-2.2,1.7-3.3,2.5c-2.2,1.6-4.5,3.3-6.6,5.2
							c-1.1,0.9-2.1,1.9-3,3c-0.5,0.5-0.9,1.1-1.3,1.7s-0.7,1.2-1.1,1.8c0.4-0.6,0.8-1.1,1.3-1.6s1-1,1.5-1.5c1-1,2.1-1.8,3.2-2.6
							c2.2-1.6,4.6-3,7-4.6c1.2-0.8,2.4-1.5,3.5-2.3l3.4-2.4c1.2-0.8,2.3-1.7,3.4-2.8c0.5-0.5,1-1,1.4-1.7c0.4,0.6,0.8,1.2,1.2,1.8
							c0.9,1.3,1.7,2.5,2.9,3.8c0.7,0.7,1.6,1.2,2.3,1.5c0.4,0.2,0.7,0.3,0.9,0.4c0.3,0.1,0.5,0.3,0.8,0.5s0.6,0.4,0.7,0.6
							c0.1,0.1,0,0,0.1,0.3c0.1,0.6,0.2,1.4,0.3,2.1c0.1,0.5,0.1,0.8,0.2,1.2c0.1,0.4,0.2,0.9,0.4,1.3c0.3,0.8,0.7,1.6,1.1,2.3
							c0.9,1.4,1.9,2.6,2.9,3.8c1,1.2,2,2.3,2.9,3.4c0.2,0.3,0.4,0.6,0.6,0.9c0.1,0.1,0.2,0.3,0.3,0.4l0.3,0.5l0.3,0.5l0.2,0.4
							c0.1,0.3,0.3,0.6,0.4,0.9c1,2.6,1,5.6,1.4,8.7c0.2,1.5,0.4,3.1,1,4.7c0.5,1.6,1.3,3,2.5,4.2c1.1,1.2,2.3,2.1,3.3,3.1
							c0.9,1,1.6,2.3,2.1,3.7c1,2.7,1.3,5.8,2.2,8.6c-0.2-0.1-0.4-0.3-0.5-0.6c0.1,0.3,0.3,0.6,0.6,0.8l0.1,0.1v-0.2
							c-0.6-3-0.6-6-1.4-9.1c-0.4-1.5-1-3.1-2-4.4s-2.2-2.3-3.1-3.4c-0.9-1-1.5-2.3-1.9-3.7c-0.4-1.3-0.5-2.8-0.7-4.3
							c-0.2-2.9-0.2-6.1-1.2-9.3c-0.1-0.4-0.3-0.8-0.5-1.2l-0.3-0.6l-0.3-0.5l-0.3-0.5c-0.2-0.3-0.2-0.4-0.4-0.6
							c-0.2-0.3-0.5-0.7-0.7-1c-1-1.3-2-2.5-3-3.6s-1.9-2.3-2.6-3.4c-0.3-0.6-0.7-1.2-0.9-1.8c-0.1-0.3-0.2-0.6-0.3-0.9
							c-0.1-0.3-0.2-0.8-0.2-1c-0.1-0.8-0.2-1.4-0.4-2.4c-0.1-0.4-0.4-1.3-0.9-1.7c-0.4-0.4-0.8-0.6-1.1-0.9
							c-0.3-0.2-0.7-0.5-1.1-0.7s-0.8-0.4-1.1-0.5c-0.7-0.3-1.1-0.5-1.5-0.9c-0.9-0.9-1.9-2.2-2.7-3.4c-0.9-1.2-1.7-2.4-2.5-3.7
							l-1.9-3c0-0.1,0-0.1,0.1-0.1c0.1-0.3,0.3-0.8,0.2-1.5c-0.1-0.3-0.2-0.7-0.4-1c-0.2-0.3-0.4-0.6-0.5-0.8
							c-0.1-0.2-0.3-0.5-0.3-0.6c0,0-0.2-0.4-0.1-0.3c0-0.1-0.1-0.2-0.1-0.4c-0.3-1-0.7-2.3-1.2-3.3c-0.1-0.3-0.2-0.5-0.4-0.7
							c0.8,0.5,1.5,1.4,2.1,2.2c0.9,1.1,1.8,2.3,3.1,3.2c0.6,0.4,1.2,0.8,2,1.1c0.7,0.3,1.5,0.5,2.4,0.4s1.6-0.6,2.2-1.1
							s1.1-1.1,1.6-1.6c0.9-1.1,1.8-2.3,2.7-3.3l5.8-6.4c1-1,1.9-2.3,2.7-3.6c0.7-1.3,1.3-2.6,2-3.9c1.2-2.6,2.5-5.1,4.8-6.6
							c2.2-1.6,5-2.7,7.3-4.8c1.2-1.1,2-2.2,2.9-3.3s1.9-2.1,2.9-3.2l6-6.3c1-1.1,2-2,2.9-3.4c0.8-1.3,1.5-2.6,2.2-3.8
							s1.5-2.3,2.4-3.1c0.9-0.7,1.9-0.8,2.9-0.3l1,0.5l0.5-1c0.6-1.2,1.5-2.3,2.5-3.3s2.3-2.1,3.2-3.5c0.5-0.7,0.9-1.5,1.1-2.3
							c0.3-0.8,0.4-1.6,0.6-2.4c0.3-1.6,0.4-3.1,0.7-4.5c0.1-0.7,0.3-1.3,0.6-1.9c0.3-0.5,0.7-1.1,1.1-1.9c0.4-0.7,0.7-1.7,0.9-2.4
							s0.4-1.4,0.6-2.1c0.4-1.4,0.9-2.9,1.5-4.2l0.1-0.2c0,0,0.1-0.1,0.1-0.2c0.1-0.2,0.2-0.4,0.2-0.4c0.1-0.2,0.3-0.5,0.5-0.7
							c0.4-0.5,0.9-0.9,1.5-1.3c1.1-0.8,2.5-1.5,3.8-2.4c0.9-0.7,2.4-1,3.9-1.5c0.7-0.3,1.7-0.6,2.5-1.5c0.6-0.7,1.1-1.5,1.4-2.2
							c0.7-1.4,1.2-2.8,2-3.7c0.9-1,2-2.1,3.1-3.1s2.2-2,3.4-3c2-1.7,4-3.4,5.8-5.4c1.7,1.6,3.4,3.3,4.9,5.1
							c1.8,2.1,3.6,4.2,5.4,6.4c0.8,1.6,1.6,3.1,2.6,4.6c0.5,0.8,1,1.5,1.6,2.3c0.6,0.7,1.2,1.5,1.9,2.2c0.4,0.4,0.7,0.6,1,0.9
							l1,0.9l2,1.7l3.8,3.3c2,4.4,4,8.7,6.1,13c1.1,2.2,2.2,4.4,3.3,6.5c1.2,2.2,2.4,4.3,3.7,6.4c0.7,1,1.5,2.2,2.7,3.1
							c1.2,0.9,2.5,1.4,3.5,1.8c1.1,0.4,2.1,1,2.9,1.5c0.8,0.5,1.3,1.4,2.2,2.5c0.4,0.5,0.9,1.1,1.6,1.5c0.7,0.5,1.5,0.8,2.3,0.9
							h0.1l0,0l0,0h0.1h0.1h0.2c0.2,0,0.3,0,0.5,0c0.4,0,0.9-0.1,1.3-0.2c0.8-0.2,1.5-0.6,2.1-1c1.2-0.9,2-1.8,2.8-2.5
							c0.5-0.4,0.9-0.8,1.4-1c0.6,1.2,1.4,2.3,2.1,3.3c1,1.3,2.1,2.6,3,3.8l0.7,1c0.3,0.4,0.6,0.7,0.9,1.1c0.6,0.7,1.3,1.3,2,1.9
							l2,1.5c0.3,0.2,0.6,0.5,0.9,0.7c0,0,0.1,0.1,0.2,0.2l0.1,0.1l0.3,0.4c0.4,0.6,0.9,1.3,1.4,2s1,1.4,1.6,2.1
							c0.4,0.4,0.6,0.7,1.5,1.1l0.2,0.1h0.1l0,0c-0.2,0,0.3,0,0.2,0l0,0h0.2h0.3c0.2,0,0.7,0,1-0.1c1.2-0.3,1.9-0.8,2.7-1.3
							c1.5-1.1,2.7-2.2,3.9-3.4c0.5-0.5,1.1-1.1,1.6-1.6c0,0.6-0.1,1.2-0.3,1.8c-0.3,1.1-0.8,2-1.2,3.1s-0.7,2.2-0.8,3.4
							s0.2,2.4,0.1,3.3c-0.1,0.4-0.3,0.9-0.5,1.3c-0.1,0.2-0.2,0.5-0.4,0.7c-0.1,0.2-0.3,0.4-0.4,0.6c-0.6,0.9-1.4,1.6-2.1,2.6
							c-0.8,0.9-1.3,2.3-1.6,3.3c-0.3,1.1-0.6,2.1-1,3.2c-0.7,2.1-1.6,4-2.9,5.5c-0.7,0.8-1.3,1.4-2.2,2s-1.8,1-2.9,1.7
							c-2.4,1.6-3.3,4.1-4.2,6.1c-0.5,1-0.9,1.8-1.6,2.7c-0.6,0.9-1.3,1.7-2,2.4c-1.5,1.5-3.3,2.7-5.1,4l-0.3,0.2c-0.1,0.1,0,0,0,0
							l-0.1,0.1l-0.7,0.3l-0.8,0.4c-0.3,0.2-0.6,0.2-1,0.6c-0.1,0.1-0.2,0.2-0.3,0.3l-0.1,0.1l0,0c-0.2,0.3-0.1,0.1-0.1,0.2
							l-0.1,0.2c0,0.1-0.1,0.2-0.1,0.3c-0.1,0.5,0,0.9,0,1.2c0.1,0.4,0.3,0.7,0.4,0.9l-0.2,0.4c-0.5,1-0.9,1.8-1.5,2.5
							s-1.5,1.3-2.4,1.9c-1.8,1.2-3.7,2.3-5.6,3c-0.9,0.3-1.9,0.4-3.1,0.6c-0.6,0.1-1.2,0.2-1.8,0.4c-0.3,0.1-0.6,0.2-1,0.4
							c-0.2,0.1-0.3,0.1-0.4,0.2c-0.2,0.1-0.3,0.2-0.5,0.3c-2.1,1.6-3.2,3.5-5,4.3c-0.3,0.1-0.7,0.4-0.9,0.7
							c-0.3,0.3-0.5,0.6-0.6,0.9c-0.2,0.3-0.3,0.5-0.5,0.9c-0.1,0.4-0.2,0.7-0.2,1.1c-0.1,0.7,0,1.2,0,1.8c0,0.5,0,1.1-0.1,1.3
							c-0.1,0.5-1.3,0.8-2.3,0.8s-2.1-0.1-3-0.5l-0.6-0.3l-0.2,0.5c-0.4,1-0.4,2.1-0.3,3.1c0.1,1,0.2,1.9,0.1,2.8
							c0,0.2-0.1,0.4-0.1,0.6c-0.1,0.2-0.2,0.4-0.3,0.6c-0.2,0.4-0.6,0.7-0.9,1c-0.4,0.3-0.8,0.6-1.1,0.9c-0.1,0.1-0.1,0.1-0.2,0.2
							l-0.1-0.2l-1.4,0.9c-0.9,0.6-1.7,1.6-2.1,2.6c-0.4,1-0.6,1.9-0.8,2.7c-0.1,0.4-0.2,0.7-0.3,1.1c-0.1,0.2-0.1,0.3-0.2,0.5
							l-0.1,0.3c0,0-0.1,0.1-0.1,0.2c-0.4,0.7-0.9,1.3-1.4,2c-1,1.3-2.1,2.6-3.3,3.9l-1.7,2c-0.5,0.6-1.1,1.2-1.7,1.7
							c-2.5,2.2-5.5,3.8-8.3,6c-0.7,0.5-1.4,1.1-2.1,1.6c-0.6,0.5-1.3,1-1.8,1.2s-0.6,0.1-1.1-0.2c-0.5-0.4-0.9-1.1-1.4-1.7l-1-1.1
							l-1.1,1.1c-0.5,0.5-0.9,1-1.2,1.5s-0.6,1-0.9,1.5l-1.7,2.9c-1.1,1.9-2.3,3.9-3.5,5.7c-1.3,1.8-2.6,3.6-4.3,4.8
							c-0.4,0.3-0.8,0.5-1.3,0.7c-0.4,0.2-0.9,0.3-1.3,0.3c-0.4,0-0.9-0.1-1.3-0.2c-0.2-0.1-0.4-0.2-0.6-0.3l-0.6-0.4l-0.8-0.5
							l-0.5,0.7c-1.3,1.7-2,3.5-2.8,5.3c-0.4,0.9-0.8,1.7-1.2,2.5c-0.2,0.4-0.4,0.7-0.7,1.1c-0.3,0.3-0.6,0.7-0.9,1
							c-2.5,2.7-5.6,4.9-8.8,6.9l-0.5,0.3l0.2,0.5c0.7,1.5,1.6,2.7,2.6,4c0.9,1.2,1.9,2.4,2.7,3.6c0.4,0.6,0.8,1.2,1.1,1.9
							c0.3,0.7,0.6,1.3,0.7,2c0.1,0.4,0.1,0.7,0.1,1s-0.1,0.8-0.2,1c-0.2,0.6-0.7,1.2-1.2,1.7c-1.1,1-2.3,1.9-3.5,2.9
							c-0.6,0.5-1.1,1.1-1.7,1.6l-1.6,1.6l-6.5,6.4l6.8-6.1l1.7-1.5c0.6-0.5,1.1-1,1.7-1.5c1.2-0.9,2.4-1.8,3.6-2.8
							c0.6-0.5,1.1-1.1,1.5-1.9c0.1-0.5,0.2-0.7,0.3-1.2c0-0.4,0.1-0.9,0-1.3c-0.1-0.8-0.4-1.6-0.7-2.3c-0.3-0.7-0.7-1.4-1.1-2.1
							c-0.8-1.3-1.7-2.5-2.6-3.8c-0.8-1.1-1.5-2.1-2-3.2c3.1-1.9,6.2-4,8.8-6.7c0.3-0.4,0.7-0.7,1-1.1c0.3-0.3,0.6-0.8,0.9-1.3
							c0.5-0.9,1-1.8,1.4-2.6c0.7-1.5,1.3-2.9,2.2-4.1l0,0c0.3,0.1,0.6,0.3,0.9,0.4c0.6,0.2,1.3,0.4,2,0.3c0.7,0,1.4-0.2,2-0.4
							c0.6-0.3,1.2-0.6,1.7-0.9c2-1.4,3.5-3.3,4.9-5.2c1.4-1.9,2.6-3.8,3.7-5.8l1.8-2.9c0.3-0.5,0.6-0.9,0.9-1.3
							c0.2,0.3,0.5,0.6,0.9,0.9c0.4,0.4,1,0.7,1.7,0.9c0.7,0.2,1.4,0,2-0.2c1.1-0.4,1.8-1,2.5-1.6s1.3-1.1,2-1.6
							c2.7-2,5.7-3.7,8.5-6c0.7-0.6,1.4-1.2,2-1.9l1.7-2c1.1-1.3,2.3-2.6,3.4-4c0.5-0.7,1.1-1.4,1.6-2.3c0.1-0.1,0.1-0.2,0.2-0.3
							l0.1-0.3c0.1-0.2,0.2-0.5,0.3-0.7c0.2-0.5,0.3-0.9,0.4-1.4c0.2-0.8,0.4-1.5,0.6-2c0.4,1.2,0.7,2.4,1.1,3.7
							c0.6,2,1.4,4.2,2.7,6.1c0.3,0.5,0.7,1,1.1,1.4c0.2,0.2,0.4,0.4,0.7,0.7l0.3,0.2l0.4,0.3c1.1,0.7,2.1,1.1,3.1,1.5
							s1.9,0.8,2.7,1.2c0.2,0.1,0.4,0.2,0.6,0.4c0.1,0.1,0.2,0.1,0.2,0.2c0.1,0.1,0.2,0.2,0.3,0.2c0.3,0.2,0.6,0.6,1,1
							c0.7,0.7,1.4,1.6,2.3,2.4c0.5,0.4,1,0.8,1.6,1.1l0.2,0.1l0.1,0.1l0,0h0.1c0.2,0.1,0.5,0.1,0.7,0.1c0.4,0,0.7,0,1,0
							c0.5,0,1.1-0.1,1.3-0.1c0.1,0,0.2,0.1,0.2,0.1c0.1,0.1,0.3,0.2,0.5,0.3c0.7,0.5,1.5,1.1,2.2,1.9c0.7,0.7,1.4,1.5,2.2,2.3
							c0.7,0.8,1.5,1.6,2.5,2.3c0.5,0.4,1,0.7,1.7,1s1.5,0.4,2.4,0.2c0.9-0.3,1.5-0.9,2-1.5c0.1-0.1,0.1-0.2,0.2-0.3
							c0.2,0.1,0.3,0.2,0.5,0.3c0.5,0.4,1,0.8,1.5,1.2c1,0.9,1.9,1.9,2.8,3c1.8,2.1,3.4,4.5,5.3,6.7c0.5,0.6,1,1.1,1.6,1.7
							c0.6,0.5,1.2,1,1.9,1.4c1.2,0.8,2.4,1.5,3.3,2.3l0.2,0.2c0,0,0.1,0.1,0.1,0l0.1,0.1c0.1,0.1,0.3,0.3,0.3,0.4
							c0.2,0.2,0.4,0.5,0.5,0.7c0.3,0.5,0.6,1.1,0.9,1.7c0.6,1.2,1.1,2.6,1.9,4l0.5,0.8l1.4-0.6c0.1,0,0.2-0.1,0.3-0.2
							c0.1,0,0.2-0.1,0.3-0.1s0.2,0,0.4,0c0.1,0,0.3,0.1,0.5,0.2c0.7,0.3,1.4,0.9,2.1,1.5c1.4,1.3,2.6,2.8,4.1,4.3
							c0.8,0.8,1.5,1.4,2.3,2.1l2.2,2l4.5,4l4.5,4c1.5,1.3,3,2.6,4.4,4s2.8,2.8,3.9,4.3c1.2,1.6,2.4,3.2,3.5,4.8
							c0.5,0.8,1,1.7,1.3,2.5c0.2,0.4,0.3,0.8,0.3,1.2c0,0.3,0,0.5,0,0.6s0,0.2,0,0.2c0,0.1,0,0.1-0.1,0.1c0,0.1-0.1,0.1-0.2,0.1
							c-0.1,0-0.3,0.1-0.6,0.1c-0.5,0-1,0-1.6,0.2s-1.3,0.6-1.6,1.2l-0.1,0.1l0,0c0,0,0-0.1-0.1,0.1l0,0l-0.1,0.2
							c0,0.1-0.1,0.2-0.1,0.4c0,0.3-0.1,0.8-0.1,1c0.1,1.2,0.6,2.2,1.2,3.1c0.6,0.9,1.2,1.7,1.9,2.4c0.7,0.8,1.4,1.5,2.2,2.1
							c0.8,0.7,1.6,1.2,2.5,1.8c1.8,1,3.6,1.8,5.3,2.8s3.3,2.2,4.4,3.8c1.1,1.6,2.2,3.3,3.2,5s2,3.5,2.4,5.4c-0.4-2-1.3-3.8-2.2-5.6
							c-1-1.8-2-3.5-3-5.2c-1.1-1.7-2.7-3.1-4.5-4.1c-1.7-1.1-3.5-1.9-5.2-3c-1.7-1-3.1-2.3-4.4-3.8c-0.6-0.7-1.2-1.5-1.7-2.3
							s-0.9-1.7-0.9-2.5c0-0.2,0-0.3,0-0.5c0-0.1,0.1-0.2,0.1-0.3l0.1-0.1l0,0v-0.1c0.2-0.3,0.4-0.5,0.8-0.5
							c0.3-0.1,0.8-0.1,1.3-0.1c0.3,0,0.6,0,0.9-0.1c0.3-0.1,0.8-0.4,1-0.7c0.4-0.7,0.4-1.5,0.4-1.9c0-0.6-0.2-1.2-0.4-1.7
							c-0.4-1-0.9-1.9-1.4-2.8c-1.1-1.8-2.3-3.4-3.5-5c-1.2-1.7-2.6-3.2-4-4.6s-2.9-2.8-4.4-4.1l-4.4-4.1l-4.4-4.1l-2.2-2
							c-0.7-0.7-1.5-1.4-2.1-2c-1.3-1.4-2.6-3-4.1-4.5c-0.8-0.7-1.6-1.4-2.7-2c-0.3-0.1-0.6-0.3-0.9-0.3c-0.3-0.1-0.7-0.1-1.1-0.1
							c-0.2,0-0.5,0.1-0.7,0.1c-0.4-0.8-0.8-1.7-1.2-2.7c-0.3-0.7-0.6-1.4-1.1-2.1c-0.2-0.3-0.4-0.7-0.7-1c-0.2-0.2-0.3-0.3-0.4-0.4
							l-0.1-0.1l-0.1-0.1l-0.2-0.2c-1.2-1.1-2.5-1.8-3.7-2.6c-0.6-0.4-1.1-0.8-1.6-1.2c-0.5-0.4-0.9-0.9-1.3-1.4
							c-1.8-2.1-3.4-4.5-5.3-6.7c-0.9-1.1-1.9-2.2-3-3.3c-0.6-0.5-1.2-1-1.8-1.5c-0.6-0.4-1.3-0.9-2-1.2l-1.3-0.7l-0.6,1.4l-0.3,0.6
							c-0.1,0.2-0.2,0.3-0.3,0.5c-0.2,0.2-0.4,0.4-0.5,0.4s-0.3,0-0.6-0.1s-0.7-0.4-1-0.6c-0.7-0.5-1.4-1.3-2.1-2
							c-0.7-0.7-1.4-1.5-2.2-2.3s-1.6-1.6-2.6-2.3c-0.3-0.2-0.5-0.3-0.8-0.5c-0.2-0.1-0.3-0.1-0.4-0.2h-0.1l-0.1-0.1l-0.2-0.1
							c-0.2,0-0.2-0.1-0.3-0.1s-0.2,0-0.2,0c-0.8,0-1.2,0.1-1.7,0.1c-0.2,0-0.4,0-0.5,0s0,0-0.1,0h-0.1l0,0l-0.1-0.1
							c-0.3-0.1-0.6-0.4-1-0.7c-0.7-0.6-1.3-1.4-2.1-2.2c-0.4-0.4-0.7-0.8-1.3-1.2l-0.3-0.3c-0.2-0.1-0.3-0.2-0.4-0.3
							c-0.3-0.2-0.5-0.3-0.8-0.5c-1-0.6-2.1-1-3.1-1.4s-1.9-0.8-2.6-1.2l-0.2-0.1l-0.3-0.2l-0.4-0.4c-0.3-0.3-0.6-0.6-0.8-1
							c-1-1.5-1.7-3.4-2.4-5.4c-0.6-2-1.1-4-2-6.1l-0.5-1.1c0.1-0.1,0.2-0.2,0.3-0.2c0.4-0.3,0.8-0.5,1.2-0.8s0.8-0.6,1.1-1
							c0.2-0.2,0.3-0.5,0.4-0.7c0.1-0.2,0.2-0.5,0.2-0.8c0.2-1,0.2-2,0.2-2.9c0-0.7,0-1.4,0.2-2c1,0.4,1.9,0.6,2.9,0.7
							c0.6,0,1.2,0,1.9-0.2c0.6-0.2,1.4-0.5,1.9-1.3c0.4-0.8,0.4-1.4,0.4-2s0-1.1,0.1-1.6s0.2-0.7,0.5-1.2c0.1-0.2,0.3-0.4,0.4-0.5
							c0.1-0.1,0.2-0.2,0.5-0.3c2.4-1,3.8-3.2,5.4-4.2c0.1,0,0.2-0.1,0.3-0.1c0.1-0.1,0.3-0.1,0.3-0.2c0.2-0.1,0.4-0.2,0.6-0.2
							c0.4-0.1,0.9-0.2,1.5-0.3c1-0.1,2.3-0.2,3.5-0.6c2.4-0.7,4.4-1.9,6.4-3.1c0.5-0.3,1-0.6,1.5-1s1-0.8,1.4-1.3
							c0.9-0.9,1.6-2.2,2.1-3.2l0.4-0.8v-0.1l0,0l0,0l0.1-0.3v-0.1l0,0v-0.2c0-0.3,0-0.6,0-0.6c-0.1-0.4-0.2-0.6-0.3-0.7l0.6-0.3
							l0.8-0.4l0.3-0.1c0.1,0,0.3-0.2,0.3-0.2l0.3-0.2c1.9-1.3,3.8-2.6,5.5-4.3c0.8-0.9,1.6-1.8,2.3-2.8c0.7-0.9,1.4-2.1,1.8-3.2
							c0.5-1.1,0.9-2.1,1.4-2.9c0.5-0.9,1-1.6,1.8-2.1c0.7-0.5,1.9-1.1,2.9-1.8c1-0.7,2-1.6,2.7-2.5c1.6-2,2.4-4.2,3.1-6.5
							c0.3-1.1,0.6-2.2,0.9-3.3c0.2-1.1,0.5-1.9,1.1-2.8s1.3-1.7,2-2.8c0.2-0.3,0.3-0.5,0.5-0.8c0.1-0.2,0.3-0.5,0.4-0.8
							c0.2-0.6,0.5-1.2,0.5-1.9c0.1-0.7-0.1-1.3-0.2-1.8c-0.1-0.5-0.2-1.1-0.2-1.6c0-1.1,0.1-2.1,0.5-3.2c0.3-1.1,0.8-2.1,1-3.3
							c0.2-0.8,0.2-1.5,0.1-2.3l0.1-0.1c0.4,0.7,0.8,1.3,1.3,1.8c0.9,1.1,1.9,2.1,3,3c1,0.9,2.2,1.8,3.4,2.5
							c1.3,0.7,2.6,1.2,3.7,1.7c1.2,0.5,2.3,1,3.2,1.7c1,0.8,2,1.6,3,2.5s2,1.8,3,2.7c1.1,0.9,2.1,1.6,2.9,2.5
							c0.9,0.9,1.6,1.8,2.2,2.9c0.6,1.1,1.1,2.3,1.6,3.5s1,2.5,1.6,3.7s1.2,2.5,1.9,3.7c2.8,4.7,6.3,8.7,8.6,13.3l0.5,1l1-0.4
							c2.4-0.9,3.9-2.6,5.4-3.9c0.7-0.7,1.5-1.3,2.2-1.8c0.7-0.4,1.7-0.8,1.8-0.6c0.6,0.2,1.4,1,2.7,1.5c0.4,0.1,0.7,0.2,1.2,0.2
							h0.3c0,0,0.3,0,0.2,0l0,0h0.1c0.1,0,0.2,0,0.4-0.1s0.4-0.2,0.6-0.2l0.4-0.2c0.3-0.2,0.5-0.3,0.7-0.5c0.9-0.7,1.6-1.4,2.4-2.1
							c0.7-0.6,1.5-1.2,1.9-1.2h0.1l0,0c-0.1,0,0,0,0,0h0.1c0.1,0,0.3,0,0.3,0h0.1c0,0.1,0.1,0.4,0.2,0.8c0.1,0.4,0.3,0.8,0.6,1.1
							c0.3,0.3,0.7,0.5,1,0.7c0.4,0.2,0.6,0.2,0.8,0.3c0.2,0.1,0.6,0.2,0.8,0.3c2.2,0.6,4.3,0.6,6.2,0.9s3.4,1.1,5,2.4
							C713.7,287.4,715,288.9,716.4,290.4z M1025.6,338.1c0.1,0.1,0.2,0.1,0.3,0.2c0,0.1,0,0,0,0s-0.1,0-0.2,0
							c-0.1-0.2-0.3-0.3-0.4-0.5C1025.4,337.9,1025.5,338,1025.6,338.1z M151.7,349.9L151.7,349.9L151.7,349.9z M197.5,370.3
							c-0.3-0.3-0.7-0.5-1-0.8c-0.8-0.5-1.5-1-2.3-1.5l-0.9-0.5l-0.8,0.7c-1.8,1.7-3.7,3.4-5.6,5.1c-1.9,1.7-3.8,3.4-5.8,4.8
							c-3.5,2.5-7.5,4.1-11.6,6.1c-0.9-1-1.6-2.2-2.4-3.4c-0.4-0.7-0.9-1.3-1.5-1.9s-1.2-1.1-1.7-1.6s-1-1.2-1.1-1.6
							c-0.2-0.6,0-1.2,0.1-2c0.2-0.7,0.4-1.6,0.2-2.6v-0.2c0,0,0,0,0-0.1v-0.1l-0.1-0.3c-0.1-0.2-0.1-0.5-0.2-0.7
							c-0.2-0.4-0.4-0.8-0.6-1.2c-1-1.5-2.2-2.5-3.1-3.7c-0.1-0.1-0.2-0.3-0.3-0.4l-0.3-0.5c-0.2-0.3-0.4-0.5-0.4-0.8
							c-0.1-0.3-0.1-0.4-0.1-0.6s0.1-0.5,0.3-0.9c0.3-0.8,0.5-1.7,0.5-2.6c0-0.8,0.1-2-0.7-3.1c-0.4-0.5-0.9-0.8-1.2-1
							s-0.4-0.3-0.6-0.5c0,0-0.1-0.2-0.1-0.1l-0.1-0.3c-0.1-0.2,0-0.1-0.1-0.3c-0.1-0.2-0.1-0.5-0.1-0.8c0-0.6,0-1.4,0-2.4
							c0-0.5-0.1-1-0.4-1.6c-0.3-0.7-0.4-0.8-0.8-1.3c0-0.1-0.2-0.2-0.3-0.3c-0.2-0.1-0.3-0.2-0.7-0.3c-0.2,0-0.4,0-0.5,0h-0.1H153
							c-0.1,0,0,0-0.2-0.1c-0.4-0.1-0.6-0.1-0.9-0.1c-0.1,0-0.2,0-0.3,0.1c0-0.3,0-0.6,0.1-0.9l0.1-0.6c0-0.1,0-0.2,0-0.5v-0.4
							c0-0.4-0.1-0.8-0.2-1.3c-0.1-0.4-0.2-0.9-0.3-1.3c-0.5-1.8-1.7-3.3-2.8-4.5l-1.7-1.7c-0.6-0.6-1.3-1.1-1.9-1.6
							c-1.3-1-2.5-1.8-3.3-2.9c-0.9-1-1.6-2.3-2.3-3.7c-0.7-1.3-1.3-2.8-1.9-4.2l-0.6-1.5l-1.3,1c-0.5,0.4-0.8,0.8-1,1.1l-0.5,0.8
							c-0.1,0.1-0.2,0.2-0.2,0.3c-0.3-0.2-0.7-0.6-1-1c-0.4-0.5-0.8-1-1.2-1.6c-0.4-0.5-0.8-1-1.2-1.6l-1.1-1.7
							c-0.4-0.6-0.8-1.1-1.2-1.7c-0.4-0.5-0.9-1.1-1.4-1.6l-1.4-1.5c-0.4-0.5-1-1-1.4-1.5c-0.5-0.6-1-1.1-1.6-1.5s-1.1-0.7-1.5-1.2
							c-0.4-0.4-0.8-1-1.2-1.5c-0.4-0.6-0.7-1.1-1.1-1.7c-0.3-0.6-0.6-1.2-0.9-1.8c-0.1-0.3-0.3-0.7-0.4-1.1l0,0l1.9,1.1
							c0.9,0.5,1.9,1.1,3.1,1.4c0.6,0.2,1.2,0.3,1.9,0.3c0.7,0,1.3-0.1,1.9-0.3c0.6-0.2,1.2-0.4,1.7-0.7c0.2-0.1,0.4-0.2,0.6-0.4
							c2.3,1.4,4.8,2.4,6.8,3.5c0.6,0.4,1.1,0.6,1.7,1.1c0.6,0.4,1.3,0.9,2,1.2c0.7,0.4,1.4,0.6,2,0.9c0.7,0.3,0.9,0.4,1.5,0.9
							c0.3,0.2,0.6,0.5,1,0.8c0.2,0.1,0.5,0.3,0.6,0.3c0.3,0.1,0.6,0.2,0.9,0.3c1.1,0.1,1.6,0,1.8,0.2c0.4,0.2,1,0.6,1.5,1
							s1,0.8,1.5,1.3c1,1,1.8,1.7,2.3,3c0.5,1.2,1.2,2.9,2.6,4.1c1.3,1.1,2.7,1.7,4,2.3c1.3,0.6,2.6,1.1,3.7,1.7
							c1.1,0.6,2,1.5,3,2.6c0.9,1,1.8,2.2,2.9,3.2c1.2,1.1,2.4,1.9,3.6,2.7l3.6,2.4c1.2,0.8,2.3,1.6,3.5,2.5
							c1.2,0.8,2.5,1.3,3.7,1.9c0.3,0.6,0.6,1,0.9,1.5l1.1,1.6l2.3,3.2l4.6,6.3l4.6,6.3l2.3,3.2l1.1,1.6c0.1,0.2,0.2,0.4,0.4,0.5
							C198.9,368.6,198.2,369.4,197.5,370.3z M253.2,294.7c-0.7,1.7-0.6,3.5-1,5c-0.3,1.5-1.5,2.5-3,3.2c-1.4,0.7-3.1,1.2-4.7,1.9
							c-1.6,0.8-3,1.7-4.4,2.7s-2.8,2.1-4,3.2s-2.5,2.1-3.9,3l-4.3,2.7c-1.4,0.9-2.9,2-4.2,3.3c-0.3,0.3-0.7,0.8-0.9,1.1
							c-0.3,0.4-0.5,0.8-0.7,1.2c-0.4,0.8-0.8,1.6-1.1,2.4c-0.7,1.6-1.3,3.1-2.1,4.4c-0.7,1.2-2,2.5-2.9,4.2s-1.2,3.6-1.5,5.2v0.1
							v0.1c0,0.3-0.3,0.8-0.6,1.3c-0.2,0.2-0.3,0.4-0.5,0.6c-0.1,0.1-0.2,0.1-0.2,0.2l0,0c0,0,0.1,0,0.2,0l-1.2,0.8
							c-0.6,1.5-1.2,3.1-1.6,4.8c-0.3,1.7-0.4,3.3-0.5,4.8l-0.4,1.4l-0.5,1.4c-0.4,0.9-0.8,1.8-1.3,2.8c-0.5,0.9-1,1.8-1.6,2.6
							c-0.6,0.9-1.2,1.7-1.8,2.6c-1.5,2.1-3.2,4-4.9,6c-0.1-0.2-0.2-0.4-0.3-0.5l-1-1.7l-2.1-3.3l-4.3-6.5l-4.3-6.5l-2.1-3.3l-1-1.6
							c-0.3-0.5-0.7-1.2-0.9-1.6l-0.1-0.3l-0.3-0.1c-1.3-0.6-2.5-1.2-3.6-2c-1-0.8-2.3-1.8-3.4-2.6l-3.5-2.5
							c-1.2-0.8-2.4-1.6-3.2-2.5c-0.9-0.9-1.8-2.1-2.8-3.2s-2.1-2.2-3.4-3.1c-2.6-1.7-5.5-2.3-7.4-3.9c-0.9-0.7-1.3-1.7-1.8-3.2
							c-0.3-0.7-0.7-1.5-1.2-2.1c-0.5-0.7-1.1-1.2-1.6-1.7c-0.6-0.5-1.1-1-1.7-1.5c-0.6-0.5-1.2-0.9-2.1-1.3
							c-1.2-0.5-2.1-0.3-2.4-0.4c-0.1,0-0.2,0-0.2,0c-0.1-0.1-0.2-0.1-0.2-0.1c1.1-0.9,2-1.9,2.8-3c1.1-1.4,2.1-2.9,3.3-4.1
							c2.4-2.5,5.8-3.8,8.6-6.3c0.7-0.6,1.4-1.3,1.9-2.1c0.5-0.8,1-1.6,1.3-2.7c0.3-1,0.1-2.2,0.1-2.9c0-0.3,0-0.6,0.2-0.8
							c0.1-0.2,0.4-0.5,0.6-0.8c0.2-0.2,0.6-0.5,0.9-0.8c0.4-0.4,0.8-0.7,1.1-1l1.9-1.9c0.3-0.3,0.6-0.6,0.9-0.9
							c0.2-0.1,0.3-0.3,0.4-0.4l0.1-0.1c0.1,0.1,0.2,0.2,0.4,0.4c0.2,0.1,0.3,0.2,0.7,0.2s0.1,0,0.5,0l0.7-0.1
							c1.9-0.3,3.7-0.7,5.6-1.6c0.4-0.2,0.9-0.5,1.4-0.9l0.3-0.2c0.2-0.1,0.2-0.2,0.3-0.3c0.2-0.2,0.4-0.4,0.5-0.6
							c0.7-0.8,1.2-1.6,1.6-2.4c0.5-0.7,0.9-1.3,1.4-1.7c0.4-0.3,1.3-0.8,2.1-1.1c1.6-0.8,3.3-1.5,4.9-2.5c0.4-0.3,0.8-0.5,1.2-0.8
							s0.8-0.6,1.2-0.9c0.7-0.6,1.3-1.2,2-1.8c0.6-0.5,1.3-0.9,1.7-1.1l0,0c0,0,0,0.1,0.1,0.1c0.2,0.3,0.5,0.6,0.8,0.7
							c0.3,0.2,0.6,0.2,0.8,0.2c0.4,0,0.9,0,1-0.1h0.1h0.1h0.1l0.3-0.1c0.2-0.1,0.3-0.1,0.5-0.2c0.6-0.3,1-0.6,1.4-0.9
							c0.8-0.6,1.5-1.2,2-1.6c0.7-0.5,1.6-1,2.4-1.8c0.4-0.4,0.7-0.9,1-1.3c0.4,0.3,0.9,0.8,1.3,1.3c0.8,0.9,1.5,1.8,2.1,2.9
							c0.7,1,1.3,2.1,2,3.1c0.7,1.1,1.5,2.2,2.4,3.2s1.9,1.8,3,2.6c1.1,0.8,2.2,1.4,3.4,2c2.3,1.2,4.7,2.1,7,3
							c2.4,0.8,4.8,1.6,7.1,2.4l7,2.7c4.4,1.7,8.8,3.8,12.4,6.9C253.5,294.1,253.3,294.4,253.2,294.7z M414.5,211.3L414.5,211.3
							L414.5,211.3C414.4,211.3,414.5,211.3,414.5,211.3z"/>
						<path class="st2" d="M213.2,340.5L213.2,340.5C213.1,340.5,213.1,340.5,213.2,340.5z"/>
						<path class="st2" d="M1137,368.4c-0.6-0.8-1.4-1.3-2.3-1.7c-0.8-0.4-1.6-0.9-2.2-1.7c-1.2-1.4-1.9-3.2-3.1-4.7l-3.5-4.4
							c-1.2-1.5-2.5-2.9-3.6-4.3c-0.6-0.7-1.1-1.5-1.6-2.3s-0.9-1.6-1.3-2.5c-0.4-0.8-0.9-1.7-1.5-2.5c-0.3-0.4-0.6-0.7-1.1-1.1
							c-0.1-0.1-0.4-0.2-0.7-0.2c-0.2,0-0.3,0.1-0.4,0.1c-0.2,0.1-0.4,0.1-0.6,0.2c-0.9,0.1-1.6-0.1-2.1-0.7c-0.6-0.6-1-1.4-1.6-2.3
							c-1.1-1.6-2.6-2.9-4.2-4s-3.2-2.1-4.8-3l-4.9-2.8c-1.6-0.9-3.2-1.9-4.7-2.9c-1.5-1.1-2.9-2.2-3.9-3.6
							c-0.2-0.4-0.5-0.8-0.7-1.2c-0.3-0.5-0.5-0.9-0.8-1.3c-0.6-0.8-1.2-1.5-1.9-2.2c-2.6-2.8-5.5-5.3-8.4-7.7l-0.6-0.5l-0.6,0.5
							l-4.7,3.9c-1.6,1.3-3.2,2.6-4.7,3.7c-0.7,0.5-1.6,1-2.5,1.4s-1.8,0.8-2.7,1.2c-1.9,0.8-3.7,1.4-5.6,2
							c-1.9,0.5-3.8,0.9-5.8,1.1s-4.2,0.3-6.2,1c-1,0.3-2,0.8-3,1.3c-0.5,0.2-0.9,0.5-1.4,0.7c-0.5,0.3-0.9,0.6-1.4,0.8
							c-1.8,1.1-3.4,2.5-5,3.9c-3.1,2.8-5.7,5.9-8.8,8.3c-0.8,0.6-1.6,1.1-2.4,1.5c-0.4,0.2-0.9,0.4-1.4,0.7l-1.4,0.7
							c-1.9,0.9-3.7,1.9-5.4,3c-1.8,1-3.5,2.1-5.3,3c-1.8,1-3.5,1.9-5.3,2.6s-3.7,1.2-5.5,1.3c-1.9,0.1-3.7-0.1-5.4-0.8l-1-0.4
							l-0.6,0.8c-1.4,2-3.8,3.3-6.4,4.3c-2.6,1-5.3,1.8-8.1,3.1c-5.4,2.8-9.3,7.3-13.8,10.4c-2.2,1.6-4.6,2.6-7.3,3.1
							c-2.7,0.6-5.6,0.7-8.6,1.8c-3,1.2-5.3,2.9-7.7,4.6c-2.3,1.7-4.6,3.4-6.9,4.7c-5,2.6-10.2,5.2-15.3,7.7s-10.3,4.9-15.5,7.2
							c-5.2,2.3-10.5,4.5-15.8,6.4c-5.3,2-10.8,3.7-16.2,5.1l-4.2,1c-1.3,0.3-2.6,0.4-4,0.5c-2.8,0.1-5.6-0.2-8.6,0
							c-1.5,0.1-3,0.3-4.5,0.7c-1.5,0.4-3,1-4.2,1.8c-2.5,1.5-4.7,3.2-7.3,4.1c-5,2.1-10.9,2.1-16.6,3.7c-5.8,1.6-10.6,5.1-15.4,8.1
							c-2.4,1.5-4.8,3-7.3,4.1c-2.6,1.2-5.2,2-8,2.6c-5.5,1.3-11.2,1.9-16.8,2.7c-5.9,0.8-11,3.8-16.5,5c-2.7,0.6-5.6,0.6-8.5,1.2
							c-1.4,0.3-2.9,0.7-4.2,1.5c-1.2,0.7-2.3,1.7-3.1,2.8c-2.3-0.4-4.7-1.1-7-1.7c-1.2-0.3-2.4-0.6-3.7-0.9
							c-1.2-0.2-2.5-0.4-3.8-0.4c-2.6,0.2-4.9,1.4-7,2.7c-2.1,1.3-4.2,2.8-6.5,3.7c2.3-0.9,4.4-2.3,6.6-3.6c2.1-1.2,4.4-2.4,6.9-2.4
							c2.4,0,4.9,0.7,7.2,1.4c2.4,0.7,4.8,1.5,7.3,1.9h0.2l0.1-0.2c1.5-2.3,4.2-3.6,6.9-4c2.8-0.5,5.6-0.4,8.5-1
							c5.7-1.1,10.9-4,16.4-4.6c5.6-0.7,11.4-1.2,17-2.5c2.8-0.6,5.6-1.5,8.3-2.6c2.7-1.2,5.2-2.7,7.6-4.2c4.9-3,9.6-6.2,14.9-7.7
							c5.3-1.5,11.2-1.3,16.9-3.6c2.8-1.1,5.3-2.8,7.7-4.2c1.2-0.7,2.3-1.2,3.6-1.5s2.6-0.5,4-0.6c2.7-0.2,5.6,0.1,8.5,0
							c1.5,0,3-0.2,4.5-0.5l4.2-1c5.6-1.4,11.1-3.2,16.5-5.1c5.4-2,10.7-4.1,16-6.4s10.5-4.7,15.6-7.2c5.2-2.5,10.3-5,15.4-7.6
							c2.7-1.5,5-3.2,7.3-4.9c1.1-0.8,2.3-1.6,3.4-2.4c1.1-0.7,2.4-1.4,3.5-1.9c2.4-0.9,5.2-1.1,8.2-1.7c1.5-0.3,2.9-0.7,4.4-1.4
							c0.7-0.3,1.4-0.7,2.1-1.1c0.6-0.3,1.3-0.8,1.9-1.2c4.9-3.4,8.6-7.9,13.4-10.3c2.3-1.1,5.1-1.9,7.9-3c2.4-1,5-2.3,6.9-4.5
							c1.8,0.5,3.7,0.8,5.6,0.6c2.2-0.1,4.3-0.8,6.3-1.5c2-0.8,3.8-1.7,5.7-2.7c1.8-1,3.6-2.1,5.3-3.1s3.5-2,5.2-2.9l1.4-0.7
							c0.5-0.2,0.9-0.4,1.4-0.7c1-0.6,1.9-1.1,2.7-1.8c3.4-2.6,6.1-5.8,9-8.5c1.4-1.4,3-2.6,4.6-3.7c0.4-0.3,0.8-0.5,1.2-0.8
							c0.4-0.2,0.9-0.5,1.3-0.7c0.8-0.4,1.7-0.8,2.6-1.1c1.8-0.6,3.7-0.8,5.8-1c2.1-0.2,4.1-0.6,6.2-1.2c2-0.6,3.9-1.3,5.8-2.1
							c1-0.4,1.9-0.8,2.8-1.3s1.9-0.9,2.8-1.6c1.7-1.3,3.2-2.6,4.8-3.9l4.1-3.5c2.7,2.2,5.4,4.5,7.7,6.9c0.6,0.7,1.2,1.4,1.8,2.1
							c0.3,0.4,0.5,0.7,0.7,1.1c0.3,0.5,0.5,0.8,0.8,1.2c1.2,1.7,2.8,2.9,4.4,4s3.2,2,4.9,2.9l5,2.7c1.6,0.9,3.3,1.8,4.8,2.9
							s2.9,2.2,4,3.7c0.5,0.7,1,1.6,1.7,2.3c0.4,0.4,0.9,0.7,1.4,0.9c0.5,0.2,1.1,0.1,1.6,0.1c0.5-0.1,1.2-0.4,1-0.3
							c0.2,0.2,0.6,0.6,0.9,0.9c0.6,0.7,1,1.5,1.5,2.3s0.9,1.7,1.4,2.5s1.1,1.6,1.7,2.3c1.2,1.5,2.5,2.8,3.7,4.3l3.6,4.4
							c1.2,1.4,2,3.2,3.2,4.6c1.2,1.6,3.5,1.7,4.6,3.2s1.8,3.3,3.1,4.7C1138.8,371.8,1138.2,370,1137,368.4z"/>
						<path class="st2" d="M500.9,271.5c0.8,0.5,1.3,1,1.8,1.6c0.4,0.5,0.9,1.3,1.2,2.1l1.1,2.6c0.4,1,0.9,1.7,1.2,2.5
							c0.3,0.8,0.6,1.6,0.8,2.5c0.4,1.7,0.7,3.6,1.1,5.5c0.2,0.9,0.5,2,1,2.9s1.2,1.7,2,2.4c0.7,0.7,1.4,1.2,2.1,1.9
							c0.3,0.3,0.6,0.6,0.9,1c0.1,0.2,0.3,0.4,0.4,0.6c0.1,0.1,0.2,0.4,0.4,0.5c0.9,1.5,1.6,3.3,2.3,5c0.6,1.7,1.2,3.5,1.9,5.3
							c-0.7-3.7-1.3-7.4-3-11c-0.1-0.2-0.2-0.4-0.3-0.7c-0.1-0.2-0.2-0.4-0.4-0.6c-0.3-0.4-0.6-0.8-0.9-1.2c-0.6-0.8-1.3-1.4-2-2.1
							c-0.6-0.7-1.1-1.3-1.4-2c-0.4-0.7-0.5-1.5-0.7-2.4c-0.3-1.8-0.4-3.7-0.8-5.6c-0.2-1-0.5-1.9-0.9-2.9s-0.9-1.9-1.1-2.6
							c-0.3-0.8-0.6-1.7-1-2.6s-0.9-1.8-1.6-2.8c-0.6-0.8-1.6-1.6-2.4-2.1c-0.3-0.2-0.6-0.4-0.9-0.6l0.4-0.4l-0.4-0.9
							c-0.1-0.3-0.4-0.5-0.6-0.7s-0.3-0.2-0.5-0.3c-0.3-0.1-0.5-0.1-0.6-0.2c-0.3,0-0.6,0-0.8,0h-0.6h-0.2l0,0h0.1l-1.7,0.4
							c-1.2,1.6-2.2,3.2-3.2,4.6c-0.5,0.7-1.1,1.3-1.7,1.8c-0.7,0.5-1.3,1-2.1,1.5l-2.4,1.4c-0.8,0.5-1.7,1.1-2.5,1.9
							s-1.4,1.7-1.8,2.6c-0.4,1-0.7,1.8-1,2.7c-0.6,1.7-1.3,3.4-2.1,5.1c-0.4,0.8-0.8,1.7-1.2,2.5c-0.4,0.8-0.9,1.6-1.3,2.4
							c-0.5,0.8-1,1.5-1.5,2.2s-1.2,1.4-1.8,2c-0.7,0.6-1.4,1.2-2.1,1.7l-1.2,0.7l-1.3,0.5c-0.3-0.1-0.4-0.4-0.3-0.7
							c-0.1,0.1-0.1,0.3,0,0.5c0,0.2,0.2,0.3,0.3,0.4l0,0l0,0l1.4-0.3c0.4-0.2,0.9-0.3,1.3-0.5c0.9-0.4,1.7-0.9,2.5-1.5
							s1.5-1.2,2.1-1.9c0.7-0.7,1.3-1.4,1.9-2.2c2.3-3.1,4-6.5,5.5-10c0.4-0.9,0.7-1.7,1.1-2.5c0.4-0.7,0.8-1.4,1.4-1.9
							c1.1-1.1,2.8-1.8,4.5-2.7c0.8-0.4,1.8-1,2.5-1.7c0.8-0.7,1.5-1.4,2.1-2.2c1-1.2,1.7-2.5,2.5-3.6l0.2,0.3
							C499.3,270.4,500.2,271,500.9,271.5z"/>
					</g>
				</g>
			</g>
		</g>
	</g>
</g>
</svg>
