<?xml version="1.0" encoding="utf-8"?>
<!-- Generator: Adobe Illustrator 21.0.0, SVG Export Plug-In . SVG Version: 6.00 Build 0)  -->
<svg version="1.1" id="Layer_1" xmlns="http://www.w3.org/2000/svg" xmlns:xlink="http://www.w3.org/1999/xlink" x="0px" y="0px"
	 viewBox="0 0 52.6 27.4" style="enable-background:new 0 0 52.6 27.4;" xml:space="preserve">
<style type="text/css">
	.st0{fill:#FFFFFF;}
</style>
<g>
	<g>
		<path class="st0" d="M30.4,8.3h0.9l-0.2,1l-0.2,0.8c-0.2,1-0.4,1.7-0.5,2.1c-0.1,0.4-0.3,0.7-0.5,1c-0.4,0.3-0.8,0.6-1.2,0.8
			c-0.3,0.1-0.4,0.2-0.5,0.2c-0.1,0-0.2,0.1-0.2,0.1c-0.2,0.3-0.4,0.8-0.5,1.5c-0.2,0.7-0.2,1.4-0.2,2l0.1,1c0,0.4,0.1,0.6,0.2,0.7
			l0.4,0c0.2,0,0.7-0.3,1.4-0.6l1-0.5l0.2,0.5l-0.8,0.6l-1.1,0.9c-0.4,0.3-0.8,0.6-1.1,0.8c-0.3,0.2-0.6,0.3-0.8,0.3
			c-0.3,0-0.5-0.1-0.6-0.4C26,20.8,26,20.6,26,20.4c0-0.2,0-0.5,0-0.9c0-2.2,0.3-3.8,0.8-4.9c0.5-1.1,0.9-1.9,1.2-2.3
			c0.2-0.4,0.6-1,1-1.6l0.8-1.3L30.4,8.3z"/>
		<path class="st0" d="M33,15.4l-0.4-0.5l0.3-0.2c0.8-0.5,1.4-1,1.9-1.4l0.7,0.4l-0.9,1.4l-0.8,1.7c-0.1,0.4-0.3,0.7-0.3,1
			c-0.1,0.3-0.1,0.5-0.1,0.7l0,0.1l0.1,0c0.2,0,0.6-0.3,1.2-0.8l0.3-0.3l0.3,0.3l-1.1,1.1l-1,0.8c-0.4,0.3-0.7,0.4-0.9,0.4
			c-0.1,0-0.3-0.1-0.4-0.2c-0.1-0.1-0.1-0.3-0.2-0.5l0.1-0.5c0.1-0.3,0.1-0.5,0.1-0.7c0.1-0.3,0.2-0.5,0.2-0.6
			C32.3,17.2,32.6,16.4,33,15.4z M32.1,9.9l1.5-0.9c0.1,0.6,0.3,1,0.5,1.3c0.3,0.3,0.7,0.5,1.3,0.6L35,11.6l-0.5,0.1H34
			c-0.6,0-1-0.1-1.3-0.3C32.4,11.1,32.2,10.6,32.1,9.9z"/>
		<path class="st0" d="M36,15.9l1-1.5c0.3-0.5,0.6-0.7,0.8-0.7c0.3,0,0.5,0.2,0.6,0.6l0.4,2.7c0,0.2,0.1,0.3,0.2,0.4
			c0.1,0,0.5-0.3,1-0.9l0.4-0.5l0.4-0.5c0.8-1,1.4-1.6,1.7-1.9l0.2-0.1c0.2,0,0.3,0.2,0.3,0.6c0,0.9-0.4,2.1-1.2,3.7l-1.5,2.8
			c-0.8,1.4-1.2,2.3-1.4,2.9l-0.3,1l-0.1,0.6l0.3-0.3l1.5-1.4l1.4-1.3l0.3,0.4l-2.3,2.5c-1.1,1.3-1.8,1.9-2.2,1.9
			c-0.2,0-0.4-0.1-0.4-0.4c0-0.3,0.1-1,0.4-1.9c0.3-0.9,0.7-1.9,1.1-2.8l1.4-2.8c0.7-1.5,1.1-2.4,1.1-2.9V16l-0.4,0.5L40.4,17
			l-1.1,1.3c-0.2,0.3-0.4,0.6-0.7,0.8c-0.2,0.2-0.5,0.3-0.8,0.3c-0.3,0-0.4-0.1-0.5-0.2l-0.1-0.5l-0.1-0.8L37,16.9
			c0-0.3-0.1-0.6-0.2-1H36z"/>
		<path class="st0" d="M48.5,16.1l-0.4,0.5l-1.8,1.9l-1.7,1.9c-0.3,0-0.5,0-0.7,0l-0.5,0.1c0.4-1.4,0.7-2.4,1-3.1
			c0.3-0.7,0.8-1.4,1.4-2.1c0.6-0.7,1.3-1.4,2.1-1.9c0.8-0.5,1.4-0.8,1.8-0.8c0.3,0,0.6,0.2,0.9,0.5l-0.9,1l0,0l0.2-0.1l0.7-0.2
			c0.1,0,0.2,0.1,0.2,0.2c0,0.2-0.1,0.7-0.4,1.4l-0.4,1.1l-0.5,1.9c-0.1,0.5-0.2,1-0.2,1.2c0,0.2,0.1,0.3,0.2,0.3
			c0.2,0,0.8-0.3,1.6-1l0.3,0.3l-0.8,0.7l-1.1,0.7c-0.5,0.3-1,0.5-1.5,0.5c-0.2,0-0.3-0.2-0.3-0.5c0-0.2,0-0.3,0-0.4
			c0-0.3,0.1-0.5,0.1-0.8c0-0.3,0.1-0.7,0.2-1.3l0.3-1.3L48.5,16.1L48.5,16.1z M48.9,14.6c-0.8,0-1.5,0.2-2,0.7
			c-0.4,0.5-0.8,0.9-1,1.5c-0.3,0.5-0.5,1.1-0.6,1.8l0,0l2-2l0.9-1L48.9,14.6z"/>
	</g>
	<g>
		<g>
			<path class="st0" d="M14.6,5.3c3,0.2,5.3,0.9,7,2.2c-0.6,0.1-1.1,0.1-1.4,0.1c-1.6,0.2-2.4,0.2-2.5,0.2h0c-1.6,0-3.1-0.9-4.3-2.6
				h0.6C14,5.3,14.2,5.3,14.6,5.3z"/>
			<path class="st0" d="M21.1,5.9c-2-1.5-4.3-2.5-6.9-2.8c-0.3,0-0.8-0.1-1.5-0.1H11L9.2,3.1v2.4l1.1-0.1c0,0,0.1,0.1,0.4,0.4
				c0.4,0.5,0.8,0.9,1.3,1.3c0.5,0.3,0.9,0.6,1.2,0.8c0.3,0.1,0.5,0.3,0.7,0.3c0.5,0.2,1.1,0.4,1.8,0.5c0.6,0,1,0.1,1.2,0.1h1.9
				l2.9-0.2c0.2,0,0.4,0,0.6,0c0.2,0,0.3,0.1,0.6,0.3c0.5,0.3,0.9,1.1,1.3,2.3c0,0.2,0.1,0.4,0.1,0.7c0,0.5-0.1,1-0.4,1.7
				c-0.3,0.9-1,1.8-2.1,2.8c-1,1-2,1.7-2.9,2.1c-0.5,0.2-0.9,0.3-1.2,0.3c-0.5,0-0.7-0.3-0.7-0.7c0-0.6,0.4-1.5,1.1-2.7
				c0.7-1.2,1.1-1.9,1.2-2.3c0.2-0.4,0.2-0.8,0.2-1.2c0-0.9-0.5-1.6-1.5-1.9c-0.4-0.1-0.7-0.2-1-0.2c-0.8,0-1.5,0.3-2.1,1
				c-0.5,0.7-0.8,1.5-0.8,2.4c0,0.3,0,0.5,0.1,0.6H17c0-0.2,0-0.5,0.1-0.8c0.1-0.3,0.2-0.6,0.3-0.9c0.3-0.5,0.6-0.7,0.8-0.7
				c0.2,0,0.3,0.2,0.3,0.5c0,0.4,0,0.6-0.1,0.8c-0.2,0.4-0.4,0.7-0.5,0.8c-0.6,0.8-1.7,1.9-3.3,3.2c-1.5,1.2-2.5,2.3-3.1,3.3
				c-0.2,0.4-0.4,0.8-0.5,1h1.9c0.3-1,0.7-1.9,1.3-2.9c0.1,0.5,0.1,0.8,0.2,1c0.2,0.6,0.8,1.1,1.8,1.5c0.9,0.3,1.6,0.4,2.2,0.4
				c2.1,0,3.8-0.6,5.1-1.8c0,0,0.1-0.1,0.1-0.1c-2.3,3.5-6.4,5.8-11,5.5c-6-0.4-10.9-5.3-11.3-11.3C0.7,6,6.7,0,14.1,0.4
				c6,0.4,10.9,5.3,11.3,11.3c0,0.6,0,1.3,0,1.9c-0.1-2.2-1-4.3-2.6-6.2C22.2,6.8,21.7,6.3,21.1,5.9z"/>
		</g>
	</g>
</g>
</svg>
